{
.appVersion = "1286";
DisplayStrings = (
ABCDEFGHIJKLMNOPQRSTUVWXYZabcdefghijklmnopqrstuvwxyz0123456789,

glyphs = (
{
glyphname = A;
layers = (
{
layerId = "CFFEBDE4-599A-46B2-9328-D96E42CD9C81";
paths = (
{
closed = 1;
nodes = (
"638 0 LINE",
"360 717 LINE",
"279 717 LINE",
"0 0 LINE",
"91 0 LINE",
"176 221 LINE",
"459 221 LINE",
"545 0 LINE",
"545 0 LINE"
);
},
{
closed = 1;
nodes = (
"206 301 LINE",
"287 517 LINE SMOOTH",
"293 534 OFFCURVE",
"311 593 OFFCURVE",
"318 624 QCURVE",
"322 612 OFFCURVE",
"335 567 OFFCURVE",
"349 525 OFFCURVE",
"352 517 QCURVE SMOOTH",
"432 301 LINE",
"432 301 LINE"
);
}
);
width = 639;
}
);
leftKerningGroup = A;
note = A;
rightKerningGroup = A;
unicode = 0041;
},
{
glyphname = B;
layers = (
{
layerId = "CFFEBDE4-599A-46B2-9328-D96E42CD9C81";
paths = (
{
closed = 1;
nodes = (
"97 0 LINE",
"348 0 LINE SMOOTH",
"463 0 OFFCURVE",
"596 106 OFFCURVE",
"596 203 QCURVE SMOOTH",
"596 259 OFFCURVE",
"554 329 OFFCURVE",
"481 367 OFFCURVE",
"436 374 QCURVE",
"436 379 LINE",
"502 391 OFFCURVE",
"572 474 OFFCURVE",
"572 537 QCURVE SMOOTH",
"572 635 OFFCURVE",
"435 714 OFFCURVE",
"301 714 QCURVE SMOOTH",
"97 714 LINE",
"97 714 LINE"
);
},
{
closed = 1;
nodes = (
"187 637 LINE",
"305 637 LINE SMOOTH",
"396 637 OFFCURVE",
"479 586 OFFCURVE",
"479 527 QCURVE SMOOTH",
"479 469 OFFCURVE",
"411 410 OFFCURVE",
"319 410 QCURVE SMOOTH",
"187 410 LINE",
"187 410 LINE"
);
},
{
closed = 1;
nodes = (
"324 335 LINE SMOOTH",
"423 335 OFFCURVE",
"500 266 OFFCURVE",
"500 210 QCURVE SMOOTH",
"500 150 OFFCURVE",
"426 76 OFFCURVE",
"331 76 QCURVE SMOOTH",
"187 76 LINE",
"187 335 LINE",
"187 335 LINE"
);
}
);
width = 650;
}
);
note = B;
unicode = 0042;
},
{
glyphname = C;
layers = (
{
layerId = "CFFEBDE4-599A-46B2-9328-D96E42CD9C81";
paths = (
{
closed = 1;
nodes = (
"451 645 OFFCURVE",
"532 621 OFFCURVE",
"565 606 QCURVE",
"601 682 LINE",
"517 724 OFFCURVE",
"404 724 QCURVE SMOOTH",
"294 724 OFFCURVE",
"140 631 OFFCURVE",
"61 466 OFFCURVE",
"61 358 QCURVE SMOOTH",
"61 246 OFFCURVE",
"134 80 OFFCURVE",
"280 -10 OFFCURVE",
"389 -10 QCURVE SMOOTH",
"448 -10 OFFCURVE",
"533 4 OFFCURVE",
"573 19 QCURVE",
"573 97 LINE",
"533 85 OFFCURVE",
"449 69 OFFCURVE",
"402 69 QCURVE SMOOTH",
"279 69 OFFCURVE",
"156 224 OFFCURVE",
"156 357 QCURVE SMOOTH",
"156 491 OFFCURVE",
"288 645 OFFCURVE",
"403 645 QCURVE",
"403 645 LINE"
);
}
);
width = 632;
}
);
leftKerningGroup = C;
note = C;
rightKerningGroup = C;
unicode = 0043;
},
{
glyphname = D;
layers = (
{
layerId = "CFFEBDE4-599A-46B2-9328-D96E42CD9C81";
paths = (
{
closed = 1;
nodes = (
"669 479 OFFCURVE",
"583 634 OFFCURVE",
"425 714 OFFCURVE",
"317 714 QCURVE SMOOTH",
"97 714 LINE",
"97 0 LINE",
"296 0 LINE SMOOTH",
"472 0 OFFCURVE",
"669 183 OFFCURVE",
"669 364 QCURVE",
"669 364 LINE"
);
},
{
closed = 1;
nodes = (
"574 77 OFFCURVE",
"284 77 QCURVE SMOOTH",
"187 77 LINE",
"187 637 LINE",
"304 637 LINE SMOOTH",
"433 637 OFFCURVE",
"574 504 OFFCURVE",
"574 361 QCURVE",
"574 361 LINE"
);
}
);
width = 730;
}
);
note = D;
rightKerningGroup = D;
unicode = 0044;
},
{
glyphname = E;
layers = (
{
layerId = "CFFEBDE4-599A-46B2-9328-D96E42CD9C81";
paths = (
{
closed = 1;
nodes = (
"496 79 LINE",
"187 79 LINE",
"187 334 LINE",
"478 334 LINE",
"478 412 LINE",
"187 412 LINE",
"187 635 LINE",
"496 635 LINE",
"496 714 LINE",
"97 714 LINE",
"97 0 LINE",
"496 0 LINE",
"496 0 LINE"
);
}
);
width = 556;
}
);
note = E;
rightKerningGroup = E;
unicode = 0045;
},
{
glyphname = F;
layers = (
{
layerId = "CFFEBDE4-599A-46B2-9328-D96E42CD9C81";
paths = (
{
closed = 1;
nodes = (
"187 303 LINE",
"477 303 LINE",
"477 382 LINE",
"187 382 LINE",
"187 635 LINE",
"496 635 LINE",
"496 714 LINE",
"97 714 LINE",
"97 0 LINE",
"187 0 LINE",
"187 0 LINE"
);
}
);
width = 519;
}
);
note = F;
unicode = 0046;
},
{
glyphname = G;
layers = (
{
layerId = "CFFEBDE4-599A-46B2-9328-D96E42CD9C81";
paths = (
{
closed = 1;
nodes = (
"407 297 LINE",
"564 297 LINE",
"564 85 LINE",
"537 78 OFFCURVE",
"471 68 OFFCURVE",
"424 68 QCURVE SMOOTH",
"328 68 OFFCURVE",
"210 141 OFFCURVE",
"155 272 OFFCURVE",
"155 357 QCURVE SMOOTH",
"155 491 OFFCURVE",
"298 645 OFFCURVE",
"426 645 QCURVE SMOOTH",
"477 645 OFFCURVE",
"572 621 OFFCURVE",
"610 604 QCURVE",
"644 682 LINE",
"598 702 OFFCURVE",
"491 724 OFFCURVE",
"431 724 QCURVE SMOOTH",
"314 724 OFFCURVE",
"149 633 OFFCURVE",
"61 469 OFFCURVE",
"61 357 QCURVE SMOOTH",
"61 244 OFFCURVE",
"140 79 OFFCURVE",
"292 -10 OFFCURVE",
"403 -10 QCURVE SMOOTH",
"478 -10 OFFCURVE",
"596 8 OFFCURVE",
"654 27 QCURVE",
"654 377 LINE",
"407 377 LINE",
"407 377 LINE"
);
}
);
width = 728;
}
);
leftKerningGroup = C;
note = G;
unicode = 0047;
},
{
glyphname = H;
layers = (
{
layerId = "CFFEBDE4-599A-46B2-9328-D96E42CD9C81";
paths = (
{
closed = 1;
nodes = (
"643 714 LINE",
"553 714 LINE",
"553 412 LINE",
"187 412 LINE",
"187 714 LINE",
"97 714 LINE",
"97 0 LINE",
"187 0 LINE",
"187 333 LINE",
"553 333 LINE",
"553 0 LINE",
"643 0 LINE",
"643 0 LINE"
);
}
);
width = 741;
}
);
note = H;
unicode = 0048;
},
{
glyphname = I;
layers = (
{
layerId = "CFFEBDE4-599A-46B2-9328-D96E42CD9C81";
paths = (
{
closed = 1;
nodes = (
"298 52 LINE",
"214 71 LINE",
"214 642 LINE",
"298 662 LINE",
"298 714 LINE",
"40 714 LINE",
"40 662 LINE",
"124 642 LINE",
"124 71 LINE",
"40 52 LINE",
"40 0 LINE",
"298 0 LINE",
"298 0 LINE"
);
}
);
width = 339;
}
);
note = I;
unicode = 0049;
},
{
glyphname = J;
layers = (
{
layerId = "CFFEBDE4-599A-46B2-9328-D96E42CD9C81";
paths = (
{
closed = 1;
nodes = (
"80 -190 OFFCURVE",
"182 -92 OFFCURVE",
"182 11 QCURVE SMOOTH",
"182 714 LINE",
"92 714 LINE",
"92 4 LINE SMOOTH",
"92 -41 OFFCURVE",
"64 -91 OFFCURVE",
"19 -111 OFFCURVE",
"-6 -111 QCURVE SMOOTH",
"-26 -111 OFFCURVE",
"-62 -105 OFFCURVE",
"-78 -101 QCURVE",
"-78 -177 LINE",
"-64 -183 OFFCURVE",
"-28 -190 OFFCURVE",
"-4 -190 QCURVE",
"-4 -190 LINE"
);
}
);
width = 273;
}
);
note = J;
unicode = 004A;
},
{
glyphname = K;
layers = (
{
layerId = "CFFEBDE4-599A-46B2-9328-D96E42CD9C81";
paths = (
{
closed = 1;
nodes = (
"325 403 LINE",
"608 714 LINE",
"503 714 LINE",
"310 498 LINE SMOOTH",
"279 464 OFFCURVE",
"217 396 OFFCURVE",
"187 362 QCURVE",
"187 714 LINE",
"97 714 LINE",
"97 0 LINE",
"187 0 LINE",
"187 277 LINE",
"260 341 LINE",
"513 0 LINE",
"619 0 LINE",
"619 0 LINE"
);
}
);
width = 600;
}
);
note = K;
rightKerningGroup = K;
unicode = 004B;
},
{
glyphname = L;
layers = (
{
layerId = "CFFEBDE4-599A-46B2-9328-D96E42CD9C81";
paths = (
{
closed = 1;
nodes = (
"499 0 LINE",
"499 80 LINE",
"187 80 LINE",
"187 714 LINE",
"97 714 LINE",
"97 0 LINE",
"97 0 LINE"
);
}
);
width = 524;
}
);
note = L;
rightKerningGroup = L;
unicode = 004C;
},
{
glyphname = M;
layers = (
{
layerId = "CFFEBDE4-599A-46B2-9328-D96E42CD9C81";
paths = (
{
closed = 1;
nodes = (
"486 0 LINE",
"724 625 LINE",
"728 625 LINE",
"726 593 OFFCURVE",
"721 491 OFFCURVE",
"721 439 QCURVE SMOOTH",
"721 0 LINE",
"810 0 LINE",
"810 714 LINE",
"678 714 LINE",
"454 129 LINE",
"450 129 LINE",
"230 714 LINE",
"97 714 LINE",
"97 0 LINE",
"180 0 LINE",
"180 433 LINE SMOOTH",
"180 490 OFFCURVE",
"176 595 OFFCURVE",
"173 626 QCURVE",
"177 626 LINE",
"412 0 LINE",
"412 0 LINE"
);
}
);
width = 907;
}
);
note = M;
unicode = 004D;
},
{
glyphname = N;
layers = (
{
layerId = "CFFEBDE4-599A-46B2-9328-D96E42CD9C81";
paths = (
{
closed = 1;
nodes = (
"663 714 LINE",
"579 714 LINE",
"579 311 LINE SMOOTH",
"579 279 OFFCURVE",
"582 203 OFFCURVE",
"585 139 OFFCURVE",
"586 123 QCURVE",
"582 123 LINE",
"201 714 LINE",
"97 714 LINE",
"97 0 LINE",
"180 0 LINE",
"180 399 LINE SMOOTH",
"180 454 OFFCURVE",
"174 558 OFFCURVE",
"172 593 QCURVE",
"176 593 LINE",
"558 0 LINE",
"663 0 LINE",
"663 0 LINE"
);
}
);
width = 760;
}
);
note = N;
unicode = 004E;
},
{
glyphname = O;
layers = (
{
layerId = "CFFEBDE4-599A-46B2-9328-D96E42CD9C81";
paths = (
{
closed = 1;
nodes = (
"720 469 OFFCURVE",
"645 634 OFFCURVE",
"499 725 OFFCURVE",
"392 725 QCURVE SMOOTH",
"280 725 OFFCURVE",
"133 633 OFFCURVE",
"61 469 OFFCURVE",
"61 359 QCURVE SMOOTH",
"61 248 OFFCURVE",
"133 82 OFFCURVE",
"280 -10 OFFCURVE",
"391 -10 QCURVE SMOOTH",
"499 -10 OFFCURVE",
"645 82 OFFCURVE",
"720 247 OFFCURVE",
"720 358 QCURVE",
"720 358 LINE"
);
},
{
closed = 1;
nodes = (
"156 493 OFFCURVE",
"271 646 OFFCURVE",
"392 646 QCURVE SMOOTH",
"513 646 OFFCURVE",
"625 493 OFFCURVE",
"625 358 QCURVE SMOOTH",
"625 223 OFFCURVE",
"513 68 OFFCURVE",
"391 68 QCURVE SMOOTH",
"270 68 OFFCURVE",
"156 223 OFFCURVE",
"156 358 QCURVE",
"156 358 LINE"
);
}
);
userData = {
assembly = "NPUSHB[ ]	/* 28 values pushed */\0120 3 3 1 97 0 1 1 112 77 0 2 2 0 97 0 0 0 113 0 78 36 37 38 35 4 13 26 \012CALL[ ]	/* CallFunction */";
};
width = 781;
}
);
leftKerningGroup = C;
note = O;
rightKerningGroup = D;
unicode = 004F;
},
{
glyphname = P;
layers = (
{
layerId = "CFFEBDE4-599A-46B2-9328-D96E42CD9C81";
paths = (
{
closed = 1;
nodes = (
"97 714 LINE",
"97 0 LINE",
"187 0 LINE",
"187 278 LINE",
"269 278 LINE SMOOTH",
"376 278 OFFCURVE",
"501 342 OFFCURVE",
"554 445 OFFCURVE",
"554 504 QCURVE SMOOTH",
"554 604 OFFCURVE",
"426 714 OFFCURVE",
"286 714 QCURVE",
"286 714 LINE"
);
},
{
closed = 1;
nodes = (
"373 637 OFFCURVE",
"461 569 OFFCURVE",
"461 500 QCURVE SMOOTH",
"461 421 OFFCURVE",
"361 355 OFFCURVE",
"259 355 QCURVE SMOOTH",
"187 355 LINE",
"187 637 LINE",
"278 637 LINE",
"278 637 LINE"
);
}
);
width = 605;
}
);
note = P;
rightKerningGroup = P;
unicode = 0050;
},
{
glyphname = Q;
layers = (
{
layerId = "CFFEBDE4-599A-46B2-9328-D96E42CD9C81";
paths = (
{
closed = 1;
nodes = (
"720 469 OFFCURVE",
"645 634 OFFCURVE",
"499 725 OFFCURVE",
"392 725 QCURVE SMOOTH",
"280 725 OFFCURVE",
"133 633 OFFCURVE",
"61 469 OFFCURVE",
"61 359 QCURVE SMOOTH",
"61 248 OFFCURVE",
"133 82 OFFCURVE",
"280 -10 OFFCURVE",
"391 -10 QCURVE SMOOTH",
"397 -10 OFFCURVE",
"410 -9 OFFCURVE",
"416 -9 QCURVE",
"554 -170 LINE",
"683 -170 LINE",
"512 8 LINE",
"615 43 OFFCURVE",
"720 227 OFFCURVE",
"720 358 QCURVE",
"720 358 LINE"
);
},
{
closed = 1;
nodes = (
"156 493 OFFCURVE",
"271 646 OFFCURVE",
"392 646 QCURVE SMOOTH",
"513 646 OFFCURVE",
"625 493 OFFCURVE",
"625 358 QCURVE SMOOTH",
"625 223 OFFCURVE",
"513 68 OFFCURVE",
"391 68 QCURVE SMOOTH",
"270 68 OFFCURVE",
"156 223 OFFCURVE",
"156 358 QCURVE",
"156 358 LINE"
);
}
);
width = 781;
}
);
leftKerningGroup = C;
note = Q;
rightKerningGroup = D;
unicode = 0051;
},
{
glyphname = R;
layers = (
{
layerId = "CFFEBDE4-599A-46B2-9328-D96E42CD9C81";
paths = (
{
closed = 1;
nodes = (
"97 714 LINE",
"97 0 LINE",
"187 0 LINE",
"187 295 LINE",
"329 295 LINE",
"502 0 LINE",
"607 0 LINE",
"411 320 LINE",
"447 333 OFFCURVE",
"512 378 OFFCURVE",
"554 454 OFFCURVE",
"554 511 QCURVE SMOOTH",
"554 613 OFFCURVE",
"427 714 OFFCURVE",
"294 714 QCURVE",
"294 714 LINE"
);
},
{
closed = 1;
nodes = (
"377 636 OFFCURVE",
"461 577 OFFCURVE",
"461 507 QCURVE SMOOTH",
"461 440 OFFCURVE",
"381 371 OFFCURVE",
"294 371 QCURVE SMOOTH",
"187 371 LINE",
"187 636 LINE",
"289 636 LINE",
"289 636 LINE"
);
}
);
width = 622;
}
);
note = R;
unicode = 0052;
},
{
glyphname = S;
layers = (
{
layerId = "CFFEBDE4-599A-46B2-9328-D96E42CD9C81";
paths = (
{
closed = 1;
nodes = (
"502 247 OFFCURVE",
"457 321 OFFCURVE",
"370 374 OFFCURVE",
"307 397 QCURVE SMOOTH",
"249 419 OFFCURVE",
"181 457 OFFCURVE",
"151 505 OFFCURVE",
"151 541 QCURVE SMOOTH",
"151 588 OFFCURVE",
"219 645 OFFCURVE",
"286 645 QCURVE SMOOTH",
"333 645 OFFCURVE",
"420 623 OFFCURVE",
"457 607 QCURVE",
"485 684 LINE",
"445 702 OFFCURVE",
"347 724 OFFCURVE",
"288 724 QCURVE SMOOTH",
"221 724 OFFCURVE",
"118 680 OFFCURVE",
"60 599 OFFCURVE",
"60 542 QCURVE SMOOTH",
"60 459 OFFCURVE",
"153 363 OFFCURVE",
"244 330 QCURVE SMOOTH",
"309 307 OFFCURVE",
"382 266 OFFCURVE",
"412 218 OFFCURVE",
"412 183 QCURVE SMOOTH",
"412 130 OFFCURVE",
"331 68 OFFCURVE",
"251 68 QCURVE SMOOTH",
"194 68 OFFCURVE",
"87 94 OFFCURVE",
"51 110 QCURVE",
"51 24 LINE",
"85 8 OFFCURVE",
"187 -10 OFFCURVE",
"247 -10 QCURVE SMOOTH",
"364 -10 OFFCURVE",
"502 96 OFFCURVE",
"502 191 QCURVE",
"502 191 LINE"
);
}
);
width = 549;
}
);
note = S;
unicode = 0053;
},
{
glyphname = T;
layers = (
{
layerId = "CFFEBDE4-599A-46B2-9328-D96E42CD9C81";
paths = (
{
closed = 1;
nodes = (
"323 635 LINE",
"545 635 LINE",
"545 714 LINE",
"10 714 LINE",
"10 635 LINE",
"233 635 LINE",
"233 0 LINE",
"323 0 LINE",
"323 0 LINE"
);
}
);
width = 556;
}
);
leftKerningGroup = T;
note = T;
rightKerningGroup = T;
unicode = 0054;
},
{
glyphname = U;
layers = (
{
layerId = "CFFEBDE4-599A-46B2-9328-D96E42CD9C81";
paths = (
{
closed = 1;
nodes = (
"551 714 LINE",
"551 252 LINE SMOOTH",
"551 171 OFFCURVE",
"464 68 OFFCURVE",
"367 68 QCURVE SMOOTH",
"273 68 OFFCURVE",
"180 164 OFFCURVE",
"180 251 QCURVE SMOOTH",
"180 714 LINE",
"90 714 LINE",
"90 254 LINE SMOOTH",
"90 135 OFFCURVE",
"229 -10 OFFCURVE",
"362 -10 QCURVE SMOOTH",
"457 -10 OFFCURVE",
"580 59 OFFCURVE",
"640 178 OFFCURVE",
"640 252 QCURVE SMOOTH",
"640 714 LINE",
"640 714 LINE"
);
}
);
width = 731;
}
);
leftKerningGroup = U;
note = U;
rightKerningGroup = U;
unicode = 0055;
},
{
glyphname = V;
layers = (
{
layerId = "CFFEBDE4-599A-46B2-9328-D96E42CD9C81";
paths = (
{
closed = 1;
nodes = (
"505 714 LINE",
"345 258 LINE SMOOTH",
"329 213 OFFCURVE",
"307 135 OFFCURVE",
"300 100 QCURVE",
"293 135 OFFCURVE",
"271 212 OFFCURVE",
"255 256 QCURVE SMOOTH",
"94 714 LINE",
"0 714 LINE",
"255 0 LINE",
"345 0 LINE",
"600 714 LINE",
"600 714 LINE"
);
}
);
width = 600;
}
);
leftKerningGroup = V;
note = V;
rightKerningGroup = V;
unicode = 0056;
},
{
glyphname = W;
layers = (
{
layerId = "CFFEBDE4-599A-46B2-9328-D96E42CD9C81";
paths = (
{
closed = 1;
nodes = (
"823 714 LINE",
"713 279 LINE SMOOTH",
"701 232 OFFCURVE",
"683 145 OFFCURVE",
"678 108 QCURVE",
"673 143 OFFCURVE",
"653 234 OFFCURVE",
"639 280 QCURVE SMOOTH",
"508 714 LINE",
"415 714 LINE",
"289 283 LINE SMOOTH",
"276 239 OFFCURVE",
"256 147 OFFCURVE",
"251 108 QCURVE",
"246 146 OFFCURVE",
"229 232 OFFCURVE",
"217 278 QCURVE SMOOTH",
"106 714 LINE",
"12 714 LINE",
"201 0 LINE",
"292 0 LINE",
"427 465 LINE SMOOTH",
"441 511 OFFCURVE",
"460 596 OFFCURVE",
"461 609 QCURVE",
"463 600 OFFCURVE",
"473 555 OFFCURVE",
"489 497 OFFCURVE",
"497 468 QCURVE SMOOTH",
"636 0 LINE",
"727 0 LINE",
"917 714 LINE",
"917 714 LINE"
);
}
);
width = 930;
}
);
leftKerningGroup = V;
note = W;
rightKerningGroup = V;
unicode = 0057;
},
{
glyphname = X;
layers = (
{
layerId = "CFFEBDE4-599A-46B2-9328-D96E42CD9C81";
paths = (
{
closed = 1;
nodes = (
"344 374 LINE",
"565 714 LINE",
"470 714 LINE",
"294 434 LINE",
"119 714 LINE",
"19 714 LINE",
"241 372 LINE",
"4 0 LINE",
"99 0 LINE",
"291 310 LINE",
"480 0 LINE",
"582 0 LINE",
"582 0 LINE"
);
}
);
width = 586;
}
);
note = X;
rightKerningGroup = K;
unicode = 0058;
},
{
glyphname = Y;
layers = (
{
layerId = "CFFEBDE4-599A-46B2-9328-D96E42CD9C81";
paths = (
{
closed = 1;
nodes = (
"98 714 LINE",
"0 714 LINE",
"238 273 LINE",
"238 0 LINE",
"328 0 LINE",
"328 277 LINE",
"566 714 LINE",
"469 714 LINE",
"283 363 LINE",
"283 363 LINE"
);
}
);
width = 566;
}
);
leftKerningGroup = Y;
note = Y;
rightKerningGroup = Y;
unicode = 0059;
},
{
glyphname = Z;
layers = (
{
layerId = "CFFEBDE4-599A-46B2-9328-D96E42CD9C81";
paths = (
{
closed = 1;
nodes = (
"533 80 LINE",
"147 80 LINE",
"523 646 LINE",
"523 714 LINE",
"50 714 LINE",
"50 634 LINE",
"414 634 LINE",
"38 68 LINE",
"38 0 LINE",
"533 0 LINE",
"533 0 LINE"
);
}
);
width = 572;
}
);
leftKerningGroup = Z;
note = Z;
rightKerningGroup = Z;
unicode = 005A;
},
{
glyphname = a;
layers = (
{
layerId = "CFFEBDE4-599A-46B2-9328-D96E42CD9C81";
paths = (
{
closed = 1;
nodes = (
"236 545 OFFCURVE",
"140 518 OFFCURVE",
"105 499 QCURVE",
"132 433 LINE",
"165 449 OFFCURVE",
"241 474 OFFCURVE",
"283 474 QCURVE SMOOTH",
"336 474 OFFCURVE",
"394 422 OFFCURVE",
"394 355 QCURVE SMOOTH",
"394 323 LINE",
"303 320 LINE SMOOTH",
"172 316 OFFCURVE",
"46 229 OFFCURVE",
"46 149 QCURVE SMOOTH",
"46 67 OFFCURVE",
"142 -10 OFFCURVE",
"215 -10 QCURVE SMOOTH",
"283 -10 OFFCURVE",
"360 32 OFFCURVE",
"395 76 QCURVE",
"399 76 LINE",
"416 0 LINE",
"480 0 LINE",
"480 365 LINE SMOOTH",
"480 459 OFFCURVE",
"386 545 OFFCURVE",
"288 545 QCURVE",
"288 545 LINE"
);
},
{
closed = 1;
nodes = (
"393 214 LINE SMOOTH",
"393 136 OFFCURVE",
"303 61 OFFCURVE",
"235 61 QCURVE SMOOTH",
"192 61 OFFCURVE",
"137 103 OFFCURVE",
"137 148 QCURVE SMOOTH",
"137 199 OFFCURVE",
"214 255 OFFCURVE",
"314 259 QCURVE SMOOTH",
"393 262 LINE",
"393 262 LINE"
);
}
);
width = 561;
}
);
leftKerningGroup = a;
note = a;
rightKerningGroup = a;
unicode = 0061;
},
{
glyphname = b;
layers = (
{
layerId = "CFFEBDE4-599A-46B2-9328-D96E42CD9C81";
paths = (
{
closed = 1;
nodes = (
"85 760 LINE",
"85 0 LINE",
"148 0 LINE",
"166 68 LINE",
"173 68 LINE",
"196 36 OFFCURVE",
"276 -10 OFFCURVE",
"339 -10 QCURVE SMOOTH",
"438 -10 OFFCURVE",
"560 130 OFFCURVE",
"560 268 QCURVE SMOOTH",
"560 406 OFFCURVE",
"439 545 OFFCURVE",
"339 545 QCURVE SMOOTH",
"276 545 OFFCURVE",
"196 499 OFFCURVE",
"173 465 QCURVE",
"168 465 LINE",
"170 482 OFFCURVE",
"173 541 OFFCURVE",
"173 575 QCURVE SMOOTH",
"173 760 LINE",
"173 760 LINE"
);
},
{
closed = 1;
nodes = (
"469 472 OFFCURVE",
"469 269 QCURVE SMOOTH",
"469 169 OFFCURVE",
"398 63 OFFCURVE",
"326 63 QCURVE SMOOTH",
"238 63 OFFCURVE",
"173 168 OFFCURVE",
"173 267 QCURVE SMOOTH",
"173 271 LINE SMOOTH",
"173 374 OFFCURVE",
"239 472 OFFCURVE",
"324 472 QCURVE",
"324 472 LINE"
);
}
);
width = 615;
}
);
leftKerningGroup = b;
note = b;
rightKerningGroup = b;
unicode = 0062;
},
{
glyphname = c;
layers = (
{
layerId = "CFFEBDE4-599A-46B2-9328-D96E42CD9C81";
paths = (
{
closed = 1;
nodes = (
"346 -10 OFFCURVE",
"411 5 OFFCURVE",
"438 19 QCURVE",
"438 97 LINE",
"410 84 OFFCURVE",
"343 66 OFFCURVE",
"299 66 QCURVE SMOOTH",
"223 66 OFFCURVE",
"146 169 OFFCURVE",
"146 266 QCURVE SMOOTH",
"146 469 OFFCURVE",
"304 469 QCURVE SMOOTH",
"332 469 OFFCURVE",
"396 453 OFFCURVE",
"420 444 QCURVE",
"447 517 LINE",
"423 529 OFFCURVE",
"347 546 OFFCURVE",
"306 546 QCURVE SMOOTH",
"234 546 OFFCURVE",
"121 488 OFFCURVE",
"55 364 OFFCURVE",
"55 265 QCURVE SMOOTH",
"55 170 OFFCURVE",
"118 48 OFFCURVE",
"229 -10 OFFCURVE",
"300 -10 QCURVE",
"300 -10 LINE"
);
}
);
width = 480;
}
);
leftKerningGroup = c;
note = c;
unicode = 0063;
},
{
glyphname = d;
layers = (
{
layerId = "CFFEBDE4-599A-46B2-9328-D96E42CD9C81";
paths = (
{
closed = 1;
nodes = (
"338 -10 OFFCURVE",
"418 38 OFFCURVE",
"442 72 QCURVE",
"446 72 LINE",
"459 0 LINE",
"530 0 LINE",
"530 760 LINE",
"442 760 LINE",
"442 546 LINE SMOOTH",
"442 531 OFFCURVE",
"447 480 OFFCURVE",
"448 467 QCURVE",
"442 467 LINE",
"417 500 OFFCURVE",
"338 546 OFFCURVE",
"276 546 QCURVE SMOOTH",
"176 546 OFFCURVE",
"55 405 OFFCURVE",
"55 267 QCURVE SMOOTH",
"55 129 OFFCURVE",
"175 -10 OFFCURVE",
"275 -10 QCURVE",
"275 -10 LINE"
);
},
{
closed = 1;
nodes = (
"217 63 OFFCURVE",
"146 169 OFFCURVE",
"146 265 QCURVE SMOOTH",
"146 360 OFFCURVE",
"217 473 OFFCURVE",
"288 473 QCURVE SMOOTH",
"377 473 OFFCURVE",
"443 366 OFFCURVE",
"443 266 QCURVE SMOOTH",
"443 250 LINE SMOOTH",
"443 156 OFFCURVE",
"374 63 OFFCURVE",
"289 63 QCURVE",
"289 63 LINE"
);
}
);
width = 615;
}
);
leftKerningGroup = c;
note = d;
unicode = 0064;
},
{
glyphname = e;
layers = (
{
layerId = "CFFEBDE4-599A-46B2-9328-D96E42CD9C81";
paths = (
{
closed = 1;
nodes = (
"221 546 OFFCURVE",
"114 478 OFFCURVE",
"55 352 OFFCURVE",
"55 264 QCURVE SMOOTH",
"55 175 OFFCURVE",
"120 52 OFFCURVE",
"237 -10 OFFCURVE",
"313 -10 QCURVE SMOOTH",
"368 -10 OFFCURVE",
"448 7 OFFCURVE",
"489 25 QCURVE",
"489 102 LINE",
"447 84 OFFCURVE",
"368 65 OFFCURVE",
"317 65 QCURVE SMOOTH",
"237 65 OFFCURVE",
"148 160 OFFCURVE",
"146 251 QCURVE",
"513 251 LINE",
"513 304 LINE SMOOTH",
"513 377 OFFCURVE",
"460 486 OFFCURVE",
"361 546 OFFCURVE",
"292 546 QCURVE",
"292 546 LINE"
);
},
{
closed = 1;
nodes = (
"358 474 OFFCURVE",
"420 389 OFFCURVE",
"421 321 QCURVE",
"148 321 LINE",
"155 393 OFFCURVE",
"228 474 OFFCURVE",
"291 474 QCURVE",
"291 474 LINE"
);
}
);
width = 564;
}
);
leftKerningGroup = c;
note = e;
rightKerningGroup = b;
unicode = 0065;
},
{
glyphname = f;
layers = (
{
layerId = "CFFEBDE4-599A-46B2-9328-D96E42CD9C81";
paths = (
{
closed = 1;
nodes = (
"332 536 LINE",
"197 536 LINE",
"197 571 LINE SMOOTH",
"197 634 OFFCURVE",
"240 693 OFFCURVE",
"284 693 QCURVE SMOOTH",
"306 693 OFFCURVE",
"348 683 OFFCURVE",
"364 678 QCURVE",
"387 747 LINE",
"368 754 OFFCURVE",
"315 765 OFFCURVE",
"283 765 QCURVE SMOOTH",
"201 765 OFFCURVE",
"109 674 OFFCURVE",
"109 570 QCURVE SMOOTH",
"109 539 LINE",
"15 509 LINE",
"15 468 LINE",
"109 468 LINE",
"109 0 LINE",
"197 0 LINE",
"197 468 LINE",
"332 468 LINE",
"332 468 LINE"
);
}
);
width = 344;
}
);
leftKerningGroup = f;
note = f;
rightKerningGroup = f;
unicode = 0066;
},
{
glyphname = g;
layers = (
{
layerId = "CFFEBDE4-599A-46B2-9328-D96E42CD9C81";
paths = (
{
closed = 1;
nodes = (
"172 546 OFFCURVE",
"55 395 OFFCURVE",
"55 267 QCURVE SMOOTH",
"55 136 OFFCURVE",
"172 -10 OFFCURVE",
"276 -10 QCURVE SMOOTH",
"388 -10 OFFCURVE",
"442 71 QCURVE",
"446 71 LINE",
"445 62 OFFCURVE",
"443 17 OFFCURVE",
"443 5 QCURVE SMOOTH",
"443 -16 LINE SMOOTH",
"443 -86 OFFCURVE",
"364 -167 OFFCURVE",
"295 -167 QCURVE SMOOTH",
"176 -167 OFFCURVE",
"97 -125 QCURVE",
"97 -206 LINE",
"172 -240 OFFCURVE",
"290 -240 QCURVE SMOOTH",
"413 -240 OFFCURVE",
"530 -124 OFFCURVE",
"530 -9 QCURVE SMOOTH",
"530 536 LINE",
"460 536 LINE",
"448 465 LINE",
"443 465 LINE",
"413 506 OFFCURVE",
"328 546 OFFCURVE",
"275 546 QCURVE",
"275 546 LINE"
);
},
{
closed = 1;
nodes = (
"368 472 OFFCURVE",
"444 377 OFFCURVE",
"444 267 QCURVE SMOOTH",
"444 246 LINE SMOOTH",
"444 149 OFFCURVE",
"370 62 OFFCURVE",
"289 62 QCURVE SMOOTH",
"219 62 OFFCURVE",
"146 167 OFFCURVE",
"146 266 QCURVE SMOOTH",
"146 365 OFFCURVE",
"220 472 OFFCURVE",
"287 472 QCURVE",
"287 472 LINE"
);
}
);
width = 615;
}
);
leftKerningGroup = g;
note = g;
unicode = 0067;
},
{
glyphname = h;
layers = (
{
layerId = "CFFEBDE4-599A-46B2-9328-D96E42CD9C81";
paths = (
{
closed = 1;
nodes = (
"85 760 LINE",
"85 0 LINE",
"173 0 LINE",
"173 277 LINE SMOOTH",
"173 371 OFFCURVE",
"240 472 OFFCURVE",
"330 472 QCURVE SMOOTH",
"450 472 OFFCURVE",
"450 343 QCURVE SMOOTH",
"450 0 LINE",
"537 0 LINE",
"537 349 LINE SMOOTH",
"537 452 OFFCURVE",
"439 545 OFFCURVE",
"341 545 QCURVE SMOOTH",
"289 545 OFFCURVE",
"200 503 OFFCURVE",
"174 462 QCURVE",
"168 462 LINE",
"173 497 OFFCURVE",
"173 537 QCURVE SMOOTH",
"173 760 LINE",
"173 760 LINE"
);
}
);
width = 618;
}
);
leftKerningGroup = b;
note = h;
rightKerningGroup = a;
unicode = 0068;
},
{
glyphname = i;
layers = (
{
layerId = "CFFEBDE4-599A-46B2-9328-D96E42CD9C81";
paths = (
{
closed = 1;
nodes = (
"108 737 OFFCURVE",
"78 710 OFFCURVE",
"78 681 QCURVE SMOOTH",
"78 653 OFFCURVE",
"108 625 OFFCURVE",
"130 625 QCURVE SMOOTH",
"150 625 OFFCURVE",
"181 653 OFFCURVE",
"181 681 QCURVE SMOOTH",
"181 710 OFFCURVE",
"150 737 OFFCURVE",
"130 737 QCURVE",
"130 737 LINE"
);
},
{
closed = 1;
nodes = (
"85 536 LINE",
"85 0 LINE",
"173 0 LINE",
"173 536 LINE",
"173 536 LINE"
);
}
);
width = 258;
}
);
note = i;
unicode = 0069;
},
{
glyphname = j;
layers = (
{
layerId = "CFFEBDE4-599A-46B2-9328-D96E42CD9C81";
paths = (
{
closed = 1;
nodes = (
"78 653 OFFCURVE",
"108 625 OFFCURVE",
"130 625 QCURVE SMOOTH",
"150 625 OFFCURVE",
"181 653 OFFCURVE",
"181 681 QCURVE SMOOTH",
"181 710 OFFCURVE",
"150 737 OFFCURVE",
"130 737 QCURVE SMOOTH",
"108 737 OFFCURVE",
"78 710 OFFCURVE",
"78 681 QCURVE",
"78 681 LINE"
);
},
{
closed = 1;
nodes = (
"101 -240 OFFCURVE",
"173 -155 OFFCURVE",
"173 -80 QCURVE SMOOTH",
"173 536 LINE",
"85 536 LINE",
"85 -83 LINE SMOOTH",
"85 -132 OFFCURVE",
"43 -167 OFFCURVE",
"11 -167 QCURVE SMOOTH",
"-8 -167 OFFCURVE",
"-40 -161 OFFCURVE",
"-55 -157 QCURVE",
"-55 -228 LINE",
"-41 -233 OFFCURVE",
"-3 -240 OFFCURVE",
"22 -240 QCURVE",
"22 -240 LINE"
);
}
);
width = 258;
}
);
note = j;
unicode = 006A;
},
{
glyphname = k;
layers = (
{
layerId = "CFFEBDE4-599A-46B2-9328-D96E42CD9C81";
paths = (
{
closed = 1;
nodes = (
"85 760 LINE",
"85 0 LINE",
"172 0 LINE",
"172 197 LINE",
"233 250 LINE",
"419 0 LINE",
"525 0 LINE",
"293 307 LINE",
"510 536 LINE",
"407 536 LINE",
"236 355 LINE SMOOTH",
"227 345 OFFCURVE",
"202 314 OFFCURVE",
"178 284 OFFCURVE",
"172 276 QCURVE",
"168 276 LINE",
"169 295 OFFCURVE",
"172 347 OFFCURVE",
"172 363 QCURVE SMOOTH",
"172 760 LINE",
"172 760 LINE"
);
}
);
width = 534;
}
);
leftKerningGroup = b;
note = k;
unicode = 006B;
},
{
glyphname = l;
layers = (
{
layerId = "CFFEBDE4-599A-46B2-9328-D96E42CD9C81";
paths = (
{
closed = 1;
nodes = (
"173 760 LINE",
"85 760 LINE",
"85 0 LINE",
"173 0 LINE",
"173 0 LINE"
);
}
);
width = 258;
}
);
leftKerningGroup = b;
note = l;
unicode = 006C;
},
{
glyphname = m;
layers = (
{
layerId = "CFFEBDE4-599A-46B2-9328-D96E42CD9C81";
paths = (
{
closed = 1;
nodes = (
"621 546 OFFCURVE",
"528 502 OFFCURVE",
"501 456 QCURVE",
"496 456 LINE",
"458 546 OFFCURVE",
"332 546 QCURVE SMOOTH",
"284 546 OFFCURVE",
"199 505 OFFCURVE",
"174 463 QCURVE",
"169 463 LINE",
"156 536 LINE",
"85 536 LINE",
"85 0 LINE",
"173 0 LINE",
"173 278 LINE SMOOTH",
"173 372 OFFCURVE",
"235 472 OFFCURVE",
"316 472 QCURVE SMOOTH",
"426 472 OFFCURVE",
"426 345 QCURVE SMOOTH",
"426 0 LINE",
"513 0 LINE",
"513 296 LINE SMOOTH",
"513 382 OFFCURVE",
"580 472 OFFCURVE",
"658 472 QCURVE SMOOTH",
"767 472 OFFCURVE",
"767 345 QCURVE SMOOTH",
"767 0 LINE",
"854 0 LINE",
"854 349 LINE SMOOTH",
"854 453 OFFCURVE",
"764 546 OFFCURVE",
"673 546 QCURVE",
"673 546 LINE"
);
}
);
width = 935;
}
);
leftKerningGroup = m;
note = m;
rightKerningGroup = a;
unicode = 006D;
},
{
glyphname = n;
layers = (
{
layerId = "CFFEBDE4-599A-46B2-9328-D96E42CD9C81";
paths = (
{
closed = 1;
nodes = (
"292 546 OFFCURVE",
"200 505 OFFCURVE",
"174 463 QCURVE",
"169 463 LINE",
"156 536 LINE",
"85 536 LINE",
"85 0 LINE",
"173 0 LINE",
"173 278 LINE SMOOTH",
"173 372 OFFCURVE",
"241 472 OFFCURVE",
"330 472 QCURVE SMOOTH",
"450 472 OFFCURVE",
"450 343 QCURVE SMOOTH",
"450 0 LINE",
"537 0 LINE",
"537 349 LINE SMOOTH",
"537 453 OFFCURVE",
"439 546 OFFCURVE",
"343 546 QCURVE",
"343 546 LINE"
);
}
);
width = 618;
}
);
leftKerningGroup = m;
note = n;
rightKerningGroup = a;
unicode = 006E;
},
{
glyphname = o;
layers = (
{
layerId = "CFFEBDE4-599A-46B2-9328-D96E42CD9C81";
paths = (
{
closed = 1;
nodes = (
"551 358 OFFCURVE",
"488 481 OFFCURVE",
"377 546 OFFCURVE",
"304 546 QCURVE SMOOTH",
"189 546 OFFCURVE",
"55 402 OFFCURVE",
"55 269 QCURVE SMOOTH",
"55 180 OFFCURVE",
"119 55 OFFCURVE",
"230 -10 OFFCURVE",
"301 -10 QCURVE SMOOTH",
"416 -10 OFFCURVE",
"551 136 OFFCURVE",
"551 269 QCURVE",
"551 269 LINE"
);
},
{
closed = 1;
nodes = (
"146 364 OFFCURVE",
"220 472 OFFCURVE",
"302 472 QCURVE SMOOTH",
"384 472 OFFCURVE",
"460 364 OFFCURVE",
"460 269 QCURVE SMOOTH",
"460 174 OFFCURVE",
"384 63 OFFCURVE",
"303 63 QCURVE SMOOTH",
"221 63 OFFCURVE",
"146 174 OFFCURVE",
"146 269 QCURVE",
"146 269 LINE"
);
}
);
width = 605;
}
);
leftKerningGroup = c;
note = o;
rightKerningGroup = b;
unicode = 006F;
},
{
glyphname = p;
layers = (
{
layerId = "CFFEBDE4-599A-46B2-9328-D96E42CD9C81";
paths = (
{
closed = 1;
nodes = (
"275 546 OFFCURVE",
"197 498 OFFCURVE",
"173 463 QCURVE",
"169 463 LINE",
"157 536 LINE",
"85 536 LINE",
"85 -240 LINE",
"173 -240 LINE",
"173 -20 LINE SMOOTH",
"173 -1 OFFCURVE",
"169 51 OFFCURVE",
"167 68 QCURVE",
"173 68 LINE",
"196 37 OFFCURVE",
"277 -10 OFFCURVE",
"339 -10 QCURVE SMOOTH",
"439 -10 OFFCURVE",
"560 132 OFFCURVE",
"560 269 QCURVE SMOOTH",
"560 408 OFFCURVE",
"439 546 OFFCURVE",
"340 546 QCURVE",
"340 546 LINE"
);
},
{
closed = 1;
nodes = (
"398 472 OFFCURVE",
"469 362 OFFCURVE",
"469 270 QCURVE SMOOTH",
"469 210 OFFCURVE",
"438 117 OFFCURVE",
"375 63 OFFCURVE",
"326 63 QCURVE SMOOTH",
"238 63 OFFCURVE",
"173 170 OFFCURVE",
"173 269 QCURVE SMOOTH",
"173 286 LINE SMOOTH",
"175 380 OFFCURVE",
"242 472 OFFCURVE",
"324 472 QCURVE",
"324 472 LINE"
);
}
);
width = 615;
}
);
leftKerningGroup = m;
note = p;
rightKerningGroup = b;
unicode = 0070;
},
{
glyphname = q;
layers = (
{
layerId = "CFFEBDE4-599A-46B2-9328-D96E42CD9C81";
paths = (
{
closed = 1;
nodes = (
"530 -240 LINE",
"530 536 LINE",
"460 536 LINE",
"447 463 LINE",
"443 463 LINE",
"419 498 OFFCURVE",
"339 546 OFFCURVE",
"276 546 QCURVE SMOOTH",
"178 546 OFFCURVE",
"55 405 OFFCURVE",
"55 267 QCURVE SMOOTH",
"55 129 OFFCURVE",
"176 -10 OFFCURVE",
"273 -10 QCURVE SMOOTH",
"337 -10 OFFCURVE",
"418 38 OFFCURVE",
"441 72 QCURVE",
"447 72 LINE",
"444 55 OFFCURVE",
"442 7 OFFCURVE",
"442 -11 QCURVE SMOOTH",
"442 -240 LINE",
"442 -240 LINE"
);
},
{
closed = 1;
nodes = (
"217 63 OFFCURVE",
"146 170 OFFCURVE",
"146 265 QCURVE SMOOTH",
"146 360 OFFCURVE",
"216 473 OFFCURVE",
"288 473 QCURVE SMOOTH",
"375 473 OFFCURVE",
"443 368 OFFCURVE",
"443 266 QCURVE SMOOTH",
"443 248 LINE SMOOTH",
"442 154 OFFCURVE",
"373 63 OFFCURVE",
"290 63 QCURVE",
"290 63 LINE"
);
}
);
width = 615;
}
);
leftKerningGroup = c;
note = q;
unicode = 0071;
},
{
glyphname = r;
layers = (
{
layerId = "CFFEBDE4-599A-46B2-9328-D96E42CD9C81";
paths = (
{
closed = 1;
nodes = (
"279 546 OFFCURVE",
"197 482 OFFCURVE",
"171 438 QCURVE",
"167 438 LINE",
"157 536 LINE",
"85 536 LINE",
"85 0 LINE",
"173 0 LINE",
"173 286 LINE SMOOTH",
"173 340 OFFCURVE",
"216 421 OFFCURVE",
"288 466 OFFCURVE",
"329 466 QCURVE SMOOTH",
"343 466 OFFCURVE",
"374 462 OFFCURVE",
"387 459 QCURVE",
"398 540 LINE",
"385 543 OFFCURVE",
"350 546 OFFCURVE",
"335 546 QCURVE",
"335 546 LINE"
);
}
);
width = 413;
}
);
leftKerningGroup = m;
note = r;
rightKerningGroup = r;
unicode = 0072;
},
{
glyphname = s;
layers = (
{
layerId = "CFFEBDE4-599A-46B2-9328-D96E42CD9C81";
paths = (
{
closed = 1;
nodes = (
"434 191 OFFCURVE",
"396 248 OFFCURVE",
"324 288 OFFCURVE",
"273 307 QCURVE SMOOTH",
"222 327 OFFCURVE",
"161 356 OFFCURVE",
"135 387 OFFCURVE",
"135 409 QCURVE SMOOTH",
"135 439 OFFCURVE",
"192 474 OFFCURVE",
"246 474 QCURVE SMOOTH",
"285 474 OFFCURVE",
"359 454 OFFCURVE",
"393 440 QCURVE",
"423 510 LINE",
"386 527 OFFCURVE",
"301 546 OFFCURVE",
"252 546 QCURVE SMOOTH",
"162 546 OFFCURVE",
"51 472 OFFCURVE",
"51 404 QCURVE SMOOTH",
"51 360 OFFCURVE",
"91 304 OFFCURVE",
"165 264 OFFCURVE",
"217 244 QCURVE SMOOTH",
"270 224 OFFCURVE",
"327 192 OFFCURVE",
"349 160 OFFCURVE",
"349 140 QCURVE SMOOTH",
"349 104 OFFCURVE",
"289 61 OFFCURVE",
"222 61 QCURVE SMOOTH",
"175 61 OFFCURVE",
"84 88 OFFCURVE",
"52 104 QCURVE",
"52 24 LINE",
"83 8 OFFCURVE",
"164 -10 OFFCURVE",
"220 -10 QCURVE SMOOTH",
"318 -10 OFFCURVE",
"434 70 OFFCURVE",
"434 148 QCURVE",
"434 148 LINE"
);
}
);
width = 479;
}
);
leftKerningGroup = s;
note = s;
unicode = 0073;
},
{
glyphname = t;
layers = (
{
layerId = "CFFEBDE4-599A-46B2-9328-D96E42CD9C81";
paths = (
{
closed = 1;
nodes = (
"227 62 OFFCURVE",
"180 109 OFFCURVE",
"180 158 QCURVE SMOOTH",
"180 468 LINE",
"335 468 LINE",
"335 536 LINE",
"180 536 LINE",
"180 659 LINE",
"128 659 LINE",
"93 545 LINE",
"16 510 LINE",
"16 468 LINE",
"92 468 LINE",
"92 156 LINE SMOOTH",
"92 91 OFFCURVE",
"136 19 OFFCURVE",
"207 -10 OFFCURVE",
"249 -10 QCURVE SMOOTH",
"273 -10 OFFCURVE",
"325 -1 OFFCURVE",
"339 6 QCURVE",
"339 73 LINE",
"326 69 OFFCURVE",
"284 62 OFFCURVE",
"264 62 QCURVE",
"264 62 LINE"
);
}
);
width = 361;
}
);
leftKerningGroup = t;
note = t;
rightKerningGroup = t;
unicode = 0074;
},
{
glyphname = u;
layers = (
{
layerId = "CFFEBDE4-599A-46B2-9328-D96E42CD9C81";
paths = (
{
closed = 1;
nodes = (
"445 536 LINE",
"445 257 LINE SMOOTH",
"445 163 OFFCURVE",
"376 63 OFFCURVE",
"287 63 QCURVE SMOOTH",
"168 63 OFFCURVE",
"168 191 QCURVE SMOOTH",
"168 536 LINE",
"79 536 LINE",
"79 185 LINE SMOOTH",
"79 83 OFFCURVE",
"177 -10 OFFCURVE",
"274 -10 QCURVE SMOOTH",
"326 -10 OFFCURVE",
"418 29 OFFCURVE",
"444 71 QCURVE",
"448 71 LINE",
"461 0 LINE",
"533 0 LINE",
"533 536 LINE",
"533 536 LINE"
);
}
);
width = 618;
}
);
leftKerningGroup = m;
note = u;
unicode = 0075;
},
{
glyphname = v;
layers = (
{
layerId = "CFFEBDE4-599A-46B2-9328-D96E42CD9C81";
paths = (
{
closed = 1;
nodes = (
"304 0 LINE",
"508 536 LINE",
"414 536 LINE",
"300 220 LINE SMOOTH",
"293 199 OFFCURVE",
"274 145 OFFCURVE",
"259 95 OFFCURVE",
"255 78 QCURVE",
"251 78 LINE",
"248 95 OFFCURVE",
"234 144 OFFCURVE",
"216 198 OFFCURVE",
"208 220 QCURVE SMOOTH",
"94 536 LINE",
"0 536 LINE",
"203 0 LINE",
"203 0 LINE"
);
}
);
width = 508;
}
);
leftKerningGroup = v;
note = v;
rightKerningGroup = v;
unicode = 0076;
},
{
glyphname = w;
layers = (
{
layerId = "CFFEBDE4-599A-46B2-9328-D96E42CD9C81";
paths = (
{
closed = 1;
nodes = (
"626 1 LINE",
"775 537 LINE",
"685 537 LINE",
"610 251 LINE SMOOTH",
"598 205 OFFCURVE",
"577 117 OFFCURVE",
"574 92 QCURVE",
"570 92 LINE",
"566 121 OFFCURVE",
"545 201 OFFCURVE",
"534 235 QCURVE SMOOTH",
"442 537 LINE",
"346 537 LINE",
"251 235 LINE SMOOTH",
"244 213 OFFCURVE",
"230 158 OFFCURVE",
"219 108 OFFCURVE",
"215 91 QCURVE",
"211 91 LINE",
"207 120 OFFCURVE",
"187 208 OFFCURVE",
"176 251 QCURVE SMOOTH",
"102 537 LINE",
"11 537 LINE",
"158 1 LINE",
"258 1 LINE",
"354 302 LINE SMOOTH",
"368 344 OFFCURVE",
"386 423 OFFCURVE",
"390 445 QCURVE",
"394 445 LINE",
"399 423 OFFCURVE",
"418 344 OFFCURVE",
"431 303 QCURVE SMOOTH",
"523 1 LINE",
"523 1 LINE"
);
}
);
width = 786;
}
);
leftKerningGroup = v;
note = w;
rightKerningGroup = v;
unicode = 0077;
},
{
glyphname = x;
layers = (
{
layerId = "CFFEBDE4-599A-46B2-9328-D96E42CD9C81";
paths = (
{
closed = 1;
nodes = (
"18 0 LINE",
"117 0 LINE",
"265 214 LINE",
"411 0 LINE",
"511 0 LINE",
"316 274 LINE",
"501 536 LINE",
"402 536 LINE",
"265 334 LINE",
"127 536 LINE",
"27 536 LINE",
"212 274 LINE",
"212 274 LINE"
);
}
);
width = 529;
}
);
leftKerningGroup = v;
note = x;
rightKerningGroup = x;
unicode = 0078;
},
{
glyphname = y;
layers = (
{
layerId = "CFFEBDE4-599A-46B2-9328-D96E42CD9C81";
paths = (
{
closed = 1;
nodes = (
"217 -2 LINE",
"189 -73 LINE SMOOTH",
"173 -116 OFFCURVE",
"116 -168 OFFCURVE",
"70 -168 QCURVE SMOOTH",
"53 -168 OFFCURVE",
"22 -164 OFFCURVE",
"11 -162 QCURVE",
"11 -232 LINE",
"24 -235 OFFCURVE",
"60 -240 OFFCURVE",
"84 -240 QCURVE SMOOTH",
"162 -240 OFFCURVE",
"251 -150 OFFCURVE",
"279 -74 QCURVE SMOOTH",
"510 536 LINE",
"415 536 LINE",
"306 232 LINE SMOOTH",
"292 191 OFFCURVE",
"266 110 OFFCURVE",
"260 85 QCURVE",
"256 85 LINE",
"250 118 OFFCURVE",
"226 191 OFFCURVE",
"211 231 QCURVE SMOOTH",
"95 536 LINE",
"1 536 LINE",
"1 536 LINE"
);
}
);
width = 600;
}
);
leftKerningGroup = v;
note = y;
rightKerningGroup = v;
unicode = 0079;
},
{
glyphname = z;
layers = (
{
layerId = "CFFEBDE4-599A-46B2-9328-D96E42CD9C81";
paths = (
{
closed = 1;
nodes = (
"431 68 LINE",
"140 68 LINE",
"424 470 LINE",
"424 536 LINE",
"56 536 LINE",
"56 468 LINE",
"327 468 LINE",
"39 58 LINE",
"39 0 LINE",
"431 0 LINE",
"431 0 LINE"
);
}
);
width = 470;
}
);
leftKerningGroup = z;
note = z;
unicode = 007A;
},
{
glyphname = zero;
layers = (
{
layerId = "CFFEBDE4-599A-46B2-9328-D96E42CD9C81";
paths = (
{
closed = 1;
nodes = (
"523 532 OFFCURVE",
"405 725 OFFCURVE",
"285 725 QCURVE SMOOTH",
"200 725 OFFCURVE",
"96 638 OFFCURVE",
"49 474 OFFCURVE",
"49 358 QCURVE SMOOTH",
"49 185 OFFCURVE",
"164 -10 OFFCURVE",
"285 -10 QCURVE SMOOTH",
"371 -10 OFFCURVE",
"475 78 OFFCURVE",
"523 243 OFFCURVE",
"523 358 QCURVE",
"523 358 LINE"
);
},
{
closed = 1;
nodes = (
"137 504 OFFCURVE",
"204 650 OFFCURVE",
"285 650 QCURVE SMOOTH",
"365 650 OFFCURVE",
"434 504 OFFCURVE",
"434 358 QCURVE SMOOTH",
"434 210 OFFCURVE",
"365 65 OFFCURVE",
"285 65 QCURVE SMOOTH",
"204 65 OFFCURVE",
"137 211 OFFCURVE",
"137 358 QCURVE",
"137 358 LINE"
);
}
);
width = 572;
}
);
note = zero;
unicode = 0030;
},
{
glyphname = one;
layers = (
{
layerId = "CFFEBDE4-599A-46B2-9328-D96E42CD9C81";
paths = (
{
closed = 1;
nodes = (
"355 714 LINE",
"282 714 LINE",
"89 564 LINE",
"135 505 LINE",
"211 567 LINE SMOOTH",
"231 584 OFFCURVE",
"257 606 OFFCURVE",
"273 622 QCURVE",
"271 594 OFFCURVE",
"269 542 OFFCURVE",
"269 499 QCURVE SMOOTH",
"269 0 LINE",
"355 0 LINE",
"355 0 LINE"
);
}
);
width = 572;
}
);
note = one;
unicode = 0031;
},
{
glyphname = two;
layers = (
{
layerId = "CFFEBDE4-599A-46B2-9328-D96E42CD9C81";
paths = (
{
closed = 1;
nodes = (
"520 80 LINE",
"159 80 LINE",
"159 84 LINE",
"308 231 LINE SMOOTH",
"363 285 OFFCURVE",
"445 380 OFFCURVE",
"491 478 OFFCURVE",
"491 534 QCURVE SMOOTH",
"491 623 OFFCURVE",
"375 724 OFFCURVE",
"275 724 QCURVE SMOOTH",
"207 724 OFFCURVE",
"98 675 OFFCURVE",
"56 640 QCURVE",
"103 581 LINE",
"144 613 OFFCURVE",
"223 649 OFFCURVE",
"275 649 QCURVE SMOOTH",
"331 649 OFFCURVE",
"401 588 OFFCURVE",
"401 529 QCURVE SMOOTH",
"401 481 OFFCURVE",
"363 400 OFFCURVE",
"289 316 OFFCURVE",
"235 262 QCURVE SMOOTH",
"48 73 LINE",
"48 0 LINE",
"520 0 LINE",
"520 0 LINE"
);
}
);
width = 572;
}
);
note = two;
unicode = 0032;
},
{
glyphname = three;
layers = (
{
layerId = "CFFEBDE4-599A-46B2-9328-D96E42CD9C81";
paths = (
{
closed = 1;
nodes = (
"493 624 OFFCURVE",
"384 724 OFFCURVE",
"272 724 QCURVE SMOOTH",
"200 724 OFFCURVE",
"87 680 OFFCURVE",
"49 650 QCURVE",
"93 590 LINE",
"133 616 OFFCURVE",
"215 650 OFFCURVE",
"273 650 QCURVE SMOOTH",
"333 650 OFFCURVE",
"403 593 OFFCURVE",
"403 541 QCURVE SMOOTH",
"403 480 OFFCURVE",
"312 406 OFFCURVE",
"224 406 QCURVE SMOOTH",
"154 406 LINE",
"154 331 LINE",
"223 331 LINE SMOOTH",
"318 331 OFFCURVE",
"423 272 OFFCURVE",
"423 205 QCURVE SMOOTH",
"423 139 OFFCURVE",
"338 64 OFFCURVE",
"242 64 QCURVE SMOOTH",
"194 64 OFFCURVE",
"90 89 OFFCURVE",
"45 111 QCURVE",
"45 29 LINE",
"89 7 OFFCURVE",
"185 -10 OFFCURVE",
"241 -10 QCURVE SMOOTH",
"336 -10 OFFCURVE",
"457 44 OFFCURVE",
"515 141 OFFCURVE",
"515 203 QCURVE SMOOTH",
"515 274 OFFCURVE",
"431 362 OFFCURVE",
"345 372 QCURVE",
"345 376 LINE",
"413 390 OFFCURVE",
"493 475 OFFCURVE",
"493 547 QCURVE",
"493 547 LINE"
);
}
);
width = 572;
}
);
note = three;
unicode = 0033;
},
{
glyphname = four;
layers = (
{
layerId = "CFFEBDE4-599A-46B2-9328-D96E42CD9C81";
paths = (
{
closed = 1;
nodes = (
"552 241 LINE",
"448 241 LINE",
"448 718 LINE",
"357 718 LINE",
"21 237 LINE",
"21 162 LINE",
"363 162 LINE",
"363 0 LINE",
"448 0 LINE",
"448 162 LINE",
"552 162 LINE",
"552 162 LINE"
);
},
{
closed = 1;
nodes = (
"107 241 LINE",
"321 546 LINE SMOOTH",
"332 561 OFFCURVE",
"356 605 OFFCURVE",
"364 624 QCURVE",
"368 624 LINE",
"367 591 OFFCURVE",
"363 518 OFFCURVE",
"363 466 QCURVE SMOOTH",
"363 241 LINE",
"363 241 LINE"
);
}
);
width = 572;
}
);
note = four;
unicode = 0034;
},
{
glyphname = five;
layers = (
{
layerId = "CFFEBDE4-599A-46B2-9328-D96E42CD9C81";
paths = (
{
closed = 1;
nodes = (
"240 438 OFFCURVE",
"182 430 OFFCURVE",
"165 427 QCURVE",
"182 634 LINE",
"465 634 LINE",
"465 714 LINE",
"107 714 LINE",
"80 377 LINE",
"124 349 LINE",
"146 354 OFFCURVE",
"218 364 OFFCURVE",
"246 364 QCURVE SMOOTH",
"339 364 OFFCURVE",
"425 289 OFFCURVE",
"425 219 QCURVE SMOOTH",
"425 140 OFFCURVE",
"328 65 OFFCURVE",
"249 65 QCURVE SMOOTH",
"202 65 OFFCURVE",
"99 90 OFFCURVE",
"63 112 QCURVE",
"63 29 LINE",
"96 10 OFFCURVE",
"193 -10 OFFCURVE",
"248 -10 QCURVE SMOOTH",
"374 -10 OFFCURVE",
"515 117 OFFCURVE",
"515 228 QCURVE SMOOTH",
"515 328 OFFCURVE",
"385 438 OFFCURVE",
"275 438 QCURVE",
"275 438 LINE"
);
}
);
width = 572;
}
);
note = five;
unicode = 0035;
},
{
glyphname = six;
layers = (
{
layerId = "CFFEBDE4-599A-46B2-9328-D96E42CD9C81";
paths = (
{
closed = 1;
nodes = (
"55 198 OFFCURVE",
"120 58 OFFCURVE",
"230 -10 OFFCURVE",
"298 -10 QCURVE SMOOTH",
"402 -10 OFFCURVE",
"525 118 OFFCURVE",
"525 230 QCURVE SMOOTH",
"525 334 OFFCURVE",
"411 447 OFFCURVE",
"318 447 QCURVE SMOOTH",
"254 447 OFFCURVE",
"172 398 OFFCURVE",
"149 363 QCURVE",
"143 363 LINE",
"146 422 OFFCURVE",
"170 526 OFFCURVE",
"223 606 OFFCURVE",
"315 652 OFFCURVE",
"384 652 QCURVE SMOOTH",
"407 652 OFFCURVE",
"452 646 OFFCURVE",
"470 640 QCURVE",
"470 715 LINE",
"454 720 OFFCURVE",
"403 724 OFFCURVE",
"382 724 QCURVE SMOOTH",
"281 724 OFFCURVE",
"153 652 OFFCURVE",
"82 531 OFFCURVE",
"55 382 OFFCURVE",
"55 305 QCURVE",
"55 305 LINE"
);
},
{
closed = 1;
nodes = (
"246 64 OFFCURVE",
"178 119 OFFCURVE",
"144 204 OFFCURVE",
"144 247 QCURVE SMOOTH",
"144 279 OFFCURVE",
"183 339 OFFCURVE",
"253 378 OFFCURVE",
"300 378 QCURVE SMOOTH",
"369 378 OFFCURVE",
"438 298 OFFCURVE",
"438 230 QCURVE SMOOTH",
"438 145 OFFCURVE",
"360 64 OFFCURVE",
"297 64 QCURVE",
"297 64 LINE"
);
}
);
width = 572;
}
);
note = six;
unicode = 0036;
},
{
glyphname = seven;
layers = (
{
layerId = "CFFEBDE4-599A-46B2-9328-D96E42CD9C81";
paths = (
{
closed = 1;
nodes = (
"233 0 LINE",
"523 646 LINE",
"523 714 LINE",
"44 714 LINE",
"44 634 LINE",
"429 634 LINE",
"136 0 LINE",
"136 0 LINE"
);
}
);
width = 572;
}
);
note = seven;
unicode = 0037;
},
{
glyphname = eight;
layers = (
{
layerId = "CFFEBDE4-599A-46B2-9328-D96E42CD9C81";
paths = (
{
closed = 1;
nodes = (
"224 724 OFFCURVE",
"128 684 OFFCURVE",
"72 609 OFFCURVE",
"72 554 QCURVE SMOOTH",
"72 488 OFFCURVE",
"145 403 OFFCURVE",
"197 373 QCURVE",
"158 355 OFFCURVE",
"90 303 OFFCURVE",
"49 231 OFFCURVE",
"49 182 QCURVE SMOOTH",
"49 91 OFFCURVE",
"173 -10 OFFCURVE",
"288 -10 QCURVE SMOOTH",
"395 -10 OFFCURVE",
"522 95 OFFCURVE",
"522 185 QCURVE SMOOTH",
"522 234 OFFCURVE",
"479 304 OFFCURVE",
"407 357 OFFCURVE",
"363 378 QCURVE",
"400 397 OFFCURVE",
"462 446 OFFCURVE",
"499 510 OFFCURVE",
"499 553 QCURVE SMOOTH",
"499 636 OFFCURVE",
"379 724 OFFCURVE",
"285 724 QCURVE",
"285 724 LINE"
);
},
{
closed = 1;
nodes = (
"342 653 OFFCURVE",
"412 600 OFFCURVE",
"412 550 QCURVE SMOOTH",
"412 496 OFFCURVE",
"341 434 OFFCURVE",
"289 412 QCURVE",
"253 428 OFFCURVE",
"193 463 OFFCURVE",
"158 513 OFFCURVE",
"158 550 QCURVE SMOOTH",
"158 600 OFFCURVE",
"229 653 OFFCURVE",
"284 653 QCURVE",
"284 653 LINE"
);
},
{
closed = 1;
nodes = (
"135 236 OFFCURVE",
"204 309 OFFCURVE",
"270 337 QCURVE",
"286 331 LINE SMOOTH",
"354 305 OFFCURVE",
"436 236 OFFCURVE",
"436 184 QCURVE SMOOTH",
"436 129 OFFCURVE",
"359 60 OFFCURVE",
"286 60 QCURVE SMOOTH",
"209 60 OFFCURVE",
"135 129 OFFCURVE",
"135 181 QCURVE",
"135 181 LINE"
);
}
);
width = 572;
}
);
note = eight;
unicode = 0038;
},
{
glyphname = nine;
layers = (
{
layerId = "CFFEBDE4-599A-46B2-9328-D96E42CD9C81";
paths = (
{
closed = 1;
nodes = (
"520 516 OFFCURVE",
"456 655 OFFCURVE",
"346 724 OFFCURVE",
"278 724 QCURVE SMOOTH",
"209 724 OFFCURVE",
"107 666 OFFCURVE",
"50 558 OFFCURVE",
"50 483 QCURVE SMOOTH",
"50 380 OFFCURVE",
"163 267 OFFCURVE",
"255 267 QCURVE SMOOTH",
"320 267 OFFCURVE",
"403 316 OFFCURVE",
"425 350 QCURVE",
"431 350 LINE",
"429 292 OFFCURVE",
"405 187 OFFCURVE",
"351 108 OFFCURVE",
"260 62 OFFCURVE",
"190 62 QCURVE SMOOTH",
"141 62 OFFCURVE",
"102 75 QCURVE",
"102 0 LINE",
"119 -5 OFFCURVE",
"172 -10 OFFCURVE",
"192 -10 QCURVE SMOOTH",
"293 -10 OFFCURVE",
"422 62 OFFCURVE",
"493 183 OFFCURVE",
"520 332 OFFCURVE",
"520 409 QCURVE",
"520 409 LINE"
);
},
{
closed = 1;
nodes = (
"329 650 OFFCURVE",
"397 594 OFFCURVE",
"431 510 OFFCURVE",
"431 467 QCURVE SMOOTH",
"431 435 OFFCURVE",
"392 375 OFFCURVE",
"322 336 OFFCURVE",
"274 336 QCURVE SMOOTH",
"204 336 OFFCURVE",
"137 415 OFFCURVE",
"137 484 QCURVE SMOOTH",
"137 568 OFFCURVE",
"216 650 OFFCURVE",
"278 650 QCURVE",
"278 650 LINE"
);
}
);
width = 572;
}
);
note = nine;
unicode = 0039;
},
{
glyphname = period;
layers = (
{
layerId = "CFFEBDE4-599A-46B2-9328-D96E42CD9C81";
paths = (
{
closed = 1;
nodes = (
"72 18 OFFCURVE",
"108 -14 OFFCURVE",
"133 -14 QCURVE SMOOTH",
"159 -14 OFFCURVE",
"196 18 OFFCURVE",
"196 54 QCURVE SMOOTH",
"196 91 OFFCURVE",
"159 121 OFFCURVE",
"133 121 QCURVE SMOOTH",
"108 121 OFFCURVE",
"72 91 OFFCURVE",
"72 54 QCURVE",
"72 54 LINE"
);
}
);
width = 268;
}
);
leftKerningGroup = comma;
note = period;
rightKerningGroup = comma;
unicode = 002E;
},
{
glyphname = comma;
layers = (
{
layerId = "CFFEBDE4-599A-46B2-9328-D96E42CD9C81";
paths = (
{
closed = 1;
nodes = (
"91 116 LINE",
"84 64 OFFCURVE",
"55 -72 OFFCURVE",
"41 -129 QCURVE",
"106 -129 LINE",
"130 -75 OFFCURVE",
"179 52 OFFCURVE",
"192 105 QCURVE",
"185 116 LINE",
"185 116 LINE"
);
}
);
width = 268;
}
);
leftKerningGroup = comma;
note = comma;
rightKerningGroup = comma;
unicode = 002C;
},
{
glyphname = hyphen;
layers = (
{
layerId = "CFFEBDE4-599A-46B2-9328-D96E42CD9C81";
paths = (
{
closed = 1;
nodes = (
"282 229 LINE",
"282 307 LINE",
"40 307 LINE",
"40 229 LINE",
"40 229 LINE"
);
}
);
width = 322;
}
);
leftKerningGroup = hyphen;
note = hyphen;
rightKerningGroup = hyphen;
unicode = 002D;
},
{
glyphname = .notdef;
lastChange = "2020-01-07 18:40:50 +0000";
layers = (
{
associatedMasterId = "CFFEBDE4-599A-46B2-9328-D96E42CD9C81";
layerId = "0A718E2F-231D-484E-9433-16A5230D2CE8";
name = Bold;
paths = (
{
closed = 1;
nodes = (
"496 0 LINE",
"496 714 LINE",
"85 714 LINE",
"85 0 LINE"
);
},
{
closed = 1;
nodes = (
"136 663 LINE",
"445 663 LINE",
"445 51 LINE",
"136 51 LINE"
);
}
);
width = 582;
},
{
associatedMasterId = "CFFEBDE4-599A-46B2-9328-D96E42CD9C81";
layerId = "98E204A9-1C79-49C7-AB3E-40A925F56409";
name = "Bold Condensed";
paths = (
{
closed = 1;
nodes = (
"496 0 LINE",
"496 714 LINE",
"85 714 LINE",
"85 0 LINE"
);
},
{
closed = 1;
nodes = (
"136 663 LINE",
"445 663 LINE",
"445 51 LINE",
"136 51 LINE"
);
}
);
width = 582;
},
{
associatedMasterId = "CFFEBDE4-599A-46B2-9328-D96E42CD9C81";
layerId = "9FF96064-8718-4A86-A5C8-73C592101F67";
name = Regular;
paths = (
{
closed = 1;
nodes = (
"505 0 LINE",
"505 714 LINE",
"94 714 LINE",
"94 0 LINE"
);
},
{
closed = 1;
nodes = (
"145 663 LINE",
"454 663 LINE",
"454 51 LINE",
"145 51 LINE"
);
}
);
width = 600;
},
{
associatedMasterId = "CFFEBDE4-599A-46B2-9328-D96E42CD9C81";
layerId = "134B12F2-BF5D-48E3-8003-C7502B438C7E";
name = SemiBold;
paths = (
{
closed = 1;
nodes = (
"505 0 LINE",
"505 714 LINE",
"94 714 LINE",
"94 0 LINE"
);
},
{
closed = 1;
nodes = (
"145 663 LINE",
"454 663 LINE",
"454 51 LINE",
"145 51 LINE"
);
}
);
width = 600;
},
{
associatedMasterId = "CFFEBDE4-599A-46B2-9328-D96E42CD9C81";
layerId = "36F3C8CB-53EE-4548-BFDE-2C03212BACAA";
name = Condensed;
paths = (
{
closed = 1;
nodes = (
"496 0 LINE",
"496 714 LINE",
"85 714 LINE",
"85 0 LINE"
);
},
{
closed = 1;
nodes = (
"136 663 LINE",
"445 663 LINE",
"445 51 LINE",
"136 51 LINE"
);
}
);
width = 595;
},
{
associatedMasterId = "CFFEBDE4-599A-46B2-9328-D96E42CD9C81";
layerId = "43B45EC1-5522-4B1A-B0C7-88628E50A583";
name = "SemiBold Condensed";
paths = (
{
closed = 1;
nodes = (
"496 0 LINE",
"496 714 LINE",
"85 714 LINE",
"85 0 LINE"
);
},
{
closed = 1;
nodes = (
"136 663 LINE",
"445 663 LINE",
"445 51 LINE",
"136 51 LINE"
);
}
);
width = 587;
},
{
layerId = "CFFEBDE4-599A-46B2-9328-D96E42CD9C81";
paths = (
{
closed = 1;
nodes = (
"505 0 LINE",
"505 714 LINE",
"94 714 LINE",
"94 0 LINE",
"94 0 LINE"
);
},
{
closed = 1;
nodes = (
"145 663 LINE",
"454 663 LINE",
"454 51 LINE",
"145 51 LINE",
"145 51 LINE"
);
}
);
userData = {
assembly = "NPUSHB[ ]	/* 39 values pushed */\0120 0 0 3 2 0 3 103 0 2 1 1 2 87 0 2 2 1 95 4 1 1 2 1 79 0 0 7 6 5 4 0 3 0 3 17 5 6 23 \012CALL[ ]	/* CallFunction */";
};
width = 600;
},
{
associatedMasterId = "CFFEBDE4-599A-46B2-9328-D96E42CD9C81";
layerId = "029FEF0C-5FA4-4A3E-AC23-838A1147A554";
name = "Light Condensed";
paths = (
{
closed = 1;
nodes = (
"496 0 LINE",
"496 714 LINE",
"85 714 LINE",
"85 0 LINE"
);
},
{
closed = 1;
nodes = (
"136 663 LINE",
"445 663 LINE",
"445 51 LINE",
"136 51 LINE"
);
}
);
width = 600;
},
{
associatedMasterId = "CFFEBDE4-599A-46B2-9328-D96E42CD9C81";
layerId = "6CD3EE05-C8AD-47E9-A0AE-B645441B0163";
name = Regular;
paths = (
{
closed = 1;
nodes = (
"496 0 LINE",
"496 714 LINE",
"85 714 LINE",
"85 0 LINE"
);
},
{
closed = 1;
nodes = (
"136 663 LINE",
"445 663 LINE",
"445 51 LINE",
"136 51 LINE"
);
}
);
width = 582;
},
{
associatedMasterId = "CFFEBDE4-599A-46B2-9328-D96E42CD9C81";
layerId = "4BA813F0-6E24-42D1-9A84-D42DCF76A6FD";
name = Regular;
paths = (
{
closed = 1;
nodes = (
"496 0 LINE",
"496 714 LINE",
"85 714 LINE",
"85 0 LINE"
);
},
{
closed = 1;
nodes = (
"136 663 LINE",
"445 663 LINE",
"445 51 LINE",
"136 51 LINE"
);
}
);
width = 582;
},
{
associatedMasterId = "CFFEBDE4-599A-46B2-9328-D96E42CD9C81";
layerId = "11C7202F-BDE1-4540-9196-841830120CA8";
name = Regular;
paths = (
{
closed = 1;
nodes = (
"505 0 LINE",
"505 714 LINE",
"94 714 LINE",
"94 0 LINE"
);
},
{
closed = 1;
nodes = (
"145 663 LINE",
"454 663 LINE",
"454 51 LINE",
"145 51 LINE"
);
}
);
width = 600;
},
{
associatedMasterId = "CFFEBDE4-599A-46B2-9328-D96E42CD9C81";
layerId = "5D16F8A9-2BA9-47A0-99C6-C9F3EBB274A0";
name = Regular;
paths = (
{
closed = 1;
nodes = (
"505 0 LINE",
"505 714 LINE",
"94 714 LINE",
"94 0 LINE"
);
},
{
closed = 1;
nodes = (
"145 663 LINE",
"454 663 LINE",
"454 51 LINE",
"145 51 LINE"
);
}
);
width = 600;
},
{
associatedMasterId = "CFFEBDE4-599A-46B2-9328-D96E42CD9C81";
layerId = "444C4D7B-BB42-46E5-A210-3251DB2C5DF7";
name = Regular;
paths = (
{
closed = 1;
nodes = (
"496 0 LINE",
"496 714 LINE",
"85 714 LINE",
"85 0 LINE"
);
},
{
closed = 1;
nodes = (
"136 663 LINE",
"445 663 LINE",
"445 51 LINE",
"136 51 LINE"
);
}
);
width = 595;
},
{
associatedMasterId = "CFFEBDE4-599A-46B2-9328-D96E42CD9C81";
layerId = "D00C89AE-1924-40D7-BCB8-50F6B6FF00C9";
name = Regular;
paths = (
{
closed = 1;
nodes = (
"496 0 LINE",
"496 714 LINE",
"85 714 LINE",
"85 0 LINE"
);
},
{
closed = 1;
nodes = (
"136 663 LINE",
"445 663 LINE",
"445 51 LINE",
"136 51 LINE"
);
}
);
width = 587;
},
{
associatedMasterId = "CFFEBDE4-599A-46B2-9328-D96E42CD9C81";
layerId = "0C04772A-F31D-4E86-90EF-3402D1EA39CA";
name = Regular;
paths = (
{
closed = 1;
nodes = (
"505 0 LINE",
"505 714 LINE",
"94 714 LINE",
"94 0 LINE"
);
},
{
closed = 1;
nodes = (
"145 663 LINE",
"454 663 LINE",
"454 51 LINE",
"145 51 LINE"
);
}
);
width = 600;
},
{
associatedMasterId = "CFFEBDE4-599A-46B2-9328-D96E42CD9C81";
layerId = "E44A1C33-4DA7-464B-9CD1-E803182C2B8E";
name = Regular;
paths = (
{
closed = 1;
nodes = (
"496 0 LINE",
"496 714 LINE",
"85 714 LINE",
"85 0 LINE"
);
},
{
closed = 1;
nodes = (
"136 663 LINE",
"445 663 LINE",
"445 51 LINE",
"136 51 LINE"
);
}
);
width = 600;
},
{
associatedMasterId = "CFFEBDE4-599A-46B2-9328-D96E42CD9C81";
layerId = "6CD769E4-BA55-4180-AEEB-BBFB0FE71E60";
name = SemiBold;
paths = (
{
closed = 1;
nodes = (
"496 0 LINE",
"496 714 LINE",
"85 714 LINE",
"85 0 LINE"
);
},
{
closed = 1;
nodes = (
"136 663 LINE",
"445 663 LINE",
"445 51 LINE",
"136 51 LINE"
);
}
);
width = 582;
},
{
associatedMasterId = "CFFEBDE4-599A-46B2-9328-D96E42CD9C81";
layerId = "B72AC865-DCE2-4021-9F6A-E52C2F7C36C3";
name = SemiBold;
paths = (
{
closed = 1;
nodes = (
"496 0 LINE",
"496 714 LINE",
"85 714 LINE",
"85 0 LINE"
);
},
{
closed = 1;
nodes = (
"136 663 LINE",
"445 663 LINE",
"445 51 LINE",
"136 51 LINE"
);
}
);
width = 582;
},
{
associatedMasterId = "CFFEBDE4-599A-46B2-9328-D96E42CD9C81";
layerId = "73144C29-A3E1-435F-A101-12EB16795B90";
name = SemiBold;
paths = (
{
closed = 1;
nodes = (
"505 0 LINE",
"505 714 LINE",
"94 714 LINE",
"94 0 LINE"
);
},
{
closed = 1;
nodes = (
"145 663 LINE",
"454 663 LINE",
"454 51 LINE",
"145 51 LINE"
);
}
);
width = 600;
},
{
associatedMasterId = "CFFEBDE4-599A-46B2-9328-D96E42CD9C81";
layerId = "18CF4588-85AB-4745-818C-09CE36B775D2";
name = SemiBold;
paths = (
{
closed = 1;
nodes = (
"505 0 LINE",
"505 714 LINE",
"94 714 LINE",
"94 0 LINE"
);
},
{
closed = 1;
nodes = (
"145 663 LINE",
"454 663 LINE",
"454 51 LINE",
"145 51 LINE"
);
}
);
width = 600;
},
{
associatedMasterId = "CFFEBDE4-599A-46B2-9328-D96E42CD9C81";
layerId = "686EB0C4-EABE-4AD7-86BC-00ECD1BF7E9E";
name = SemiBold;
paths = (
{
closed = 1;
nodes = (
"496 0 LINE",
"496 714 LINE",
"85 714 LINE",
"85 0 LINE"
);
},
{
closed = 1;
nodes = (
"136 663 LINE",
"445 663 LINE",
"445 51 LINE",
"136 51 LINE"
);
}
);
width = 595;
},
{
associatedMasterId = "CFFEBDE4-599A-46B2-9328-D96E42CD9C81";
layerId = "E5BC6AAC-6572-4494-8CA4-C3D39E7EACEC";
name = SemiBold;
paths = (
{
closed = 1;
nodes = (
"496 0 LINE",
"496 714 LINE",
"85 714 LINE",
"85 0 LINE"
);
},
{
closed = 1;
nodes = (
"136 663 LINE",
"445 663 LINE",
"445 51 LINE",
"136 51 LINE"
);
}
);
width = 587;
},
{
associatedMasterId = "CFFEBDE4-599A-46B2-9328-D96E42CD9C81";
layerId = "206B8059-80C9-426C-870D-7DCC5D63B771";
name = SemiBold;
paths = (
{
closed = 1;
nodes = (
"505 0 LINE",
"505 714 LINE",
"94 714 LINE",
"94 0 LINE"
);
},
{
closed = 1;
nodes = (
"145 663 LINE",
"454 663 LINE",
"454 51 LINE",
"145 51 LINE"
);
}
);
width = 600;
},
{
associatedMasterId = "CFFEBDE4-599A-46B2-9328-D96E42CD9C81";
layerId = "8CA70734-D081-4BD8-AD2F-7C5E13D31257";
name = SemiBold;
paths = (
{
closed = 1;
nodes = (
"496 0 LINE",
"496 714 LINE",
"85 714 LINE",
"85 0 LINE"
);
},
{
closed = 1;
nodes = (
"136 663 LINE",
"445 663 LINE",
"445 51 LINE",
"136 51 LINE"
);
}
);
width = 600;
},
{
associatedMasterId = "CFFEBDE4-599A-46B2-9328-D96E42CD9C81";
layerId = "6D228CAF-D3D7-4333-A99C-26716E667E2A";
name = Bold;
paths = (
{
closed = 1;
nodes = (
"496 0 LINE",
"496 714 LINE",
"85 714 LINE",
"85 0 LINE"
);
},
{
closed = 1;
nodes = (
"136 663 LINE",
"445 663 LINE",
"445 51 LINE",
"136 51 LINE"
);
}
);
width = 582;
},
{
associatedMasterId = "CFFEBDE4-599A-46B2-9328-D96E42CD9C81";
layerId = "0F275DA8-301B-4F20-BD77-158CA365DF6E";
name = Bold;
paths = (
{
closed = 1;
nodes = (
"496 0 LINE",
"496 714 LINE",
"85 714 LINE",
"85 0 LINE"
);
},
{
closed = 1;
nodes = (
"136 663 LINE",
"445 663 LINE",
"445 51 LINE",
"136 51 LINE"
);
}
);
width = 582;
},
{
associatedMasterId = "CFFEBDE4-599A-46B2-9328-D96E42CD9C81";
layerId = "D46BE755-DD9E-4EEB-B458-600115B36096";
name = Bold;
paths = (
{
closed = 1;
nodes = (
"505 0 LINE",
"505 714 LINE",
"94 714 LINE",
"94 0 LINE"
);
},
{
closed = 1;
nodes = (
"145 663 LINE",
"454 663 LINE",
"454 51 LINE",
"145 51 LINE"
);
}
);
width = 600;
},
{
associatedMasterId = "CFFEBDE4-599A-46B2-9328-D96E42CD9C81";
layerId = "7FE48EA0-3A2C-4D49-ABA4-E32E78AB57C1";
name = Bold;
paths = (
{
closed = 1;
nodes = (
"505 0 LINE",
"505 714 LINE",
"94 714 LINE",
"94 0 LINE"
);
},
{
closed = 1;
nodes = (
"145 663 LINE",
"454 663 LINE",
"454 51 LINE",
"145 51 LINE"
);
}
);
width = 600;
},
{
associatedMasterId = "CFFEBDE4-599A-46B2-9328-D96E42CD9C81";
layerId = "0C5F2DE2-4894-433A-AF78-14A7760305F4";
name = Bold;
paths = (
{
closed = 1;
nodes = (
"496 0 LINE",
"496 714 LINE",
"85 714 LINE",
"85 0 LINE"
);
},
{
closed = 1;
nodes = (
"136 663 LINE",
"445 663 LINE",
"445 51 LINE",
"136 51 LINE"
);
}
);
width = 595;
},
{
associatedMasterId = "CFFEBDE4-599A-46B2-9328-D96E42CD9C81";
layerId = "218C21A7-D612-4AB3-84F9-0D3A7F75CFA6";
name = Bold;
paths = (
{
closed = 1;
nodes = (
"496 0 LINE",
"496 714 LINE",
"85 714 LINE",
"85 0 LINE"
);
},
{
closed = 1;
nodes = (
"136 663 LINE",
"445 663 LINE",
"445 51 LINE",
"136 51 LINE"
);
}
);
width = 587;
},
{
associatedMasterId = "CFFEBDE4-599A-46B2-9328-D96E42CD9C81";
layerId = "3FB868F8-5CDC-4A46-BA32-95627737ABE0";
name = Bold;
paths = (
{
closed = 1;
nodes = (
"505 0 LINE",
"505 714 LINE",
"94 714 LINE",
"94 0 LINE"
);
},
{
closed = 1;
nodes = (
"145 663 LINE",
"454 663 LINE",
"454 51 LINE",
"145 51 LINE"
);
}
);
width = 600;
},
{
associatedMasterId = "CFFEBDE4-599A-46B2-9328-D96E42CD9C81";
layerId = "5BFF9FCA-B510-42EF-B974-4F4703A3DF37";
name = Bold;
paths = (
{
closed = 1;
nodes = (
"496 0 LINE",
"496 714 LINE",
"85 714 LINE",
"85 0 LINE"
);
},
{
closed = 1;
nodes = (
"136 663 LINE",
"445 663 LINE",
"445 51 LINE",
"136 51 LINE"
);
}
);
width = 600;
},
{
associatedMasterId = "CFFEBDE4-599A-46B2-9328-D96E42CD9C81";
layerId = "10F16149-C491-4EC1-A76D-4B0D82B949A8";
name = "Light Condensed";
paths = (
{
closed = 1;
nodes = (
"496 0 LINE",
"496 714 LINE",
"85 714 LINE",
"85 0 LINE"
);
},
{
closed = 1;
nodes = (
"136 663 LINE",
"445 663 LINE",
"445 51 LINE",
"136 51 LINE"
);
}
);
width = 582;
},
{
associatedMasterId = "CFFEBDE4-599A-46B2-9328-D96E42CD9C81";
layerId = "72186310-A4A1-43C8-93EC-DE7F7E0C04DC";
name = "Light Condensed";
paths = (
{
closed = 1;
nodes = (
"496 0 LINE",
"496 714 LINE",
"85 714 LINE",
"85 0 LINE"
);
},
{
closed = 1;
nodes = (
"136 663 LINE",
"445 663 LINE",
"445 51 LINE",
"136 51 LINE"
);
}
);
width = 582;
},
{
associatedMasterId = "CFFEBDE4-599A-46B2-9328-D96E42CD9C81";
layerId = "3AA2D878-A039-41E2-8382-305C1EBDDC14";
name = "Light Condensed";
paths = (
{
closed = 1;
nodes = (
"505 0 LINE",
"505 714 LINE",
"94 714 LINE",
"94 0 LINE"
);
},
{
closed = 1;
nodes = (
"145 663 LINE",
"454 663 LINE",
"454 51 LINE",
"145 51 LINE"
);
}
);
width = 600;
},
{
associatedMasterId = "CFFEBDE4-599A-46B2-9328-D96E42CD9C81";
layerId = "910244F3-C233-4E50-A821-AC6322E08668";
name = "Light Condensed";
paths = (
{
closed = 1;
nodes = (
"505 0 LINE",
"505 714 LINE",
"94 714 LINE",
"94 0 LINE"
);
},
{
closed = 1;
nodes = (
"145 663 LINE",
"454 663 LINE",
"454 51 LINE",
"145 51 LINE"
);
}
);
width = 600;
},
{
associatedMasterId = "CFFEBDE4-599A-46B2-9328-D96E42CD9C81";
layerId = "3D21177B-E83B-427F-9FBC-21300ED8A213";
name = "Light Condensed";
paths = (
{
closed = 1;
nodes = (
"496 0 LINE",
"496 714 LINE",
"85 714 LINE",
"85 0 LINE"
);
},
{
closed = 1;
nodes = (
"136 663 LINE",
"445 663 LINE",
"445 51 LINE",
"136 51 LINE"
);
}
);
width = 595;
},
{
associatedMasterId = "CFFEBDE4-599A-46B2-9328-D96E42CD9C81";
layerId = "4355EC66-3F59-4296-9F4C-72EC0B481B5D";
name = "Light Condensed";
paths = (
{
closed = 1;
nodes = (
"496 0 LINE",
"496 714 LINE",
"85 714 LINE",
"85 0 LINE"
);
},
{
closed = 1;
nodes = (
"136 663 LINE",
"445 663 LINE",
"445 51 LINE",
"136 51 LINE"
);
}
);
width = 587;
},
{
associatedMasterId = "CFFEBDE4-599A-46B2-9328-D96E42CD9C81";
layerId = "BD31AAF9-E65B-4A30-ACC0-7018B0C27C60";
name = "Light Condensed";
paths = (
{
closed = 1;
nodes = (
"505 0 LINE",
"505 714 LINE",
"94 714 LINE",
"94 0 LINE"
);
},
{
closed = 1;
nodes = (
"145 663 LINE",
"454 663 LINE",
"454 51 LINE",
"145 51 LINE"
);
}
);
width = 600;
},
{
associatedMasterId = "CFFEBDE4-599A-46B2-9328-D96E42CD9C81";
layerId = "D77228BB-6669-4F59-82EB-EFDED494D297";
name = "Light Condensed";
paths = (
{
closed = 1;
nodes = (
"496 0 LINE",
"496 714 LINE",
"85 714 LINE",
"85 0 LINE"
);
},
{
closed = 1;
nodes = (
"136 663 LINE",
"445 663 LINE",
"445 51 LINE",
"136 51 LINE"
);
}
);
width = 600;
},
{
associatedMasterId = "CFFEBDE4-599A-46B2-9328-D96E42CD9C81";
layerId = "81F4823B-D69E-4E11-86B2-52E1D1CABD54";
name = Condensed;
paths = (
{
closed = 1;
nodes = (
"496 0 LINE",
"496 714 LINE",
"85 714 LINE",
"85 0 LINE"
);
},
{
closed = 1;
nodes = (
"136 663 LINE",
"445 663 LINE",
"445 51 LINE",
"136 51 LINE"
);
}
);
width = 582;
},
{
associatedMasterId = "CFFEBDE4-599A-46B2-9328-D96E42CD9C81";
layerId = "1ACF29D9-9C6C-45FA-8C10-238DD2AA8ADF";
name = Condensed;
paths = (
{
closed = 1;
nodes = (
"496 0 LINE",
"496 714 LINE",
"85 714 LINE",
"85 0 LINE"
);
},
{
closed = 1;
nodes = (
"136 663 LINE",
"445 663 LINE",
"445 51 LINE",
"136 51 LINE"
);
}
);
width = 582;
},
{
associatedMasterId = "CFFEBDE4-599A-46B2-9328-D96E42CD9C81";
layerId = "A823C984-E080-4BD5-A1B6-02506CC81AD1";
name = Condensed;
paths = (
{
closed = 1;
nodes = (
"505 0 LINE",
"505 714 LINE",
"94 714 LINE",
"94 0 LINE"
);
},
{
closed = 1;
nodes = (
"145 663 LINE",
"454 663 LINE",
"454 51 LINE",
"145 51 LINE"
);
}
);
width = 600;
},
{
associatedMasterId = "CFFEBDE4-599A-46B2-9328-D96E42CD9C81";
layerId = "7C505BEE-2611-4A04-ABA0-64C0BA48336F";
name = Condensed;
paths = (
{
closed = 1;
nodes = (
"505 0 LINE",
"505 714 LINE",
"94 714 LINE",
"94 0 LINE"
);
},
{
closed = 1;
nodes = (
"145 663 LINE",
"454 663 LINE",
"454 51 LINE",
"145 51 LINE"
);
}
);
width = 600;
},
{
associatedMasterId = "CFFEBDE4-599A-46B2-9328-D96E42CD9C81";
layerId = "CFFC113C-B55C-44E0-A174-84F7BF124894";
name = Condensed;
paths = (
{
closed = 1;
nodes = (
"496 0 LINE",
"496 714 LINE",
"85 714 LINE",
"85 0 LINE"
);
},
{
closed = 1;
nodes = (
"136 663 LINE",
"445 663 LINE",
"445 51 LINE",
"136 51 LINE"
);
}
);
width = 595;
},
{
associatedMasterId = "CFFEBDE4-599A-46B2-9328-D96E42CD9C81";
layerId = "43D1030E-7459-4003-8CF9-EC0A1464FBD9";
name = Condensed;
paths = (
{
closed = 1;
nodes = (
"496 0 LINE",
"496 714 LINE",
"85 714 LINE",
"85 0 LINE"
);
},
{
closed = 1;
nodes = (
"136 663 LINE",
"445 663 LINE",
"445 51 LINE",
"136 51 LINE"
);
}
);
width = 587;
},
{
associatedMasterId = "CFFEBDE4-599A-46B2-9328-D96E42CD9C81";
layerId = "E193C3F6-581C-4255-BA06-39B2C55FEA85";
name = Condensed;
paths = (
{
closed = 1;
nodes = (
"505 0 LINE",
"505 714 LINE",
"94 714 LINE",
"94 0 LINE"
);
},
{
closed = 1;
nodes = (
"145 663 LINE",
"454 663 LINE",
"454 51 LINE",
"145 51 LINE"
);
}
);
width = 600;
},
{
associatedMasterId = "CFFEBDE4-599A-46B2-9328-D96E42CD9C81";
layerId = "BC1F2A7D-5C4C-489A-B80D-F8A78AA87396";
name = Condensed;
paths = (
{
closed = 1;
nodes = (
"496 0 LINE",
"496 714 LINE",
"85 714 LINE",
"85 0 LINE"
);
},
{
closed = 1;
nodes = (
"136 663 LINE",
"445 663 LINE",
"445 51 LINE",
"136 51 LINE"
);
}
);
width = 600;
},
{
associatedMasterId = "CFFEBDE4-599A-46B2-9328-D96E42CD9C81";
layerId = "4A97D365-134C-40CE-A1F4-ACEEDAC52A69";
name = Bold;
paths = (
{
closed = 1;
nodes = (
"496 0 LINE",
"496 714 LINE",
"85 714 LINE",
"85 0 LINE"
);
},
{
closed = 1;
nodes = (
"136 663 LINE",
"445 663 LINE",
"445 51 LINE",
"136 51 LINE"
);
}
);
width = 582;
},
{
associatedMasterId = "CFFEBDE4-599A-46B2-9328-D96E42CD9C81";
layerId = "E30ED5CA-5FDA-483A-B078-9F166668F082";
name = "Bold Condensed";
paths = (
{
closed = 1;
nodes = (
"496 0 LINE",
"496 714 LINE",
"85 714 LINE",
"85 0 LINE"
);
},
{
closed = 1;
nodes = (
"136 663 LINE",
"445 663 LINE",
"445 51 LINE",
"136 51 LINE"
);
}
);
width = 582;
},
{
associatedMasterId = "CFFEBDE4-599A-46B2-9328-D96E42CD9C81";
layerId = "5E9EB60B-4C02-4C45-9028-66D331043723";
name = Regular;
paths = (
{
closed = 1;
nodes = (
"505 0 LINE",
"505 714 LINE",
"94 714 LINE",
"94 0 LINE"
);
},
{
closed = 1;
nodes = (
"145 663 LINE",
"454 663 LINE",
"454 51 LINE",
"145 51 LINE"
);
}
);
width = 600;
},
{
associatedMasterId = "CFFEBDE4-599A-46B2-9328-D96E42CD9C81";
layerId = "CF4745A3-289E-483C-9D08-2C2CDA3793CE";
name = SemiBold;
paths = (
{
closed = 1;
nodes = (
"505 0 LINE",
"505 714 LINE",
"94 714 LINE",
"94 0 LINE"
);
},
{
closed = 1;
nodes = (
"145 663 LINE",
"454 663 LINE",
"454 51 LINE",
"145 51 LINE"
);
}
);
width = 600;
},
{
associatedMasterId = "CFFEBDE4-599A-46B2-9328-D96E42CD9C81";
layerId = "0007F7B2-5B0D-4ECF-8993-9E445AE70882";
name = Condensed;
paths = (
{
closed = 1;
nodes = (
"496 0 LINE",
"496 714 LINE",
"85 714 LINE",
"85 0 LINE"
);
},
{
closed = 1;
nodes = (
"136 663 LINE",
"445 663 LINE",
"445 51 LINE",
"136 51 LINE"
);
}
);
width = 595;
},
{
associatedMasterId = "CFFEBDE4-599A-46B2-9328-D96E42CD9C81";
layerId = "A6240D38-CEDA-4780-B12F-EAC7EDB843D9";
name = "SemiBold Condensed";
paths = (
{
closed = 1;
nodes = (
"496 0 LINE",
"496 714 LINE",
"85 714 LINE",
"85 0 LINE"
);
},
{
closed = 1;
nodes = (
"136 663 LINE",
"445 663 LINE",
"445 51 LINE",
"136 51 LINE"
);
}
);
width = 587;
},
{
associatedMasterId = "CFFEBDE4-599A-46B2-9328-D96E42CD9C81";
layerId = "79A278C6-3EFA-4DDB-B984-DD1D15CE97C9";
name = "Light Condensed";
paths = (
{
closed = 1;
nodes = (
"496 0 LINE",
"496 714 LINE",
"85 714 LINE",
"85 0 LINE"
);
},
{
closed = 1;
nodes = (
"136 663 LINE",
"445 663 LINE",
"445 51 LINE",
"136 51 LINE"
);
}
);
width = 600;
},
{
associatedMasterId = "CFFEBDE4-599A-46B2-9328-D96E42CD9C81";
layerId = "0F2AC913-770D-4B71-A4B9-DFCE7D340767";
name = "SemiBold Condensed";
paths = (
{
closed = 1;
nodes = (
"496 0 LINE",
"496 714 LINE",
"85 714 LINE",
"85 0 LINE"
);
},
{
closed = 1;
nodes = (
"136 663 LINE",
"445 663 LINE",
"445 51 LINE",
"136 51 LINE"
);
}
);
width = 582;
},
{
associatedMasterId = "CFFEBDE4-599A-46B2-9328-D96E42CD9C81";
layerId = "5818F93F-12B0-43EF-AE07-DE875336F2D3";
name = "SemiBold Condensed";
paths = (
{
closed = 1;
nodes = (
"496 0 LINE",
"496 714 LINE",
"85 714 LINE",
"85 0 LINE"
);
},
{
closed = 1;
nodes = (
"136 663 LINE",
"445 663 LINE",
"445 51 LINE",
"136 51 LINE"
);
}
);
width = 582;
},
{
associatedMasterId = "CFFEBDE4-599A-46B2-9328-D96E42CD9C81";
layerId = "69A75AA9-C824-4690-AF06-368352D8C4A0";
name = "SemiBold Condensed";
paths = (
{
closed = 1;
nodes = (
"505 0 LINE",
"505 714 LINE",
"94 714 LINE",
"94 0 LINE"
);
},
{
closed = 1;
nodes = (
"145 663 LINE",
"454 663 LINE",
"454 51 LINE",
"145 51 LINE"
);
}
);
width = 600;
},
{
associatedMasterId = "CFFEBDE4-599A-46B2-9328-D96E42CD9C81";
layerId = "0659F8A8-1CA7-437A-8862-AFE6849E1BC8";
name = "SemiBold Condensed";
paths = (
{
closed = 1;
nodes = (
"505 0 LINE",
"505 714 LINE",
"94 714 LINE",
"94 0 LINE"
);
},
{
closed = 1;
nodes = (
"145 663 LINE",
"454 663 LINE",
"454 51 LINE",
"145 51 LINE"
);
}
);
width = 600;
},
{
associatedMasterId = "CFFEBDE4-599A-46B2-9328-D96E42CD9C81";
layerId = "9849390B-0D5D-419F-BBF7-4CB8DF1108F4";
name = "SemiBold Condensed";
paths = (
{
closed = 1;
nodes = (
"496 0 LINE",
"496 714 LINE",
"85 714 LINE",
"85 0 LINE"
);
},
{
closed = 1;
nodes = (
"136 663 LINE",
"445 663 LINE",
"445 51 LINE",
"136 51 LINE"
);
}
);
width = 595;
},
{
associatedMasterId = "CFFEBDE4-599A-46B2-9328-D96E42CD9C81";
layerId = "435372D3-A5C6-4F91-8D68-18D24F2DC602";
name = "SemiBold Condensed";
paths = (
{
closed = 1;
nodes = (
"496 0 LINE",
"496 714 LINE",
"85 714 LINE",
"85 0 LINE"
);
},
{
closed = 1;
nodes = (
"136 663 LINE",
"445 663 LINE",
"445 51 LINE",
"136 51 LINE"
);
}
);
width = 587;
},
{
associatedMasterId = "CFFEBDE4-599A-46B2-9328-D96E42CD9C81";
layerId = "4D9C3FAB-40EB-4CCF-A752-6D6FE9920038";
name = "SemiBold Condensed";
paths = (
{
closed = 1;
nodes = (
"505 0 LINE",
"505 714 LINE",
"94 714 LINE",
"94 0 LINE"
);
},
{
closed = 1;
nodes = (
"145 663 LINE",
"454 663 LINE",
"454 51 LINE",
"145 51 LINE"
);
}
);
width = 600;
},
{
associatedMasterId = "CFFEBDE4-599A-46B2-9328-D96E42CD9C81";
layerId = "AFC07936-CFE6-40C4-A927-1C79F0D571B9";
name = "SemiBold Condensed";
paths = (
{
closed = 1;
nodes = (
"496 0 LINE",
"496 714 LINE",
"85 714 LINE",
"85 0 LINE"
);
},
{
closed = 1;
nodes = (
"136 663 LINE",
"445 663 LINE",
"445 51 LINE",
"136 51 LINE"
);
}
);
width = 600;
},
{
associatedMasterId = "CFFEBDE4-599A-46B2-9328-D96E42CD9C81";
layerId = "3DB921F2-2B03-4BC4-8509-8FCD7A6F784E";
name = "Bold Condensed";
paths = (
{
closed = 1;
nodes = (
"496 0 LINE",
"496 714 LINE",
"85 714 LINE",
"85 0 LINE"
);
},
{
closed = 1;
nodes = (
"136 663 LINE",
"445 663 LINE",
"445 51 LINE",
"136 51 LINE"
);
}
);
width = 582;
},
{
associatedMasterId = "CFFEBDE4-599A-46B2-9328-D96E42CD9C81";
layerId = "2F2377A1-11C3-41B6-919D-D55F8AA75D07";
name = "Bold Condensed";
paths = (
{
closed = 1;
nodes = (
"496 0 LINE",
"496 714 LINE",
"85 714 LINE",
"85 0 LINE"
);
},
{
closed = 1;
nodes = (
"136 663 LINE",
"445 663 LINE",
"445 51 LINE",
"136 51 LINE"
);
}
);
width = 582;
},
{
associatedMasterId = "CFFEBDE4-599A-46B2-9328-D96E42CD9C81";
layerId = "18EFA2A5-94BA-44A1-8C61-68BF4E401414";
name = "Bold Condensed";
paths = (
{
closed = 1;
nodes = (
"505 0 LINE",
"505 714 LINE",
"94 714 LINE",
"94 0 LINE"
);
},
{
closed = 1;
nodes = (
"145 663 LINE",
"454 663 LINE",
"454 51 LINE",
"145 51 LINE"
);
}
);
width = 600;
},
{
associatedMasterId = "CFFEBDE4-599A-46B2-9328-D96E42CD9C81";
layerId = "9E2FF5C0-3F8B-4CDD-8C0B-518BB51B0C53";
name = "Bold Condensed";
paths = (
{
closed = 1;
nodes = (
"505 0 LINE",
"505 714 LINE",
"94 714 LINE",
"94 0 LINE"
);
},
{
closed = 1;
nodes = (
"145 663 LINE",
"454 663 LINE",
"454 51 LINE",
"145 51 LINE"
);
}
);
width = 600;
},
{
associatedMasterId = "CFFEBDE4-599A-46B2-9328-D96E42CD9C81";
layerId = "49C7FBBB-5D49-485A-90F5-A2972E78A97C";
name = "Bold Condensed";
paths = (
{
closed = 1;
nodes = (
"496 0 LINE",
"496 714 LINE",
"85 714 LINE",
"85 0 LINE"
);
},
{
closed = 1;
nodes = (
"136 663 LINE",
"445 663 LINE",
"445 51 LINE",
"136 51 LINE"
);
}
);
width = 595;
},
{
associatedMasterId = "CFFEBDE4-599A-46B2-9328-D96E42CD9C81";
layerId = "42E87011-FEDB-43C8-99A4-706BFF7CA79F";
name = "Bold Condensed";
paths = (
{
closed = 1;
nodes = (
"496 0 LINE",
"496 714 LINE",
"85 714 LINE",
"85 0 LINE"
);
},
{
closed = 1;
nodes = (
"136 663 LINE",
"445 663 LINE",
"445 51 LINE",
"136 51 LINE"
);
}
);
width = 587;
},
{
associatedMasterId = "CFFEBDE4-599A-46B2-9328-D96E42CD9C81";
layerId = "AD6F6DAA-2D58-4E1D-98AF-ACAAF76D7B9E";
name = "Bold Condensed";
paths = (
{
closed = 1;
nodes = (
"505 0 LINE",
"505 714 LINE",
"94 714 LINE",
"94 0 LINE"
);
},
{
closed = 1;
nodes = (
"145 663 LINE",
"454 663 LINE",
"454 51 LINE",
"145 51 LINE"
);
}
);
width = 600;
},
{
associatedMasterId = "CFFEBDE4-599A-46B2-9328-D96E42CD9C81";
layerId = "001EDBC9-3154-4441-98CE-7D8995D9200E";
name = "Bold Condensed";
paths = (
{
closed = 1;
nodes = (
"496 0 LINE",
"496 714 LINE",
"85 714 LINE",
"85 0 LINE"
);
},
{
closed = 1;
nodes = (
"136 663 LINE",
"445 663 LINE",
"445 51 LINE",
"136 51 LINE"
);
}
);
width = 600;
}
);
note = .notdef;
},
{
color = 4;
glyphname = u1B170;
lastChange = "2020-03-16 13:01:17 +0000";
layers = (
{
layerId = "CFFEBDE4-599A-46B2-9328-D96E42CD9C81";
paths = (
{
closed = 1;
nodes = (
"280 932 LINE",
"288 838 OFFCURVE",
"292 762 OFFCURVE",
"292 649 CURVE SMOOTH",
"292 191 OFFCURVE",
"217 -25 OFFCURVE",
"10 -239 CURVE",
"70 -293 LINE",
"291 -62 OFFCURVE",
"378 180 OFFCURVE",
"378 653 CURVE SMOOTH",
"378 770 OFFCURVE",
"373 851 OFFCURVE",
"365 939 CURVE"
);
}
);
vertOrigin = 90;
vertWidth = 1312;
width = 418;
}
);
unicode = 1B170;
},
{
color = 4;
glyphname = u1B171;
lastChange = "2020-03-16 13:06:20 +0000";
layers = (
{
background = {
paths = (
{
closed = 1;
nodes = (
"367 1074 LINE",
"372 990 OFFCURVE",
"374 912 OFFCURVE",
"374 839 CURVE SMOOTH",
"374 168 OFFCURVE",
"265 -69 OFFCURVE",
"27 -268 CURVE",
"87 -325 LINE",
"339 -109 OFFCURVE",
"460 157 OFFCURVE",
"460 843 CURVE SMOOTH",
"460 917 OFFCURVE",
"456 1001 OFFCURVE",
"451 1079 CURVE"
);
}
);
};
guideLines = (
{
angle = 90;
locked = 1;
position = "{300, 490}";
}
);
layerId = "CFFEBDE4-599A-46B2-9328-D96E42CD9C81";
paths = (
{
closed = 1;
nodes = (
"263 378 OFFCURVE",
"191 202 OFFCURVE",
"10 2 CURVE",
"67 -53 LINE",
"266 163 OFFCURVE",
"349 372 OFFCURVE",
"349 654 CURVE SMOOTH",
"349 756 OFFCURVE",
"343 846 OFFCURVE",
"330 939 CURVE",
"245 932 LINE",
"258 837 OFFCURVE",
"263 765 OFFCURVE",
"263 652 CURVE SMOOTH"
);
},
{
closed = 1;
nodes = (
"386 203 LINE",
"305 24 OFFCURVE",
"214 -109 OFFCURVE",
"85 -240 CURVE",
"148 -293 LINE",
"285 -149 OFFCURVE",
"378 -12 OFFCURVE",
"463 169 CURVE"
);
}
);
vertOrigin = 90;
vertWidth = 1312;
width = 600;
}
);
unicode = 1B171;
},
{
color = 4;
glyphname = u1B172;
lastChange = "2020-03-16 13:09:01 +0000";
layers = (
{
background = {
components = (
{
name = u1B170;
}
);
};
guideLines = (
{
angle = 90;
locked = 1;
position = "{250, 490}";
}
);
layerId = "CFFEBDE4-599A-46B2-9328-D96E42CD9C81";
paths = (
{
closed = 1;
nodes = (
"313 939 LINE",
"274 628 OFFCURVE",
"171 351 OFFCURVE",
"12 132 CURVE",
"77 83 LINE",
"252 318 OFFCURVE",
"352 613 OFFCURVE",
"396 929 CURVE"
);
},
{
closed = 1;
nodes = (
"219 529 OFFCURVE",
"301 366 OFFCURVE",
"301 147 CURVE SMOOTH",
"301 1 OFFCURVE",
"259 -115 OFFCURVE",
"168 -246 CURVE",
"236 -293 LINE",
"331 -160 OFFCURVE",
"387 -20 OFFCURVE",
"387 147 CURVE SMOOTH",
"387 357 OFFCURVE",
"313 563 OFFCURVE",
"64 771 CURVE",
"10 706 LINE"
);
}
);
vertOrigin = 90;
vertWidth = 1312;
width = 446;
}
);
unicode = 1B172;
},
{
color = 4;
glyphname = u1B173;
lastChange = "2020-03-16 13:15:14 +0000";
layers = (
{
guideLines = (
{
angle = 90;
locked = 1;
position = "{250, 490}";
}
);
layerId = "CFFEBDE4-599A-46B2-9328-D96E42CD9C81";
paths = (
{
closed = 1;
nodes = (
"278 383 LINE",
"315 254 OFFCURVE",
"337 149 OFFCURVE",
"337 37 CURVE SMOOTH",
"337 -80 OFFCURVE",
"316 -172 OFFCURVE",
"278 -272 CURVE",
"360 -293 LINE",
"403 -184 OFFCURVE",
"423 -84 OFFCURVE",
"423 73 CURVE SMOOTH",
"423 193 OFFCURVE",
"397 332 OFFCURVE",
"294 525 CURVE"
);
},
{
closed = 1;
nodes = (
"242 824 OFFCURVE",
"254 730 OFFCURVE",
"254 613 CURVE SMOOTH",
"254 402 OFFCURVE",
"181 232 OFFCURVE",
"20 40 CURVE",
"82 -10 LINE",
"261 192 OFFCURVE",
"340 383 OFFCURVE",
"340 632 CURVE SMOOTH",
"340 744 OFFCURVE",
"327 834 OFFCURVE",
"305 939 CURVE",
"221 924 LINE"
);
}
);
vertOrigin = 90;
vertWidth = 1312;
width = 510;
}
);
unicode = 1B173;
},
{
color = 4;
glyphname = u1B174;
lastChange = "2020-03-16 13:40:13 +0000";
layers = (
{
guideLines = (
{
angle = 90;
locked = 1;
position = "{300, 490}";
}
);
layerId = "CFFEBDE4-599A-46B2-9328-D96E42CD9C81";
paths = (
{
closed = 1;
nodes = (
"86 439 OFFCURVE",
"117 281 OFFCURVE",
"117 112 CURVE SMOOTH",
"117 -21 OFFCURVE",
"93 -138 OFFCURVE",
"41 -262 CURVE",
"115 -293 LINE",
"170 -165 OFFCURVE",
"200 -34 OFFCURVE",
"200 112 CURVE SMOOTH",
"200 300 OFFCURVE",
"167 450 OFFCURVE",
"87 656 CURVE",
"10 624 LINE"
);
},
{
closed = 1;
nodes = (
"411 278 OFFCURVE",
"372 406 OFFCURVE",
"372 591 CURVE SMOOTH",
"372 692 OFFCURVE",
"380 794 OFFCURVE",
"411 923 CURVE",
"332 939 LINE",
"300 812 OFFCURVE",
"289 710 OFFCURVE",
"289 594 CURVE SMOOTH",
"289 391 OFFCURVE",
"344 232 OFFCURVE",
"450 90 CURVE",
"515 138 LINE"
);
}
);
vertOrigin = 90;
vertWidth = 1312;
width = 571;
}
);
unicode = 1B174;
},
{
color = 4;
glyphname = u1B175;
lastChange = "2020-03-16 13:40:01 +0000";
layers = (
{
guideLines = (
{
angle = 90;
locked = 1;
position = "{250, 490}";
}
);
layerId = "CFFEBDE4-599A-46B2-9328-D96E42CD9C81";
paths = (
{
closed = 1;
nodes = (
"432 -273 LINE",
"372 118 OFFCURVE",
"272 422 OFFCURVE",
"61 773 CURVE",
"-10 729 LINE",
"191 393 OFFCURVE",
"295 78 OFFCURVE",
"350 -293 CURVE"
);
},
{
closed = 1;
nodes = (
"337 939 LINE",
"271 592 OFFCURVE",
"162 275 OFFCURVE",
"-20 4 CURVE",
"46 -40 LINE",
"242 262 OFFCURVE",
"350 558 OFFCURVE",
"418 927 CURVE"
);
}
);
vertOrigin = 90;
vertWidth = 1312;
width = 516;
}
);
unicode = 1B175;
},
{
color = 4;
glyphname = u1B176;
lastChange = "2020-03-16 13:39:55 +0000";
layers = (
{
guideLines = (
{
angle = 90;
locked = 1;
position = "{250, 490}";
}
);
layerId = "CFFEBDE4-599A-46B2-9328-D96E42CD9C81";
paths = (
{
closed = 1;
nodes = (
"258 698 OFFCURVE",
"292 538 OFFCURVE",
"292 327 CURVE SMOOTH",
"292 76 OFFCURVE",
"211 -87 OFFCURVE",
"71 -243 CURVE",
"131 -293 LINE",
"294 -127 OFFCURVE",
"375 70 OFFCURVE",
"375 328 CURVE SMOOTH",
"375 545 OFFCURVE",
"338 738 OFFCURVE",
"258 939 CURVE",
"178 919 LINE"
);
},
{
closed = 1;
nodes = (
"127 216 OFFCURVE",
"150 233 OFFCURVE",
"150 272 CURVE SMOOTH",
"150 311 OFFCURVE",
"127 328 OFFCURVE",
"99 328 CURVE SMOOTH",
"70 328 OFFCURVE",
"47 311 OFFCURVE",
"47 272 CURVE SMOOTH",
"47 233 OFFCURVE",
"70 216 OFFCURVE",
"99 216 CURVE SMOOTH"
);
}
);
vertOrigin = 90;
vertWidth = 1312;
width = 427;
}
);
unicode = 1B176;
},
{
color = 4;
glyphname = u1B177;
lastChange = "2020-03-16 13:42:26 +0000";
layers = (
{
background = {
paths = (
{
closed = 1;
nodes = (
"292 -133 OFFCURVE",
"221 48 OFFCURVE",
"159 277 CURVE SMOOTH",
"69 609 OFFCURVE",
"128 828 OFFCURVE",
"293 1040 CURVE",
"220 1079 LINE",
"41 848 OFFCURVE",
"-18 602 OFFCURVE",
"78 246 CURVE SMOOTH",
"143 6 OFFCURVE",
"219 -183 OFFCURVE",
"318 -350 CURVE",
"395 -318 LINE"
);
}
);
};
guideLines = (
{
angle = 90;
locked = 1;
position = "{260, 490}";
}
);
layerId = "CFFEBDE4-599A-46B2-9328-D96E42CD9C81";
paths = (
{
closed = 1;
nodes = (
"137 939 LINE",
"52 760 OFFCURVE",
"10 576 OFFCURVE",
"10 378 CURVE SMOOTH",
"10 103 OFFCURVE",
"87 -97 OFFCURVE",
"234 -293 CURVE",
"303 -242 LINE",
"169 -43 OFFCURVE",
"96 131 OFFCURVE",
"96 377 CURVE SMOOTH",
"96 580 OFFCURVE",
"137 751 OFFCURVE",
"215 911 CURVE"
);
},
{
closed = 1;
nodes = (
"258 468 OFFCURVE",
"235 451 OFFCURVE",
"235 412 CURVE SMOOTH",
"235 373 OFFCURVE",
"258 356 OFFCURVE",
"286 356 CURVE SMOOTH",
"315 356 OFFCURVE",
"338 373 OFFCURVE",
"338 412 CURVE SMOOTH",
"338 451 OFFCURVE",
"315 468 OFFCURVE",
"286 468 CURVE SMOOTH"
);
}
);
vertOrigin = -50;
vertWidth = 1484;
width = 410;
}
);
unicode = 1B177;
},
{
color = 4;
glyphname = u1B178;
lastChange = "2020-03-16 13:47:28 +0000";
layers = (
{
guideLines = (
{
angle = 90;
locked = 1;
position = "{375, 490}";
}
);
layerId = "CFFEBDE4-599A-46B2-9328-D96E42CD9C81";
paths = (
{
closed = 1;
nodes = (
"163 349 LINE",
"141 154 OFFCURVE",
"110 57 OFFCURVE",
"10 -61 CURVE",
"69 -115 LINE",
"175 3 OFFCURVE",
"226 122 OFFCURVE",
"249 338 CURVE"
);
},
{
closed = 1;
nodes = (
"548 146 OFFCURVE",
"530 57 OFFCURVE",
"530 -41 CURVE SMOOTH",
"530 -135 OFFCURVE",
"540 -206 OFFCURVE",
"571 -283 CURVE",
"651 -255 LINE",
"627 -195 OFFCURVE",
"614 -129 OFFCURVE",
"614 -41 CURVE SMOOTH",
"614 46 OFFCURVE",
"630 129 OFFCURVE",
"677 232 CURVE",
"600 262 LINE"
);
},
{
closed = 1;
nodes = (
"362 931 LINE",
"371 836 OFFCURVE",
"384 741 OFFCURVE",
"384 628 CURVE SMOOTH",
"384 122 OFFCURVE",
"319 -64 OFFCURVE",
"148 -237 CURVE",
"211 -293 LINE",
"396 -103 OFFCURVE",
"470 111 OFFCURVE",
"470 632 CURVE SMOOTH",
"470 750 OFFCURVE",
"461 845 OFFCURVE",
"449 939 CURVE"
);
}
);
vertOrigin = 90;
vertWidth = 1312;
width = 717;
}
);
unicode = 1B178;
},
{
color = 4;
glyphname = u1B179;
lastChange = "2020-03-16 13:53:11 +0000";
layers = (
{
background = {
paths = (
{
closed = 1;
nodes = (
"371 968 OFFCURVE",
"377 873 OFFCURVE",
"377 737 CURVE SMOOTH",
"377 266 OFFCURVE",
"273 -24 OFFCURVE",
"27 -268 CURVE",
"87 -325 LINE",
"352 -67 OFFCURVE",
"463 250 OFFCURVE",
"463 738 CURVE SMOOTH",
"463 863 OFFCURVE",
"456 978 OFFCURVE",
"439 1079 CURVE",
"354 1069 LINE"
);
}
);
};
guideLines = (
{
angle = 90;
locked = 1;
position = "{275, 490}";
}
);
layerId = "CFFEBDE4-599A-46B2-9328-D96E42CD9C81";
paths = (
{
closed = 1;
nodes = (
"302 939 LINE",
"226 744 OFFCURVE",
"136 609 OFFCURVE",
"4 453 CURVE",
"67 400 LINE",
"205 562 OFFCURVE",
"304 702 OFFCURVE",
"385 911 CURVE"
);
},
{
closed = 1;
nodes = (
"315 634 OFFCURVE",
"335 593 OFFCURVE",
"335 530 CURVE SMOOTH",
"335 450 OFFCURVE",
"275 335 OFFCURVE",
"45 134 CURVE",
"100 71 LINE",
"336 282 OFFCURVE",
"421 425 OFFCURVE",
"421 530 CURVE SMOOTH",
"421 620 OFFCURVE",
"393 678 OFFCURVE",
"299 760 CURVE",
"248 693 LINE"
);
},
{
closed = 1;
nodes = (
"226 249 LINE",
"251 123 OFFCURVE",
"256 40 OFFCURVE",
"256 -51 CURVE SMOOTH",
"256 -139 OFFCURVE",
"253 -199 OFFCURVE",
"242 -284 CURVE",
"327 -293 LINE",
"338 -204 OFFCURVE",
"342 -126 OFFCURVE",
"342 -39 CURVE SMOOTH",
"342 68 OFFCURVE",
"331 170 OFFCURVE",
"296 327 CURVE"
);
}
);
vertOrigin = 90;
vertWidth = 1312;
width = 459;
}
);
unicode = 1B179;
},
{
color = 4;
glyphname = u1B17A;
lastChange = "2020-03-16 13:55:24 +0000";
layers = (
{
guideLines = (
{
angle = 90;
locked = 1;
position = "{300, 490}";
}
);
layerId = "CFFEBDE4-599A-46B2-9328-D96E42CD9C81";
paths = (
{
closed = 1;
nodes = (
"289 338 LINE",
"307 213 OFFCURVE",
"313 118 OFFCURVE",
"313 31 CURVE SMOOTH",
"313 -75 OFFCURVE",
"305 -174 OFFCURVE",
"285 -283 CURVE",
"369 -293 LINE",
"390 -176 OFFCURVE",
"397 -76 OFFCURVE",
"397 41 CURVE SMOOTH",
"397 124 OFFCURVE",
"391 225 OFFCURVE",
"365 350 CURVE"
);
},
{
closed = 1;
nodes = (
"316 939 LINE",
"290 642 OFFCURVE",
"224 439 OFFCURVE",
"79 217 CURVE",
"147 172 LINE",
"292 402 OFFCURVE",
"365 615 OFFCURVE",
"396 933 CURVE"
);
},
{
closed = 1;
nodes = (
"216 570 OFFCURVE",
"354 479 OFFCURVE",
"497 332 CURVE",
"550 394 LINE",
"391 552 OFFCURVE",
"266 627 OFFCURVE",
"50 728 CURVE",
"16 655 LINE"
);
}
);
vertOrigin = 90;
vertWidth = 1312;
width = 590;
}
);
unicode = 1B17A;
},
{
color = 4;
glyphname = u1B17B;
lastChange = "2020-03-16 13:55:52 +0000";
layers = (
{
layerId = "CFFEBDE4-599A-46B2-9328-D96E42CD9C81";
paths = (
{
closed = 1;
nodes = (
"327 939 LINE",
"276 714 OFFCURVE",
"175 485 OFFCURVE",
"40 284 CURVE",
"109 241 LINE",
"241 439 OFFCURVE",
"346 679 OFFCURVE",
"408 926 CURVE"
);
},
{
closed = 1;
nodes = (
"41 786 LINE",
"246 469 OFFCURVE",
"362 138 OFFCURVE",
"416 -293 CURVE",
"497 -283 LINE",
"443 187 OFFCURVE",
"301 527 OFFCURVE",
"107 831 CURVE"
);
},
{
closed = 1;
nodes = (
"309 320 LINE",
"246 169 OFFCURVE",
"174 43 OFFCURVE",
"83 -89 CURVE",
"149 -138 LINE",
"235 -13 OFFCURVE",
"302 106 OFFCURVE",
"364 282 CURVE"
);
}
);
vertOrigin = 90;
vertWidth = 1312;
width = 537;
}
);
unicode = 1B17B;
},
{
color = 4;
glyphname = u1B17C;
lastChange = "2020-03-16 12:29:41 +0000";
layers = (
{
layerId = "CFFEBDE4-599A-46B2-9328-D96E42CD9C81";
paths = (
{
closed = 1;
nodes = (
"35 419 LINE",
"150 271 OFFCURVE",
"261 105 OFFCURVE",
"369 -80 CURVE",
"436 -41 LINE",
"322 152 OFFCURVE",
"211 317 OFFCURVE",
"85 483 CURVE",
"89 425 LINE",
"195 638 OFFCURVE",
"259 817 OFFCURVE",
"307 1058 CURVE",
"229 1069 LINE",
"183 845 OFFCURVE",
"118 657 OFFCURVE",
"35 490 CURVE"
);
},
{
closed = 1;
nodes = (
"251 697 OFFCURVE",
"277 583 OFFCURVE",
"277 454 CURVE SMOOTH",
"277 217 OFFCURVE",
"211 28 OFFCURVE",
"37 -257 CURVE",
"107 -293 LINE",
"286 -12 OFFCURVE",
"363 207 OFFCURVE",
"363 454 CURVE SMOOTH",
"363 618 OFFCURVE",
"322 739 OFFCURVE",
"226 878 CURVE",
"191 800 LINE"
);
}
);
width = 471;
}
);
unicode = 1B17C;
},
{
color = 4;
glyphname = u1B17D;
lastChange = "2020-03-16 12:29:50 +0000";
layers = (
{
layerId = "CFFEBDE4-599A-46B2-9328-D96E42CD9C81";
paths = (
{
closed = 1;
nodes = (
"262 990 OFFCURVE",
"266 949 OFFCURVE",
"266 868 CURVE SMOOTH",
"266 578 OFFCURVE",
"201 353 OFFCURVE",
"30 127 CURVE",
"91 80 LINE",
"266 301 OFFCURVE",
"349 568 OFFCURVE",
"349 853 CURVE SMOOTH",
"349 940 OFFCURVE",
"345 997 OFFCURVE",
"335 1069 CURVE",
"253 1062 LINE"
);
},
{
closed = 1;
nodes = (
"253 457 LINE",
"280 309 OFFCURVE",
"288 187 OFFCURVE",
"288 14 CURVE SMOOTH",
"288 -107 OFFCURVE",
"276 -177 OFFCURVE",
"254 -282 CURVE",
"334 -293 LINE",
"362 -167 OFFCURVE",
"371 -96 OFFCURVE",
"371 40 CURVE SMOOTH",
"371 242 OFFCURVE",
"349 396 OFFCURVE",
"288 578 CURVE"
);
},
{
closed = 1;
nodes = (
"528 319 OFFCURVE",
"551 336 OFFCURVE",
"551 375 CURVE SMOOTH",
"551 414 OFFCURVE",
"528 431 OFFCURVE",
"500 431 CURVE SMOOTH",
"471 431 OFFCURVE",
"448 414 OFFCURVE",
"448 375 CURVE SMOOTH",
"448 336 OFFCURVE",
"471 319 OFFCURVE",
"500 319 CURVE SMOOTH"
);
}
);
width = 581;
}
);
unicode = 1B17D;
},
{
color = 4;
glyphname = u1B17E;
lastChange = "2020-03-16 12:29:55 +0000";
layers = (
{
layerId = "CFFEBDE4-599A-46B2-9328-D96E42CD9C81";
paths = (
{
closed = 1;
nodes = (
"294 1069 LINE",
"250 859 OFFCURVE",
"177 697 OFFCURVE",
"51 536 CURVE",
"99 413 OFFCURVE",
"121 306 OFFCURVE",
"121 150 CURVE SMOOTH",
"121 -15 OFFCURVE",
"92 -126 OFFCURVE",
"30 -266 CURVE",
"106 -293 LINE",
"174 -136 OFFCURVE",
"201 -22 OFFCURVE",
"201 157 CURVE SMOOTH",
"201 319 OFFCURVE",
"176 437 OFFCURVE",
"125 547 CURVE",
"130 498 LINE",
"252 668 OFFCURVE",
"327 828 OFFCURVE",
"374 1055 CURVE"
);
},
{
closed = 1;
nodes = (
"438 341 LINE",
"408 542 OFFCURVE",
"361 680 OFFCURVE",
"270 835 CURVE",
"232 741 LINE",
"302 617 OFFCURVE",
"335 514 OFFCURVE",
"360 324 CURVE"
);
}
);
width = 468;
}
);
unicode = 1B17E;
},
{
color = 4;
glyphname = u1B17F;
lastChange = "2020-03-16 12:30:01 +0000";
layers = (
{
layerId = "CFFEBDE4-599A-46B2-9328-D96E42CD9C81";
paths = (
{
closed = 1;
nodes = (
"258 903 OFFCURVE",
"281 716 OFFCURVE",
"281 490 CURVE SMOOTH",
"281 123 OFFCURVE",
"207 -35 OFFCURVE",
"20 -242 CURVE",
"77 -293 LINE",
"283 -72 OFFCURVE",
"367 107 OFFCURVE",
"367 491 CURVE SMOOTH",
"367 714 OFFCURVE",
"342 903 OFFCURVE",
"304 1069 CURVE",
"222 1056 LINE"
);
},
{
closed = 1;
nodes = (
"150 274 OFFCURVE",
"173 291 OFFCURVE",
"173 330 CURVE SMOOTH",
"173 369 OFFCURVE",
"150 386 OFFCURVE",
"122 386 CURVE SMOOTH",
"93 386 OFFCURVE",
"70 369 OFFCURVE",
"70 330 CURVE SMOOTH",
"70 291 OFFCURVE",
"93 274 OFFCURVE",
"122 274 CURVE SMOOTH"
);
},
{
closed = 1;
nodes = (
"527 62 OFFCURVE",
"550 79 OFFCURVE",
"550 118 CURVE SMOOTH",
"550 157 OFFCURVE",
"527 174 OFFCURVE",
"499 174 CURVE SMOOTH",
"470 174 OFFCURVE",
"447 157 OFFCURVE",
"447 118 CURVE SMOOTH",
"447 79 OFFCURVE",
"470 62 OFFCURVE",
"499 62 CURVE SMOOTH"
);
}
);
width = 600;
}
);
unicode = 1B17F;
},
{
color = 4;
glyphname = u1B180;
lastChange = "2020-03-16 12:30:09 +0000";
layers = (
{
layerId = "CFFEBDE4-599A-46B2-9328-D96E42CD9C81";
paths = (
{
closed = 1;
nodes = (
"429 1069 LINE",
"343 709 OFFCURVE",
"233 406 OFFCURVE",
"20 162 CURVE",
"81 112 LINE",
"294 352 OFFCURVE",
"421 689 OFFCURVE",
"506 1054 CURVE"
);
},
{
closed = 1;
nodes = (
"526 323 LINE",
"430 106 OFFCURVE",
"300 -76 OFFCURVE",
"156 -239 CURVE",
"214 -293 LINE",
"373 -104 OFFCURVE",
"494 52 OFFCURVE",
"600 285 CURVE"
);
},
{
closed = 1;
nodes = (
"439 26 LINE",
"356 322 OFFCURVE",
"228 624 OFFCURVE",
"100 857 CURVE",
"26 809 LINE",
"164 571 OFFCURVE",
"281 301 OFFCURVE",
"374 -6 CURVE"
);
}
);
width = 630;
}
);
unicode = 1B180;
},
{
color = 4;
glyphname = u1B181;
lastChange = "2020-03-16 12:42:48 +0000";
layers = (
{
layerId = "CFFEBDE4-599A-46B2-9328-D96E42CD9C81";
paths = (
{
closed = 1;
nodes = (
"81 319 LINE",
"234 110 OFFCURVE",
"271 -57 OFFCURVE",
"295 -293 CURVE",
"373 -282 LINE",
"343 -28 OFFCURVE",
"295 147 OFFCURVE",
"137 381 CURVE",
"134 319 LINE",
"257 478 OFFCURVE",
"294 665 OFFCURVE",
"314 929 CURVE",
"234 939 LINE",
"218 690 OFFCURVE",
"186 511 OFFCURVE",
"81 390 CURVE"
);
},
{
closed = 1;
nodes = (
"255 619 OFFCURVE",
"308 478 OFFCURVE",
"308 361 CURVE SMOOTH",
"308 194 OFFCURVE",
"254 69 OFFCURVE",
"86 -79 CURVE",
"137 -136 LINE",
"307 4 OFFCURVE",
"392 181 OFFCURVE",
"392 353 CURVE SMOOTH",
"392 497 OFFCURVE",
"309 688 OFFCURVE",
"99 802 CURVE",
"60 734 LINE"
);
}
);
width = 422;
}
);
unicode = 1B181;
},
{
color = 4;
glyphname = u1B182;
lastChange = "2020-03-16 12:30:19 +0000";
layers = (
{
layerId = "CFFEBDE4-599A-46B2-9328-D96E42CD9C81";
paths = (
{
closed = 1;
nodes = (
"201 486 LINE",
"317 697 OFFCURVE",
"368 835 OFFCURVE",
"424 1055 CURVE",
"344 1069 LINE",
"296 867 OFFCURVE",
"250 734 OFFCURVE",
"153 556 CURVE"
);
},
{
closed = 1;
nodes = (
"344 718 OFFCURVE",
"357 646 OFFCURVE",
"357 534 CURVE SMOOTH",
"357 335 OFFCURVE",
"304 161 OFFCURVE",
"83 -151 CURVE",
"146 -196 LINE",
"382 135 OFFCURVE",
"440 334 OFFCURVE",
"440 525 CURVE SMOOTH",
"440 668 OFFCURVE",
"413 766 OFFCURVE",
"364 877 CURVE",
"306 840 LINE"
);
},
{
closed = 1;
nodes = (
"30 685 LINE",
"187 379 OFFCURVE",
"323 73 OFFCURVE",
"433 -293 CURVE",
"505 -261 LINE",
"389 119 OFFCURVE",
"259 414 OFFCURVE",
"95 726 CURVE"
);
}
);
width = 539;
}
);
unicode = 1B182;
},
{
color = 4;
glyphname = u1B183;
lastChange = "2020-03-16 12:30:25 +0000";
layers = (
{
layerId = "CFFEBDE4-599A-46B2-9328-D96E42CD9C81";
paths = (
{
closed = 1;
nodes = (
"439 1069 LINE",
"356 706 OFFCURVE",
"197 416 OFFCURVE",
"20 212 CURVE",
"81 162 LINE",
"254 362 OFFCURVE",
"431 673 OFFCURVE",
"516 1054 CURVE"
);
},
{
closed = 1;
nodes = (
"526 293 LINE",
"430 76 OFFCURVE",
"300 -88 OFFCURVE",
"156 -239 CURVE",
"214 -293 LINE",
"373 -116 OFFCURVE",
"494 22 OFFCURVE",
"600 255 CURVE"
);
},
{
closed = 1;
nodes = (
"204 405 LINE",
"277 222 OFFCURVE",
"323 91 OFFCURVE",
"364 -46 CURVE",
"429 -14 LINE",
"385 142 OFFCURVE",
"329 302 OFFCURVE",
"257 474 CURVE"
);
}
);
width = 620;
}
);
unicode = 1B183;
},
{
color = 4;
glyphname = u1B184;
lastChange = "2020-03-16 12:30:32 +0000";
layers = (
{
layerId = "CFFEBDE4-599A-46B2-9328-D96E42CD9C81";
paths = (
{
closed = 1;
nodes = (
"243 975 OFFCURVE",
"248 926 OFFCURVE",
"248 844 CURVE SMOOTH",
"248 645 OFFCURVE",
"190 510 OFFCURVE",
"30 374 CURVE",
"84 314 LINE",
"255 449 OFFCURVE",
"331 613 OFFCURVE",
"331 851 CURVE SMOOTH",
"331 930 OFFCURVE",
"326 990 OFFCURVE",
"314 1069 CURVE",
"232 1062 LINE"
);
},
{
closed = 1;
nodes = (
"259 595 LINE",
"305 486 OFFCURVE",
"341 362 OFFCURVE",
"341 212 CURVE SMOOTH",
"341 14 OFFCURVE",
"301 -91 OFFCURVE",
"187 -252 CURVE",
"256 -293 LINE",
"380 -128 OFFCURVE",
"427 11 OFFCURVE",
"427 197 CURVE SMOOTH",
"427 415 OFFCURVE",
"389 513 OFFCURVE",
"294 696 CURVE"
);
},
{
closed = 1;
nodes = (
"207 98 OFFCURVE",
"230 115 OFFCURVE",
"230 154 CURVE SMOOTH",
"230 193 OFFCURVE",
"207 210 OFFCURVE",
"179 210 CURVE SMOOTH",
"150 210 OFFCURVE",
"127 193 OFFCURVE",
"127 154 CURVE SMOOTH",
"127 115 OFFCURVE",
"150 98 OFFCURVE",
"179 98 CURVE SMOOTH"
);
}
);
width = 497;
}
);
unicode = 1B184;
},
{
color = 4;
glyphname = u1B185;
lastChange = "2020-03-16 12:30:37 +0000";
layers = (
{
layerId = "CFFEBDE4-599A-46B2-9328-D96E42CD9C81";
paths = (
{
closed = 1;
nodes = (
"242 469 LINE",
"254 342 OFFCURVE",
"257 249 OFFCURVE",
"257 135 CURVE SMOOTH",
"257 -29 OFFCURVE",
"238 -121 OFFCURVE",
"190 -272 CURVE",
"269 -293 LINE",
"318 -152 OFFCURVE",
"341 -39 OFFCURVE",
"341 135 CURVE SMOOTH",
"341 255 OFFCURVE",
"338 356 OFFCURVE",
"320 477 CURVE"
);
},
{
closed = 1;
nodes = (
"230 1069 LINE",
"202 729 OFFCURVE",
"144 560 OFFCURVE",
"30 369 CURVE",
"103 325 LINE",
"219 534 OFFCURVE",
"275 696 OFFCURVE",
"313 1062 CURVE"
);
},
{
closed = 1;
nodes = (
"223 812 LINE",
"277 711 OFFCURVE",
"309 653 OFFCURVE",
"337 596 CURVE SMOOTH",
"378 512 OFFCURVE",
"409 446 OFFCURVE",
"438 369 CURVE",
"515 408 LINE",
"441 584 OFFCURVE",
"368 732 OFFCURVE",
"270 870 CURVE"
);
}
);
width = 545;
}
);
unicode = 1B185;
},
{
color = 4;
glyphname = u1B186;
lastChange = "2020-03-16 12:30:43 +0000";
layers = (
{
layerId = "CFFEBDE4-599A-46B2-9328-D96E42CD9C81";
paths = (
{
closed = 1;
nodes = (
"103 557 OFFCURVE",
"133 385 OFFCURVE",
"133 213 CURVE SMOOTH",
"133 -2 OFFCURVE",
"99 -126 OFFCURVE",
"30 -265 CURVE",
"106 -293 LINE",
"175 -150 OFFCURVE",
"216 -9 OFFCURVE",
"216 213 CURVE SMOOTH",
"216 397 OFFCURVE",
"182 575 OFFCURVE",
"131 727 CURVE",
"51 701 LINE"
);
},
{
closed = 1;
nodes = (
"369 731 OFFCURVE",
"281 555 OFFCURVE",
"162 409 CURVE",
"197 341 LINE",
"354 506 OFFCURVE",
"451 704 OFFCURVE",
"488 1057 CURVE",
"405 1069 LINE"
);
},
{
closed = 1;
nodes = (
"335 657 LINE",
"395 528 OFFCURVE",
"426 427 OFFCURVE",
"452 265 CURVE",
"539 291 LINE",
"509 461 OFFCURVE",
"472 575 OFFCURVE",
"390 714 CURVE"
);
}
);
width = 569;
}
);
unicode = 1B186;
},
{
color = 4;
glyphname = u1B187;
lastChange = "2020-03-16 12:30:50 +0000";
layers = (
{
layerId = "CFFEBDE4-599A-46B2-9328-D96E42CD9C81";
paths = (
{
closed = 1;
nodes = (
"292 -293 LINE",
"342 -124 OFFCURVE",
"354 -11 OFFCURVE",
"354 206 CURVE SMOOTH",
"354 453 OFFCURVE",
"295 661 OFFCURVE",
"147 889 CURVE",
"78 846 LINE",
"225 622 OFFCURVE",
"274 445 OFFCURVE",
"274 206 CURVE SMOOTH",
"274 8 OFFCURVE",
"264 -106 OFFCURVE",
"212 -275 CURVE"
);
},
{
closed = 1;
nodes = (
"411 1069 LINE",
"330 769 OFFCURVE",
"207 577 OFFCURVE",
"20 376 CURVE",
"77 324 LINE",
"269 538 OFFCURVE",
"394 726 OFFCURVE",
"485 1046 CURVE"
);
},
{
closed = 1;
nodes = (
"465 606 LINE",
"351 379 OFFCURVE",
"222 210 OFFCURVE",
"55 65 CURVE",
"106 8 LINE",
"268 151 OFFCURVE",
"402 324 OFFCURVE",
"532 568 CURVE"
);
}
);
width = 552;
}
);
unicode = 1B187;
},
{
color = 4;
glyphname = u1B188;
lastChange = "2020-03-16 12:31:02 +0000";
layers = (
{
background = {
paths = (
{
closed = 1;
nodes = (
"450 1074 LINE",
"455 990 OFFCURVE",
"457 912 OFFCURVE",
"457 839 CURVE SMOOTH",
"457 168 OFFCURVE",
"353 -69 OFFCURVE",
"115 -268 CURVE",
"170 -325 LINE",
"422 -109 OFFCURVE",
"543 157 OFFCURVE",
"543 843 CURVE SMOOTH",
"543 917 OFFCURVE",
"539 1001 OFFCURVE",
"534 1079 CURVE"
);
}
);
};
layerId = "CFFEBDE4-599A-46B2-9328-D96E42CD9C81";
paths = (
{
closed = 1;
nodes = (
"314 -264 LINE",
"291 -62 OFFCURVE",
"249 124 OFFCURVE",
"191 305 CURVE",
"108 279 LINE",
"169 97 OFFCURVE",
"210 -81 OFFCURVE",
"237 -280 CURVE",
"339 -293 LINE",
"475 -5 OFFCURVE",
"569 389 OFFCURVE",
"569 788 CURVE SMOOTH",
"569 893 OFFCURVE",
"567 972 OFFCURVE",
"560 1069 CURVE",
"476 1064 LINE",
"481 972 OFFCURVE",
"483 894 OFFCURVE",
"483 792 CURVE SMOOTH",
"483 400 OFFCURVE",
"403 6 OFFCURVE",
"261 -268 CURVE"
);
},
{
closed = 1;
nodes = (
"100 -101 OFFCURVE",
"123 -84 OFFCURVE",
"123 -45 CURVE SMOOTH",
"123 -6 OFFCURVE",
"100 11 OFFCURVE",
"72 11 CURVE SMOOTH",
"43 11 OFFCURVE",
"20 -6 OFFCURVE",
"20 -45 CURVE SMOOTH",
"20 -84 OFFCURVE",
"43 -101 OFFCURVE",
"72 -101 CURVE SMOOTH"
);
}
);
width = 599;
}
);
unicode = 1B188;
},
{
color = 4;
glyphname = u1B189;
lastChange = "2020-03-16 12:31:10 +0000";
layers = (
{
layerId = "CFFEBDE4-599A-46B2-9328-D96E42CD9C81";
paths = (
{
closed = 1;
nodes = (
"219 649 LINE",
"259 525 OFFCURVE",
"274 389 OFFCURVE",
"274 186 CURVE SMOOTH",
"274 0 OFFCURVE",
"264 -106 OFFCURVE",
"212 -275 CURVE",
"292 -293 LINE",
"342 -124 OFFCURVE",
"354 13 OFFCURVE",
"354 224 CURVE SMOOTH",
"354 427 OFFCURVE",
"324 579 OFFCURVE",
"271 717 CURVE"
);
},
{
closed = 1;
nodes = (
"387 1069 LINE",
"298 841 OFFCURVE",
"187 647 OFFCURVE",
"20 456 CURVE",
"77 404 LINE",
"249 608 OFFCURVE",
"362 798 OFFCURVE",
"461 1046 CURVE"
);
},
{
closed = 1;
nodes = (
"469 709 LINE",
"355 482 OFFCURVE",
"222 311 OFFCURVE",
"55 145 CURVE",
"106 88 LINE",
"268 251 OFFCURVE",
"406 427 OFFCURVE",
"536 671 CURVE"
);
}
);
width = 556;
}
);
unicode = 1B189;
},
{
color = 4;
glyphname = u1B18A;
lastChange = "2020-03-16 12:31:20 +0000";
layers = (
{
background = {
paths = (
{
closed = 1;
nodes = (
"355 390 OFFCURVE",
"272 182 OFFCURVE",
"36 -28 CURVE",
"87 -85 LINE",
"352 139 OFFCURVE",
"441 395 OFFCURVE",
"441 797 CURVE SMOOTH",
"441 899 OFFCURVE",
"438 991 OFFCURVE",
"432 1079 CURVE",
"348 1074 LINE",
"353 986 OFFCURVE",
"355 895 OFFCURVE",
"355 809 CURVE SMOOTH"
);
},
{
closed = 1;
nodes = (
"465 201 LINE",
"387 17 OFFCURVE",
"267 -139 OFFCURVE",
"105 -266 CURVE",
"156 -325 LINE",
"331 -183 OFFCURVE",
"449 -32 OFFCURVE",
"537 166 CURVE"
);
}
);
};
layerId = "CFFEBDE4-599A-46B2-9328-D96E42CD9C81";
paths = (
{
closed = 1;
nodes = (
"352 994 OFFCURVE",
"355 924 OFFCURVE",
"355 815 CURVE SMOOTH",
"355 548 OFFCURVE",
"259 354 OFFCURVE",
"40 213 CURVE",
"87 151 LINE",
"319 295 OFFCURVE",
"440 535 OFFCURVE",
"440 827 CURVE SMOOTH",
"440 930 OFFCURVE",
"438 991 OFFCURVE",
"431 1069 CURVE",
"348 1064 LINE"
);
},
{
closed = 1;
nodes = (
"461 409 LINE",
"380 229 OFFCURVE",
"274 99 OFFCURVE",
"97 -20 CURVE",
"140 -83 LINE",
"313 34 OFFCURVE",
"444 176 OFFCURVE",
"529 376 CURVE"
);
},
{
closed = 1;
nodes = (
"492 89 LINE",
"400 -45 OFFCURVE",
"295 -147 OFFCURVE",
"160 -230 CURVE",
"206 -293 LINE",
"351 -199 OFFCURVE",
"458 -100 OFFCURVE",
"557 44 CURVE"
);
}
);
width = 607;
}
);
unicode = 1B18A;
},
{
color = 4;
glyphname = u1B18B;
lastChange = "2020-03-16 12:31:36 +0000";
layers = (
{
layerId = "CFFEBDE4-599A-46B2-9328-D96E42CD9C81";
paths = (
{
closed = 1;
nodes = (
"411 786 LINE",
"375 667 OFFCURVE",
"338 584 OFFCURVE",
"274 493 CURVE",
"320 376 OFFCURVE",
"335 279 OFFCURVE",
"335 187 CURVE SMOOTH",
"335 86 OFFCURVE",
"324 4 OFFCURVE",
"300 -84 CURVE",
"381 -101 LINE",
"411 4 OFFCURVE",
"421 95 OFFCURVE",
"421 184 CURVE SMOOTH",
"421 291 OFFCURVE",
"400 391 OFFCURVE",
"354 507 CURVE",
"349 457 LINE",
"420 558 OFFCURVE",
"457 643 OFFCURVE",
"490 764 CURVE"
);
},
{
closed = 1;
nodes = (
"290 1069 LINE",
"246 859 OFFCURVE",
"177 697 OFFCURVE",
"51 536 CURVE",
"99 413 OFFCURVE",
"121 306 OFFCURVE",
"121 150 CURVE SMOOTH",
"121 -15 OFFCURVE",
"92 -126 OFFCURVE",
"30 -266 CURVE",
"106 -293 LINE",
"174 -136 OFFCURVE",
"201 -22 OFFCURVE",
"201 157 CURVE SMOOTH",
"201 319 OFFCURVE",
"176 437 OFFCURVE",
"125 547 CURVE",
"130 498 LINE",
"252 668 OFFCURVE",
"323 828 OFFCURVE",
"370 1055 CURVE"
);
}
);
width = 520;
}
);
unicode = 1B18B;
},
{
color = 4;
glyphname = u1B18C;
lastChange = "2020-03-16 12:31:44 +0000";
layers = (
{
layerId = "CFFEBDE4-599A-46B2-9328-D96E42CD9C81";
paths = (
{
closed = 1;
nodes = (
"144 465 OFFCURVE",
"185 278 OFFCURVE",
"185 122 CURVE SMOOTH",
"185 -24 OFFCURVE",
"149 -138 OFFCURVE",
"42 -245 CURVE",
"99 -293 LINE",
"217 -182 OFFCURVE",
"268 -24 OFFCURVE",
"268 134 CURVE SMOOTH",
"268 287 OFFCURVE",
"225 480 OFFCURVE",
"145 676 CURVE",
"68 644 LINE"
);
},
{
closed = 1;
nodes = (
"428 281 OFFCURVE",
"374 455 OFFCURVE",
"374 632 CURVE SMOOTH",
"374 764 OFFCURVE",
"399 898 OFFCURVE",
"459 1048 CURVE",
"381 1069 LINE",
"319 921 OFFCURVE",
"291 782 OFFCURVE",
"291 635 CURVE SMOOTH",
"291 440 OFFCURVE",
"362 232 OFFCURVE",
"479 87 CURVE",
"543 138 LINE"
);
},
{
closed = 1;
nodes = (
"532 548 OFFCURVE",
"555 565 OFFCURVE",
"555 604 CURVE SMOOTH",
"555 643 OFFCURVE",
"532 660 OFFCURVE",
"504 660 CURVE SMOOTH",
"475 660 OFFCURVE",
"452 643 OFFCURVE",
"452 604 CURVE SMOOTH",
"452 565 OFFCURVE",
"475 548 OFFCURVE",
"504 548 CURVE SMOOTH"
);
},
{
closed = 1;
nodes = (
"100 106 OFFCURVE",
"123 123 OFFCURVE",
"123 162 CURVE SMOOTH",
"123 201 OFFCURVE",
"100 218 OFFCURVE",
"72 218 CURVE SMOOTH",
"43 218 OFFCURVE",
"20 201 OFFCURVE",
"20 162 CURVE SMOOTH",
"20 123 OFFCURVE",
"43 106 OFFCURVE",
"72 106 CURVE SMOOTH"
);
}
);
width = 575;
}
);
unicode = 1B18C;
},
{
color = 4;
glyphname = u1B18D;
lastChange = "2020-03-16 12:36:21 +0000";
layers = (
{
layerId = "CFFEBDE4-599A-46B2-9328-D96E42CD9C81";
paths = (
{
closed = 1;
nodes = (
"370 295 LINE",
"358 382 OFFCURVE",
"349 422 OFFCURVE",
"318 489 CURVE",
"244 459 LINE",
"280 384 OFFCURVE",
"294 336 OFFCURVE",
"311 259 CURVE",
"422 262 LINE",
"450 337 OFFCURVE",
"469 410 OFFCURVE",
"469 490 CURVE SMOOTH",
"469 606 OFFCURVE",
"428 697 OFFCURVE",
"295 831 CURVE",
"257 765 LINE",
"359 639 OFFCURVE",
"383 543 OFFCURVE",
"383 464 CURVE SMOOTH",
"383 396 OFFCURVE",
"375 349 OFFCURVE",
"356 286 CURVE"
);
},
{
closed = 1;
nodes = (
"284 1069 LINE",
"240 859 OFFCURVE",
"177 697 OFFCURVE",
"51 536 CURVE",
"99 413 OFFCURVE",
"121 306 OFFCURVE",
"121 150 CURVE SMOOTH",
"121 -15 OFFCURVE",
"92 -126 OFFCURVE",
"30 -266 CURVE",
"106 -293 LINE",
"174 -136 OFFCURVE",
"201 -22 OFFCURVE",
"201 157 CURVE SMOOTH",
"201 319 OFFCURVE",
"176 437 OFFCURVE",
"125 547 CURVE",
"130 498 LINE",
"252 668 OFFCURVE",
"317 828 OFFCURVE",
"364 1055 CURVE"
);
}
);
width = 499;
}
);
unicode = 1B18D;
},
{
color = 4;
glyphname = u1B18E;
lastChange = "2020-03-16 12:36:14 +0000";
layers = (
{
layerId = "CFFEBDE4-599A-46B2-9328-D96E42CD9C81";
paths = (
{
closed = 1;
nodes = (
"258 30 LINE",
"234 -64 OFFCURVE",
"196 -170 OFFCURVE",
"155 -252 CURVE",
"224 -281 LINE",
"266 -196 OFFCURVE",
"308 -78 OFFCURVE",
"331 11 CURVE"
);
},
{
closed = 1;
nodes = (
"337 1069 LINE",
"275 817 OFFCURVE",
"182 584 OFFCURVE",
"40 354 CURVE",
"109 311 LINE",
"247 536 OFFCURVE",
"345 782 OFFCURVE",
"418 1056 CURVE"
);
},
{
closed = 1;
nodes = (
"41 826 LINE",
"246 509 OFFCURVE",
"372 138 OFFCURVE",
"436 -293 CURVE",
"517 -283 LINE",
"453 187 OFFCURVE",
"301 567 OFFCURVE",
"107 871 CURVE"
);
},
{
closed = 1;
nodes = (
"275 411 LINE",
"222 290 OFFCURVE",
"161 181 OFFCURVE",
"70 49 CURVE",
"136 0 LINE",
"222 125 OFFCURVE",
"283 244 OFFCURVE",
"324 373 CURVE"
);
}
);
width = 557;
}
);
unicode = 1B18E;
},
{
color = 4;
glyphname = u1B18F;
lastChange = "2020-03-16 12:36:04 +0000";
layers = (
{
layerId = "CFFEBDE4-599A-46B2-9328-D96E42CD9C81";
paths = (
{
closed = 1;
nodes = (
"510 332 OFFCURVE",
"533 349 OFFCURVE",
"533 388 CURVE SMOOTH",
"533 427 OFFCURVE",
"510 444 OFFCURVE",
"482 444 CURVE SMOOTH",
"453 444 OFFCURVE",
"430 427 OFFCURVE",
"430 388 CURVE SMOOTH",
"430 349 OFFCURVE",
"453 332 OFFCURVE",
"482 332 CURVE SMOOTH"
);
},
{
closed = 1;
nodes = (
"100 191 OFFCURVE",
"123 208 OFFCURVE",
"123 247 CURVE SMOOTH",
"123 286 OFFCURVE",
"100 303 OFFCURVE",
"72 303 CURVE SMOOTH",
"43 303 OFFCURVE",
"20 286 OFFCURVE",
"20 247 CURVE SMOOTH",
"20 208 OFFCURVE",
"43 191 OFFCURVE",
"72 191 CURVE SMOOTH"
);
},
{
closed = 1;
nodes = (
"495 -273 LINE",
"401 81 OFFCURVE",
"288 368 OFFCURVE",
"100 631 CURVE",
"39 587 LINE",
"217 339 OFFCURVE",
"334 41 OFFCURVE",
"423 -293 CURVE"
);
},
{
closed = 1;
nodes = (
"366 1069 LINE",
"330 634 OFFCURVE",
"247 221 OFFCURVE",
"52 -190 CURVE",
"118 -221 LINE",
"317 180 OFFCURVE",
"403 605 OFFCURVE",
"441 1062 CURVE"
);
}
);
width = 553;
}
);
unicode = 1B18F;
},
{
color = 4;
glyphname = u1B190;
lastChange = "2020-03-16 12:35:56 +0000";
layers = (
{
layerId = "CFFEBDE4-599A-46B2-9328-D96E42CD9C81";
paths = (
{
closed = 1;
nodes = (
"221 -166 OFFCURVE",
"259 -225 OFFCURVE",
"334 -293 CURVE",
"405 -284 LINE",
"476 -173 OFFCURVE",
"506 -84 OFFCURVE",
"506 1 CURVE SMOOTH",
"506 70 OFFCURVE",
"469 127 OFFCURVE",
"389 190 CURVE",
"315 180 LINE",
"250 82 OFFCURVE",
"221 -14 OFFCURVE",
"221 -87 CURVE SMOOTH"
);
},
{
closed = 1;
nodes = (
"337 143 LINE",
"401 82 OFFCURVE",
"426 37 OFFCURVE",
"426 -5 CURVE SMOOTH",
"426 -75 OFFCURVE",
"404 -149 OFFCURVE",
"354 -233 CURVE",
"373 -233 LINE",
"326 -179 OFFCURVE",
"301 -130 OFFCURVE",
"301 -84 CURVE SMOOTH",
"301 -25 OFFCURVE",
"326 64 OFFCURVE",
"377 146 CURVE"
);
},
{
closed = 1;
nodes = (
"133 630 OFFCURVE",
"157 510 OFFCURVE",
"157 378 CURVE SMOOTH",
"157 252 OFFCURVE",
"115 141 OFFCURVE",
"35 51 CURVE",
"93 -2 LINE",
"199 114 OFFCURVE",
"240 233 OFFCURVE",
"240 385 CURVE SMOOTH",
"240 526 OFFCURVE",
"220 646 OFFCURVE",
"151 786 CURVE",
"77 754 LINE"
);
},
{
closed = 1;
nodes = (
"458 385 OFFCURVE",
"415 500 OFFCURVE",
"415 674 CURVE SMOOTH",
"415 795 OFFCURVE",
"438 906 OFFCURVE",
"497 1043 CURVE",
"422 1069 LINE",
"358 923 OFFCURVE",
"332 799 OFFCURVE",
"332 654 CURVE SMOOTH",
"332 480 OFFCURVE",
"392 324 OFFCURVE",
"510 219 CURVE",
"567 279 LINE"
);
}
);
width = 602;
}
);
unicode = 1B190;
},
{
color = 4;
glyphname = u1B191;
lastChange = "2020-03-16 12:35:46 +0000";
layers = (
{
layerId = "CFFEBDE4-599A-46B2-9328-D96E42CD9C81";
paths = (
{
closed = 1;
nodes = (
"435 325 LINE",
"338 200 OFFCURVE",
"219 103 OFFCURVE",
"72 19 CURVE",
"112 -51 LINE",
"268 40 OFFCURVE",
"379 132 OFFCURVE",
"494 269 CURVE"
);
},
{
closed = 1;
nodes = (
"330 1069 LINE",
"273 883 OFFCURVE",
"171 729 OFFCURVE",
"20 593 CURVE",
"77 531 LINE",
"243 671 OFFCURVE",
"348 835 OFFCURVE",
"408 1047 CURVE"
);
},
{
closed = 1;
nodes = (
"343 826 OFFCURVE",
"356 772 OFFCURVE",
"356 715 CURVE SMOOTH",
"356 574 OFFCURVE",
"273 452 OFFCURVE",
"29 297 CURVE",
"76 225 LINE",
"346 399 OFFCURVE",
"439 545 OFFCURVE",
"439 715 CURVE SMOOTH",
"439 800 OFFCURVE",
"416 858 OFFCURVE",
"360 933 CURVE",
"303 887 LINE"
);
},
{
closed = 1;
nodes = (
"228 372 LINE",
"242 279 OFFCURVE",
"248 200 OFFCURVE",
"248 78 CURVE SMOOTH",
"248 -59 OFFCURVE",
"239 -158 OFFCURVE",
"216 -276 CURVE",
"301 -293 LINE",
"327 -157 OFFCURVE",
"334 -64 OFFCURVE",
"334 85 CURVE SMOOTH",
"334 213 OFFCURVE",
"320 339 OFFCURVE",
"298 450 CURVE"
);
}
);
width = 524;
}
);
unicode = 1B191;
},
{
color = 4;
glyphname = u1B192;
lastChange = "2020-03-16 12:35:35 +0000";
layers = (
{
layerId = "CFFEBDE4-599A-46B2-9328-D96E42CD9C81";
paths = (
{
closed = 1;
nodes = (
"100 91 OFFCURVE",
"123 108 OFFCURVE",
"123 147 CURVE SMOOTH",
"123 186 OFFCURVE",
"100 203 OFFCURVE",
"72 203 CURVE SMOOTH",
"43 203 OFFCURVE",
"20 186 OFFCURVE",
"20 147 CURVE SMOOTH",
"20 108 OFFCURVE",
"43 91 OFFCURVE",
"72 91 CURVE SMOOTH"
);
},
{
closed = 1;
nodes = (
"327 1069 LINE",
"283 859 OFFCURVE",
"220 709 OFFCURVE",
"94 548 CURVE",
"159 409 OFFCURVE",
"184 306 OFFCURVE",
"184 157 CURVE SMOOTH",
"184 -29 OFFCURVE",
"146 -136 OFFCURVE",
"80 -260 CURVE",
"149 -293 LINE",
"223 -157 OFFCURVE",
"264 -22 OFFCURVE",
"264 157 CURVE SMOOTH",
"264 319 OFFCURVE",
"234 427 OFFCURVE",
"168 559 CURVE",
"173 510 LINE",
"295 680 OFFCURVE",
"360 828 OFFCURVE",
"407 1055 CURVE"
);
},
{
closed = 1;
nodes = (
"471 341 LINE",
"441 542 OFFCURVE",
"394 680 OFFCURVE",
"303 835 CURVE",
"265 741 LINE",
"335 617 OFFCURVE",
"368 514 OFFCURVE",
"393 324 CURVE"
);
}
);
width = 501;
}
);
unicode = 1B192;
},
{
color = 4;
glyphname = u1B193;
lastChange = "2020-03-16 12:35:27 +0000";
layers = (
{
layerId = "CFFEBDE4-599A-46B2-9328-D96E42CD9C81";
paths = (
{
closed = 1;
nodes = (
"339 380 OFFCURVE",
"362 397 OFFCURVE",
"362 436 CURVE SMOOTH",
"362 475 OFFCURVE",
"339 492 OFFCURVE",
"311 492 CURVE SMOOTH",
"282 492 OFFCURVE",
"259 475 OFFCURVE",
"259 436 CURVE SMOOTH",
"259 397 OFFCURVE",
"282 380 OFFCURVE",
"311 380 CURVE SMOOTH"
);
},
{
closed = 1;
nodes = (
"314 -264 LINE",
"291 -62 OFFCURVE",
"249 124 OFFCURVE",
"191 305 CURVE",
"108 279 LINE",
"169 97 OFFCURVE",
"210 -81 OFFCURVE",
"237 -280 CURVE",
"339 -293 LINE",
"475 -5 OFFCURVE",
"569 367 OFFCURVE",
"569 798 CURVE SMOOTH",
"569 903 OFFCURVE",
"567 972 OFFCURVE",
"560 1069 CURVE",
"476 1064 LINE",
"481 972 OFFCURVE",
"483 904 OFFCURVE",
"483 802 CURVE SMOOTH",
"483 378 OFFCURVE",
"403 6 OFFCURVE",
"261 -268 CURVE"
);
},
{
closed = 1;
nodes = (
"100 -101 OFFCURVE",
"123 -84 OFFCURVE",
"123 -45 CURVE SMOOTH",
"123 -6 OFFCURVE",
"100 11 OFFCURVE",
"72 11 CURVE SMOOTH",
"43 11 OFFCURVE",
"20 -6 OFFCURVE",
"20 -45 CURVE SMOOTH",
"20 -84 OFFCURVE",
"43 -101 OFFCURVE",
"72 -101 CURVE SMOOTH"
);
}
);
width = 599;
}
);
unicode = 1B193;
},
{
color = 4;
glyphname = u1B194;
lastChange = "2020-03-16 12:35:15 +0000";
layers = (
{
layerId = "CFFEBDE4-599A-46B2-9328-D96E42CD9C81";
paths = (
{
closed = 1;
nodes = (
"337 1069 LINE",
"275 817 OFFCURVE",
"182 604 OFFCURVE",
"40 374 CURVE",
"109 331 LINE",
"247 556 OFFCURVE",
"345 782 OFFCURVE",
"418 1056 CURVE"
);
},
{
closed = 1;
nodes = (
"41 826 LINE",
"246 509 OFFCURVE",
"352 138 OFFCURVE",
"416 -293 CURVE",
"497 -283 LINE",
"433 187 OFFCURVE",
"301 567 OFFCURVE",
"107 871 CURVE"
);
},
{
closed = 1;
nodes = (
"419 722 LINE",
"329 492 OFFCURVE",
"225 267 OFFCURVE",
"70 59 CURVE",
"132 16 LINE",
"286 223 OFFCURVE",
"399 453 OFFCURVE",
"491 689 CURVE"
);
},
{
closed = 1;
nodes = (
"346 172 LINE",
"293 51 OFFCURVE",
"232 -58 OFFCURVE",
"141 -190 CURVE",
"207 -239 LINE",
"293 -114 OFFCURVE",
"354 5 OFFCURVE",
"395 134 CURVE"
);
}
);
width = 557;
}
);
unicode = 1B194;
},
{
color = 4;
glyphname = u1B195;
lastChange = "2020-03-16 12:35:01 +0000";
layers = (
{
layerId = "CFFEBDE4-599A-46B2-9328-D96E42CD9C81";
paths = (
{
closed = 1;
nodes = (
"262 990 OFFCURVE",
"266 949 OFFCURVE",
"266 868 CURVE SMOOTH",
"266 578 OFFCURVE",
"201 353 OFFCURVE",
"30 127 CURVE",
"91 80 LINE",
"266 301 OFFCURVE",
"349 568 OFFCURVE",
"349 853 CURVE SMOOTH",
"349 940 OFFCURVE",
"345 997 OFFCURVE",
"335 1069 CURVE",
"253 1062 LINE"
);
},
{
closed = 1;
nodes = (
"253 457 LINE",
"280 309 OFFCURVE",
"288 187 OFFCURVE",
"288 14 CURVE SMOOTH",
"288 -107 OFFCURVE",
"276 -177 OFFCURVE",
"254 -282 CURVE",
"334 -293 LINE",
"362 -167 OFFCURVE",
"371 -96 OFFCURVE",
"371 40 CURVE SMOOTH",
"371 242 OFFCURVE",
"349 396 OFFCURVE",
"288 578 CURVE"
);
},
{
closed = 1;
nodes = (
"528 319 OFFCURVE",
"551 336 OFFCURVE",
"551 375 CURVE SMOOTH",
"551 414 OFFCURVE",
"528 431 OFFCURVE",
"500 431 CURVE SMOOTH",
"471 431 OFFCURVE",
"448 414 OFFCURVE",
"448 375 CURVE SMOOTH",
"448 336 OFFCURVE",
"471 319 OFFCURVE",
"500 319 CURVE SMOOTH"
);
},
{
closed = 1;
nodes = (
"121 606 OFFCURVE",
"144 623 OFFCURVE",
"144 662 CURVE SMOOTH",
"144 701 OFFCURVE",
"121 718 OFFCURVE",
"93 718 CURVE SMOOTH",
"64 718 OFFCURVE",
"41 701 OFFCURVE",
"41 662 CURVE SMOOTH",
"41 623 OFFCURVE",
"64 606 OFFCURVE",
"93 606 CURVE SMOOTH"
);
}
);
width = 581;
}
);
unicode = 1B195;
},
{
color = 4;
glyphname = u1B196;
lastChange = "2020-03-16 12:34:54 +0000";
layers = (
{
layerId = "CFFEBDE4-599A-46B2-9328-D96E42CD9C81";
paths = (
{
closed = 1;
nodes = (
"389 889 OFFCURVE",
"364 758 OFFCURVE",
"325 610 CURVE",
"304 563 LINE",
"241 347 OFFCURVE",
"173 150 OFFCURVE",
"96 -18 CURVE",
"168 -54 LINE",
"241 95 OFFCURVE",
"294 244 OFFCURVE",
"341 413 CURVE",
"375 476 LINE",
"422 647 OFFCURVE",
"435 724 OFFCURVE",
"480 1009 CURVE",
"452 1009 LINE",
"484 901 OFFCURVE",
"497 807 OFFCURVE",
"510 711 CURVE",
"595 727 LINE",
"577 848 OFFCURVE",
"547 967 OFFCURVE",
"503 1069 CURVE",
"416 1058 LINE"
);
},
{
closed = 1;
nodes = (
"311 525 OFFCURVE",
"383 184 OFFCURVE",
"434 -293 CURVE",
"516 -281 LINE",
"468 218 OFFCURVE",
"380 600 OFFCURVE",
"206 982 CURVE",
"127 969 LINE",
"103 771 OFFCURVE",
"73 624 OFFCURVE",
"30 480 CURVE",
"108 455 LINE",
"154 600 OFFCURVE",
"176 742 OFFCURVE",
"190 924 CURVE",
"153 921 LINE"
);
}
);
width = 627;
}
);
unicode = 1B196;
},
{
color = 4;
glyphname = u1B197;
lastChange = "2020-03-16 12:34:43 +0000";
layers = (
{
layerId = "CFFEBDE4-599A-46B2-9328-D96E42CD9C81";
paths = (
{
closed = 1;
nodes = (
"439 1069 LINE",
"341 752 OFFCURVE",
"218 531 OFFCURVE",
"20 316 CURVE",
"81 266 LINE",
"294 506 OFFCURVE",
"414 737 OFFCURVE",
"516 1054 CURVE"
);
},
{
closed = 1;
nodes = (
"538 202 LINE",
"443 10 OFFCURVE",
"342 -113 OFFCURVE",
"205 -240 CURVE",
"264 -293 LINE",
"412 -150 OFFCURVE",
"510 -37 OFFCURVE",
"612 164 CURVE"
);
},
{
closed = 1;
nodes = (
"451 -51 LINE",
"379 270 OFFCURVE",
"277 565 OFFCURVE",
"159 804 CURVE",
"83 759 LINE",
"210 515 OFFCURVE",
"312 219 OFFCURVE",
"384 -80 CURVE"
);
},
{
closed = 1;
nodes = (
"459 548 LINE",
"373 376 OFFCURVE",
"267 214 OFFCURVE",
"135 76 CURVE",
"195 20 LINE",
"327 158 OFFCURVE",
"440 336 OFFCURVE",
"533 510 CURVE"
);
}
);
width = 632;
}
);
unicode = 1B197;
},
{
color = 4;
glyphname = u1B198;
lastChange = "2020-03-16 12:34:37 +0000";
layers = (
{
layerId = "CFFEBDE4-599A-46B2-9328-D96E42CD9C81";
paths = (
{
closed = 1;
nodes = (
"266 359 OFFCURVE",
"297 279 OFFCURVE",
"357 219 CURVE",
"439 226 LINE",
"488 314 OFFCURVE",
"505 391 OFFCURVE",
"505 465 CURVE SMOOTH",
"505 584 OFFCURVE",
"452 700 OFFCURVE",
"326 831 CURVE",
"288 766 LINE",
"382 651 OFFCURVE",
"419 565 OFFCURVE",
"419 438 CURVE SMOOTH",
"419 363 OFFCURVE",
"407 307 OFFCURVE",
"382 252 CURVE",
"413 261 LINE",
"372 308 OFFCURVE",
"350 359 OFFCURVE",
"350 438 CURVE SMOOTH",
"350 504 OFFCURVE",
"363 569 OFFCURVE",
"401 650 CURVE",
"372 713 LINE",
"288 608 OFFCURVE",
"266 518 OFFCURVE",
"266 434 CURVE SMOOTH"
);
},
{
closed = 1;
nodes = (
"364 1069 LINE",
"289 872 OFFCURVE",
"192 697 OFFCURVE",
"51 536 CURVE",
"99 413 OFFCURVE",
"121 306 OFFCURVE",
"121 150 CURVE SMOOTH",
"121 -15 OFFCURVE",
"92 -126 OFFCURVE",
"30 -266 CURVE",
"106 -293 LINE",
"174 -136 OFFCURVE",
"201 -22 OFFCURVE",
"201 157 CURVE SMOOTH",
"201 319 OFFCURVE",
"176 437 OFFCURVE",
"125 547 CURVE",
"130 498 LINE",
"267 668 OFFCURVE",
"364 834 OFFCURVE",
"442 1048 CURVE"
);
}
);
width = 535;
}
);
unicode = 1B198;
},
{
color = 4;
glyphname = u1B199;
lastChange = "2020-03-16 12:34:29 +0000";
layers = (
{
layerId = "CFFEBDE4-599A-46B2-9328-D96E42CD9C81";
paths = (
{
closed = 1;
nodes = (
"247 417 LINE",
"217 102 OFFCURVE",
"173 -59 OFFCURVE",
"74 -260 CURVE",
"143 -293 LINE",
"250 -84 OFFCURVE",
"294 75 OFFCURVE",
"326 410 CURVE"
);
},
{
closed = 1;
nodes = (
"249 189 LINE",
"297 91 OFFCURVE",
"322 27 OFFCURVE",
"356 -71 CURVE SMOOTH",
"373 -123 OFFCURVE",
"390 -179 OFFCURVE",
"405 -241 CURVE",
"485 -218 LINE",
"433 -35 OFFCURVE",
"376 114 OFFCURVE",
"296 241 CURVE"
);
},
{
closed = 1;
nodes = (
"230 1069 LINE",
"202 729 OFFCURVE",
"144 560 OFFCURVE",
"30 369 CURVE",
"103 325 LINE",
"219 534 OFFCURVE",
"275 696 OFFCURVE",
"313 1062 CURVE"
);
},
{
closed = 1;
nodes = (
"223 812 LINE",
"277 711 OFFCURVE",
"309 653 OFFCURVE",
"337 596 CURVE SMOOTH",
"378 512 OFFCURVE",
"409 446 OFFCURVE",
"438 369 CURVE",
"515 408 LINE",
"441 584 OFFCURVE",
"368 732 OFFCURVE",
"270 870 CURVE"
);
}
);
width = 545;
}
);
unicode = 1B199;
},
{
color = 4;
glyphname = u1B19A;
lastChange = "2020-03-16 12:34:21 +0000";
layers = (
{
layerId = "CFFEBDE4-599A-46B2-9328-D96E42CD9C81";
paths = (
{
closed = 1;
nodes = (
"454 1069 LINE",
"396 719 OFFCURVE",
"323 513 OFFCURVE",
"158 301 CURVE",
"207 240 LINE",
"403 479 OFFCURVE",
"473 687 OFFCURVE",
"539 1052 CURVE"
);
},
{
closed = 1;
nodes = (
"105 672 OFFCURVE",
"120 523 OFFCURVE",
"120 379 CURVE SMOOTH",
"120 191 OFFCURVE",
"84 38 OFFCURVE",
"20 -120 CURVE",
"100 -153 LINE",
"170 14 OFFCURVE",
"206 171 OFFCURVE",
"206 383 CURVE SMOOTH",
"206 545 OFFCURVE",
"190 694 OFFCURVE",
"140 861 CURVE",
"56 836 LINE"
);
},
{
closed = 1;
nodes = (
"393 -293 LINE",
"489 -111 OFFCURVE",
"540 40 OFFCURVE",
"574 224 CURVE",
"487 243 LINE",
"461 75 OFFCURVE",
"414 -70 OFFCURVE",
"348 -227 CURVE",
"372 -245 LINE",
"349 -42 OFFCURVE",
"306 122 OFFCURVE",
"221 323 CURVE",
"158 277 LINE",
"225 85 OFFCURVE",
"268 -66 OFFCURVE",
"297 -272 CURVE"
);
}
);
width = 604;
}
);
unicode = 1B19A;
},
{
color = 4;
glyphname = u1B19B;
lastChange = "2020-03-16 12:34:12 +0000";
layers = (
{
layerId = "CFFEBDE4-599A-46B2-9328-D96E42CD9C81";
paths = (
{
closed = 1;
nodes = (
"100 24 OFFCURVE",
"123 41 OFFCURVE",
"123 80 CURVE SMOOTH",
"123 119 OFFCURVE",
"100 136 OFFCURVE",
"72 136 CURVE SMOOTH",
"43 136 OFFCURVE",
"20 119 OFFCURVE",
"20 80 CURVE SMOOTH",
"20 41 OFFCURVE",
"43 24 OFFCURVE",
"72 24 CURVE SMOOTH"
);
},
{
closed = 1;
nodes = (
"156 243 OFFCURVE",
"179 260 OFFCURVE",
"179 299 CURVE SMOOTH",
"179 338 OFFCURVE",
"156 355 OFFCURVE",
"128 355 CURVE SMOOTH",
"99 355 OFFCURVE",
"76 338 OFFCURVE",
"76 299 CURVE SMOOTH",
"76 260 OFFCURVE",
"99 243 OFFCURVE",
"128 243 CURVE SMOOTH"
);
},
{
closed = 1;
nodes = (
"558 -273 LINE",
"464 81 OFFCURVE",
"331 438 OFFCURVE",
"143 721 CURVE",
"82 677 LINE",
"260 409 OFFCURVE",
"397 41 OFFCURVE",
"486 -293 CURVE"
);
},
{
closed = 1;
nodes = (
"409 1069 LINE",
"373 634 OFFCURVE",
"300 221 OFFCURVE",
"105 -190 CURVE",
"171 -221 LINE",
"370 180 OFFCURVE",
"446 605 OFFCURVE",
"484 1062 CURVE"
);
}
);
width = 588;
}
);
unicode = 1B19B;
},
{
color = 4;
glyphname = u1B19C;
lastChange = "2020-03-16 12:34:01 +0000";
layers = (
{
layerId = "CFFEBDE4-599A-46B2-9328-D96E42CD9C81";
paths = (
{
closed = 1;
nodes = (
"482 371 LINE",
"421 281 OFFCURVE",
"397 181 OFFCURVE",
"397 85 CURVE SMOOTH",
"397 -31 OFFCURVE",
"427 -115 OFFCURVE",
"490 -176 CURVE",
"554 -123 LINE",
"497 -62 OFFCURVE",
"480 0 OFFCURVE",
"480 85 CURVE SMOOTH",
"480 163 OFFCURVE",
"501 250 OFFCURVE",
"555 330 CURVE"
);
},
{
closed = 1;
nodes = (
"160 -293 LINE",
"194 -225 OFFCURVE",
"205 -166 OFFCURVE",
"205 -87 CURVE SMOOTH",
"205 25 OFFCURVE",
"171 114 OFFCURVE",
"88 203 CURVE",
"30 146 LINE",
"99 77 OFFCURVE",
"122 2 OFFCURVE",
"122 -76 CURVE SMOOTH",
"122 -157 OFFCURVE",
"111 -205 OFFCURVE",
"79 -268 CURVE"
);
},
{
closed = 1;
nodes = (
"452 1069 LINE",
"417 763 OFFCURVE",
"343 488 OFFCURVE",
"237 210 CURVE",
"277 214 LINE",
"255 395 OFFCURVE",
"214 520 OFFCURVE",
"152 674 CURVE",
"75 642 LINE",
"139 487 OFFCURVE",
"176 376 OFFCURVE",
"207 198 CURVE",
"309 185 LINE",
"418 462 OFFCURVE",
"495 736 OFFCURVE",
"538 1063 CURVE"
);
}
);
width = 594;
}
);
unicode = 1B19C;
},
{
color = 4;
glyphname = u1B19D;
lastChange = "2020-03-16 12:33:21 +0000";
layers = (
{
layerId = "CFFEBDE4-599A-46B2-9328-D96E42CD9C81";
paths = (
{
closed = 1;
nodes = (
"379 486 LINE",
"331 272 OFFCURVE",
"231 33 OFFCURVE",
"115 -128 CURVE",
"180 -175 LINE",
"300 -4 OFFCURVE",
"402 242 OFFCURVE",
"456 462 CURVE"
);
},
{
closed = 1;
nodes = (
"169 344 LINE",
"318 124 OFFCURVE",
"387 -40 OFFCURVE",
"437 -293 CURVE",
"512 -273 LINE",
"452 11 OFFCURVE",
"377 167 OFFCURVE",
"234 386 CURVE"
);
},
{
closed = 1;
nodes = (
"282 1069 LINE",
"234 729 OFFCURVE",
"144 506 OFFCURVE",
"20 315 CURVE",
"93 271 LINE",
"219 480 OFFCURVE",
"306 691 OFFCURVE",
"364 1057 CURVE"
);
},
{
closed = 1;
nodes = (
"256 797 LINE",
"321 702 OFFCURVE",
"359 648 OFFCURVE",
"393 595 CURVE SMOOTH",
"443 516 OFFCURVE",
"504 418 OFFCURVE",
"541 345 CURVE",
"614 392 LINE",
"520 575 OFFCURVE",
"409 733 OFFCURVE",
"297 860 CURVE"
);
}
);
width = 634;
}
);
unicode = 1B19D;
},
{
color = 4;
glyphname = u1B19E;
lastChange = "2020-03-16 12:33:14 +0000";
layers = (
{
layerId = "CFFEBDE4-599A-46B2-9328-D96E42CD9C81";
paths = (
{
closed = 1;
nodes = (
"394 1069 LINE",
"299 752 OFFCURVE",
"183 533 OFFCURVE",
"20 366 CURVE",
"81 316 LINE",
"260 506 OFFCURVE",
"370 734 OFFCURVE",
"472 1051 CURVE"
);
},
{
closed = 1;
nodes = (
"495 607 LINE",
"377 397 OFFCURVE",
"240 208 OFFCURVE",
"75 39 CURVE",
"132 -20 LINE",
"279 127 OFFCURVE",
"444 345 OFFCURVE",
"567 566 CURVE"
);
},
{
closed = 1;
nodes = (
"347 -293 LINE",
"458 -155 OFFCURVE",
"520 -41 OFFCURVE",
"586 119 CURVE",
"510 147 LINE",
"450 -1 OFFCURVE",
"401 -90 OFFCURVE",
"319 -222 CURVE",
"334 -224 LINE",
"360 -69 OFFCURVE",
"367 0 OFFCURVE",
"367 144 CURVE SMOOTH",
"367 304 OFFCURVE",
"346 462 OFFCURVE",
"284 667 CURVE",
"230 576 LINE",
"269 411 OFFCURVE",
"284 272 OFFCURVE",
"284 117 CURVE SMOOTH",
"284 -62 OFFCURVE",
"277 -127 OFFCURVE",
"258 -266 CURVE"
);
}
);
width = 606;
}
);
unicode = 1B19E;
},
{
color = 4;
glyphname = u1B19F;
lastChange = "2020-03-16 12:33:03 +0000";
layers = (
{
layerId = "CFFEBDE4-599A-46B2-9328-D96E42CD9C81";
paths = (
{
closed = 1;
nodes = (
"30 287 LINE",
"70 195 OFFCURVE",
"91 84 OFFCURVE",
"103 -24 CURVE",
"178 -12 LINE",
"169 111 OFFCURVE",
"144 222 OFFCURVE",
"102 316 CURVE"
);
},
{
closed = 1;
nodes = (
"124 419 LINE",
"239 271 OFFCURVE",
"340 119 OFFCURVE",
"448 -66 CURVE",
"515 -27 LINE",
"401 166 OFFCURVE",
"300 317 OFFCURVE",
"174 483 CURVE",
"178 425 LINE",
"284 638 OFFCURVE",
"345 817 OFFCURVE",
"393 1058 CURVE",
"315 1069 LINE",
"269 845 OFFCURVE",
"207 657 OFFCURVE",
"124 490 CURVE"
);
},
{
closed = 1;
nodes = (
"330 697 OFFCURVE",
"356 583 OFFCURVE",
"356 454 CURVE SMOOTH",
"356 217 OFFCURVE",
"307 32 OFFCURVE",
"115 -253 CURVE",
"179 -293 LINE",
"376 -12 OFFCURVE",
"442 207 OFFCURVE",
"442 454 CURVE SMOOTH",
"442 618 OFFCURVE",
"401 739 OFFCURVE",
"315 878 CURVE",
"280 800 LINE"
);
}
);
width = 545;
}
);
unicode = 1B19F;
},
{
color = 4;
glyphname = u1B1A0;
lastChange = "2020-03-16 12:32:52 +0000";
layers = (
{
layerId = "CFFEBDE4-599A-46B2-9328-D96E42CD9C81";
paths = (
{
closed = 1;
nodes = (
"349 401 LINE",
"415 610 OFFCURVE",
"447 768 OFFCURVE",
"480 1009 CURVE",
"446 1009 LINE",
"480 909 OFFCURVE",
"521 765 OFFCURVE",
"542 639 CURVE",
"629 655 LINE",
"603 793 OFFCURVE",
"557 945 OFFCURVE",
"504 1069 CURVE",
"403 1059 LINE",
"377 839 OFFCURVE",
"345 672 OFFCURVE",
"295 490 CURVE"
);
},
{
closed = 1;
nodes = (
"365 520 OFFCURVE",
"306 735 OFFCURVE",
"195 909 CURVE",
"112 893 LINE",
"91 715 OFFCURVE",
"64 565 OFFCURVE",
"20 414 CURVE",
"102 391 LINE",
"149 558 OFFCURVE",
"171 696 OFFCURVE",
"182 854 CURVE",
"135 851 LINE",
"236 682 OFFCURVE",
"280 520 OFFCURVE",
"280 275 CURVE SMOOTH",
"280 55 OFFCURVE",
"258 -77 OFFCURVE",
"182 -267 CURVE",
"258 -293 LINE",
"336 -97 OFFCURVE",
"365 52 OFFCURVE",
"365 297 CURVE SMOOTH"
);
}
);
width = 649;
}
);
unicode = 1B1A0;
},
{
color = 4;
glyphname = u1B1A1;
lastChange = "2020-03-16 12:32:43 +0000";
layers = (
{
layerId = "CFFEBDE4-599A-46B2-9328-D96E42CD9C81";
paths = (
{
closed = 1;
nodes = (
"301 -293 LINE",
"415 -162 OFFCURVE",
"493 -8 OFFCURVE",
"556 181 CURVE",
"480 209 LINE",
"429 50 OFFCURVE",
"364 -85 OFFCURVE",
"273 -222 CURVE",
"288 -224 LINE",
"332 -52 OFFCURVE",
"351 46 OFFCURVE",
"351 226 CURVE SMOOTH",
"351 343 OFFCURVE",
"334 444 OFFCURVE",
"288 625 CURVE",
"253 487 LINE",
"263 372 OFFCURVE",
"268 303 OFFCURVE",
"268 195 CURVE SMOOTH",
"268 46 OFFCURVE",
"250 -85 OFFCURVE",
"212 -266 CURVE"
);
},
{
closed = 1;
nodes = (
"306 1069 LINE",
"266 716 OFFCURVE",
"189 440 OFFCURVE",
"30 127 CURVE",
"95 90 LINE",
"276 421 OFFCURVE",
"341 704 OFFCURVE",
"387 1055 CURVE"
);
},
{
closed = 1;
nodes = (
"112 556 OFFCURVE",
"135 573 OFFCURVE",
"135 612 CURVE SMOOTH",
"135 651 OFFCURVE",
"112 668 OFFCURVE",
"84 668 CURVE SMOOTH",
"55 668 OFFCURVE",
"32 651 OFFCURVE",
"32 612 CURVE SMOOTH",
"32 573 OFFCURVE",
"55 556 OFFCURVE",
"84 556 CURVE SMOOTH"
);
}
);
width = 576;
}
);
unicode = 1B1A1;
},
{
color = 4;
glyphname = u1B1A2;
lastChange = "2020-03-16 12:32:31 +0000";
layers = (
{
layerId = "CFFEBDE4-599A-46B2-9328-D96E42CD9C81";
paths = (
{
closed = 1;
nodes = (
"304 -239 LINE",
"258 -20 OFFCURVE",
"199 181 OFFCURVE",
"103 440 CURVE",
"30 409 LINE",
"109 185 OFFCURVE",
"189 -52 OFFCURVE",
"239 -279 CURVE",
"318 -293 LINE",
"466 -24 OFFCURVE",
"563 272 OFFCURVE",
"625 605 CURVE",
"543 616 LINE",
"484 291 OFFCURVE",
"385 1 OFFCURVE",
"267 -239 CURVE"
);
},
{
closed = 1;
nodes = (
"383 1069 LINE",
"338 717 OFFCURVE",
"262 407 OFFCURVE",
"154 87 CURVE",
"211 19 LINE",
"329 367 OFFCURVE",
"417 704 OFFCURVE",
"466 1059 CURVE"
);
},
{
closed = 1;
nodes = (
"84 844 LINE",
"211 605 OFFCURVE",
"331 311 OFFCURVE",
"419 29 CURVE",
"476 98 LINE",
"383 406 OFFCURVE",
"280 642 OFFCURVE",
"156 886 CURVE"
);
}
);
width = 655;
}
);
unicode = 1B1A2;
},
{
color = 4;
glyphname = u1B1A3;
lastChange = "2020-03-16 12:32:24 +0000";
layers = (
{
layerId = "CFFEBDE4-599A-46B2-9328-D96E42CD9C81";
paths = (
{
closed = 1;
nodes = (
"183 -293 LINE",
"320 -99 OFFCURVE",
"383 45 OFFCURVE",
"383 273 CURVE SMOOTH",
"383 472 OFFCURVE",
"337 634 OFFCURVE",
"238 794 CURVE",
"191 734 LINE",
"265 595 OFFCURVE",
"307 472 OFFCURVE",
"307 261 CURVE SMOOTH",
"307 68 OFFCURVE",
"256 -62 OFFCURVE",
"119 -248 CURVE"
);
},
{
closed = 1;
nodes = (
"344 1069 LINE",
"254 857 OFFCURVE",
"152 724 OFFCURVE",
"20 608 CURVE",
"73 548 LINE",
"206 661 OFFCURVE",
"322 815 OFFCURVE",
"423 1039 CURVE"
);
},
{
closed = 1;
nodes = (
"438 764 LINE",
"352 604 OFFCURVE",
"221 458 OFFCURVE",
"86 361 CURVE",
"131 293 LINE",
"297 423 OFFCURVE",
"415 555 OFFCURVE",
"509 728 CURVE"
);
},
{
closed = 1;
nodes = (
"86 103 LINE",
"215 19 OFFCURVE",
"342 -86 OFFCURVE",
"433 -193 CURVE",
"489 -136 LINE",
"382 -16 OFFCURVE",
"269 80 OFFCURVE",
"132 172 CURVE"
);
}
);
width = 529;
}
);
unicode = 1B1A3;
},
{
color = 4;
glyphname = u1B1A4;
lastChange = "2020-03-16 12:32:11 +0000";
layers = (
{
layerId = "CFFEBDE4-599A-46B2-9328-D96E42CD9C81";
paths = (
{
closed = 1;
nodes = (
"169 405 OFFCURVE",
"274 289 OFFCURVE",
"370 171 CURVE",
"370 229 LINE",
"293 36 OFFCURVE",
"225 -88 OFFCURVE",
"126 -251 CURVE",
"195 -293 LINE",
"300 -124 OFFCURVE",
"370 5 OFFCURVE",
"451 208 CURVE",
"343 344 OFFCURVE",
"242 445 OFFCURVE",
"117 568 CURVE",
"117 531 LINE",
"187 668 OFFCURVE",
"258 837 OFFCURVE",
"323 1047 CURVE",
"241 1069 LINE",
"180 870 OFFCURVE",
"125 730 OFFCURVE",
"30 536 CURVE"
);
},
{
closed = 1;
nodes = (
"350 685 LINE",
"259 487 OFFCURVE",
"148 298 OFFCURVE",
"38 135 CURVE",
"100 87 LINE",
"225 270 OFFCURVE",
"332 451 OFFCURVE",
"420 652 CURVE"
);
}
);
width = 481;
}
);
unicode = 1B1A4;
},
{
color = 4;
glyphname = u1B1A5;
lastChange = "2020-03-16 12:32:05 +0000";
layers = (
{
layerId = "CFFEBDE4-599A-46B2-9328-D96E42CD9C81";
paths = (
{
closed = 1;
nodes = (
"446 792 LINE",
"369 593 OFFCURVE",
"276 431 OFFCURVE",
"139 266 CURVE",
"176 198 LINE",
"327 370 OFFCURVE",
"436 555 OFFCURVE",
"517 761 CURVE"
);
},
{
closed = 1;
nodes = (
"207 733 LINE",
"321 504 OFFCURVE",
"362 294 OFFCURVE",
"382 24 CURVE",
"462 32 LINE",
"445 326 OFFCURVE",
"380 572 OFFCURVE",
"265 798 CURVE"
);
},
{
closed = 1;
nodes = (
"294 1069 LINE",
"250 859 OFFCURVE",
"177 697 OFFCURVE",
"51 536 CURVE",
"99 413 OFFCURVE",
"121 306 OFFCURVE",
"121 150 CURVE SMOOTH",
"121 -15 OFFCURVE",
"102 -126 OFFCURVE",
"40 -266 CURVE",
"116 -293 LINE",
"184 -136 OFFCURVE",
"201 -22 OFFCURVE",
"201 157 CURVE SMOOTH",
"201 319 OFFCURVE",
"176 437 OFFCURVE",
"125 547 CURVE",
"130 498 LINE",
"252 668 OFFCURVE",
"327 828 OFFCURVE",
"374 1055 CURVE"
);
}
);
width = 547;
}
);
unicode = 1B1A5;
},
{
color = 4;
glyphname = u1B1A6;
lastChange = "2020-03-16 12:31:57 +0000";
layers = (
{
layerId = "CFFEBDE4-599A-46B2-9328-D96E42CD9C81";
paths = (
{
closed = 1;
nodes = (
"367 1068 LINE",
"297 795 OFFCURVE",
"172 450 OFFCURVE",
"20 154 CURVE",
"90 118 LINE",
"240 422 OFFCURVE",
"367 761 OFFCURVE",
"446 1052 CURVE"
);
},
{
closed = 1;
nodes = (
"112 947 LINE",
"276 634 OFFCURVE",
"411 279 OFFCURVE",
"514 -44 CURVE",
"590 -15 LINE",
"474 337 OFFCURVE",
"344 661 OFFCURVE",
"183 981 CURVE"
);
},
{
closed = 1;
nodes = (
"488 794 LINE",
"388 498 OFFCURVE",
"249 124 OFFCURVE",
"80 -188 CURVE",
"148 -227 LINE",
"299 62 OFFCURVE",
"456 467 OFFCURVE",
"561 769 CURVE"
);
},
{
closed = 1;
nodes = (
"27 663 LINE",
"184 335 OFFCURVE",
"306 39 OFFCURVE",
"406 -293 CURVE",
"481 -266 LINE",
"371 99 OFFCURVE",
"249 365 OFFCURVE",
"97 701 CURVE"
);
}
);
width = 610;
}
);
unicode = 1B1A6;
},
{
color = 4;
glyphname = u1B1A7;
lastChange = "2020-03-16 12:31:51 +0000";
layers = (
{
layerId = "CFFEBDE4-599A-46B2-9328-D96E42CD9C81";
paths = (
{
closed = 1;
nodes = (
"439 1069 LINE",
"344 752 OFFCURVE",
"217 533 OFFCURVE",
"20 316 CURVE",
"81 266 LINE",
"294 506 OFFCURVE",
"415 734 OFFCURVE",
"517 1051 CURVE"
);
},
{
closed = 1;
nodes = (
"538 202 LINE",
"443 10 OFFCURVE",
"352 -113 OFFCURVE",
"215 -240 CURVE",
"274 -293 LINE",
"422 -150 OFFCURVE",
"510 -37 OFFCURVE",
"612 164 CURVE"
);
},
{
closed = 1;
nodes = (
"207 487 LINE",
"277 308 OFFCURVE",
"337 115 OFFCURVE",
"384 -80 CURVE",
"451 -51 LINE",
"402 167 OFFCURVE",
"339 374 OFFCURVE",
"267 559 CURVE"
);
},
{
closed = 1;
nodes = (
"459 548 LINE",
"373 376 OFFCURVE",
"267 214 OFFCURVE",
"135 76 CURVE",
"195 20 LINE",
"327 158 OFFCURVE",
"440 336 OFFCURVE",
"533 510 CURVE"
);
}
);
width = 632;
}
);
unicode = 1B1A7;
},
{
color = 4;
glyphname = u1B1A8;
lastChange = "2020-03-16 12:36:39 +0000";
layers = (
{
layerId = "CFFEBDE4-599A-46B2-9328-D96E42CD9C81";
paths = (
{
closed = 1;
nodes = (
"160 -74 OFFCURVE",
"183 -57 OFFCURVE",
"183 -18 CURVE SMOOTH",
"183 21 OFFCURVE",
"160 38 OFFCURVE",
"132 38 CURVE SMOOTH",
"103 38 OFFCURVE",
"80 21 OFFCURVE",
"80 -18 CURVE SMOOTH",
"80 -57 OFFCURVE",
"103 -74 OFFCURVE",
"132 -74 CURVE SMOOTH"
);
},
{
closed = 1;
nodes = (
"532 259 OFFCURVE",
"555 276 OFFCURVE",
"555 315 CURVE SMOOTH",
"555 354 OFFCURVE",
"532 371 OFFCURVE",
"504 371 CURVE SMOOTH",
"475 371 OFFCURVE",
"452 354 OFFCURVE",
"452 315 CURVE SMOOTH",
"452 276 OFFCURVE",
"475 259 OFFCURVE",
"504 259 CURVE SMOOTH"
);
},
{
closed = 1;
nodes = (
"217 649 LINE",
"257 525 OFFCURVE",
"272 329 OFFCURVE",
"272 126 CURVE SMOOTH",
"272 -21 OFFCURVE",
"264 -113 OFFCURVE",
"232 -282 CURVE",
"311 -293 LINE",
"341 -124 OFFCURVE",
"352 -8 OFFCURVE",
"352 164 CURVE SMOOTH",
"352 367 OFFCURVE",
"322 579 OFFCURVE",
"269 717 CURVE"
);
},
{
closed = 1;
nodes = (
"385 1069 LINE",
"294 832 OFFCURVE",
"200 655 OFFCURVE",
"20 480 CURVE",
"75 424 LINE",
"258 605 OFFCURVE",
"367 811 OFFCURVE",
"459 1046 CURVE"
);
},
{
closed = 1;
nodes = (
"490 753 LINE",
"366 531 OFFCURVE",
"226 366 OFFCURVE",
"51 208 CURVE",
"100 148 LINE",
"269 304 OFFCURVE",
"415 474 OFFCURVE",
"555 712 CURVE"
);
}
);
width = 575;
}
);
unicode = 1B1A8;
},
{
color = 4;
glyphname = u1B1A9;
lastChange = "2020-03-16 12:36:56 +0000";
layers = (
{
layerId = "CFFEBDE4-599A-46B2-9328-D96E42CD9C81";
paths = (
{
closed = 1;
nodes = (
"308 151 LINE",
"308 224 OFFCURVE",
"297 344 OFFCURVE",
"269 441 CURVE",
"202 385 LINE",
"223 289 OFFCURVE",
"231 203 OFFCURVE",
"231 96 CURVE"
);
},
{
closed = 1;
nodes = (
"421 374 LINE",
"311 219 OFFCURVE",
"183 102 OFFCURVE",
"33 12 CURVE",
"76 -55 LINE",
"240 41 OFFCURVE",
"361 157 OFFCURVE",
"485 323 CURVE"
);
},
{
closed = 1;
nodes = (
"381 173 OFFCURVE",
"391 126 OFFCURVE",
"391 84 CURVE SMOOTH",
"391 -6 OFFCURVE",
"319 -92 OFFCURVE",
"75 -226 CURVE",
"112 -293 LINE",
"376 -154 OFFCURVE",
"470 -53 OFFCURVE",
"470 88 CURVE SMOOTH",
"470 152 OFFCURVE",
"450 208 OFFCURVE",
"413 262 CURVE",
"358 221 LINE"
);
},
{
closed = 1;
nodes = (
"322 1069 LINE",
"264 901 OFFCURVE",
"175 746 OFFCURVE",
"20 627 CURVE",
"77 565 LINE",
"247 697 OFFCURVE",
"339 853 OFFCURVE",
"400 1047 CURVE"
);
},
{
closed = 1;
nodes = (
"335 842 OFFCURVE",
"351 794 OFFCURVE",
"351 737 CURVE SMOOTH",
"351 610 OFFCURVE",
"273 502 OFFCURVE",
"29 347 CURVE",
"76 275 LINE",
"324 435 OFFCURVE",
"434 565 OFFCURVE",
"434 727 CURVE SMOOTH",
"434 822 OFFCURVE",
"408 874 OFFCURVE",
"352 949 CURVE",
"295 903 LINE"
);
}
);
width = 515;
}
);
unicode = 1B1A9;
},
{
color = 4;
glyphname = u1B1AA;
lastChange = "2020-03-16 12:37:03 +0000";
layers = (
{
layerId = "CFFEBDE4-599A-46B2-9328-D96E42CD9C81";
paths = (
{
closed = 1;
nodes = (
"425 1069 LINE",
"366 889 OFFCURVE",
"267 742 OFFCURVE",
"102 591 CURVE",
"156 527 LINE",
"342 684 OFFCURVE",
"437 834 OFFCURVE",
"504 1049 CURVE"
);
},
{
closed = 1;
nodes = (
"435 829 OFFCURVE",
"449 773 OFFCURVE",
"449 714 CURVE SMOOTH",
"449 597 OFFCURVE",
"374 495 OFFCURVE",
"170 357 CURVE",
"221 287 LINE",
"438 435 OFFCURVE",
"532 561 OFFCURVE",
"532 714 CURVE SMOOTH",
"532 808 OFFCURVE",
"506 874 OFFCURVE",
"453 949 CURVE",
"391 893 LINE"
);
},
{
closed = 1;
nodes = (
"360 421 LINE",
"380 297 OFFCURVE",
"386 198 OFFCURVE",
"386 79 CURVE SMOOTH",
"386 -71 OFFCURVE",
"375 -165 OFFCURVE",
"358 -283 CURVE",
"443 -293 LINE",
"461 -165 OFFCURVE",
"472 -76 OFFCURVE",
"472 89 CURVE SMOOTH",
"472 225 OFFCURVE",
"461 347 OFFCURVE",
"430 499 CURVE"
);
},
{
closed = 1;
nodes = (
"40 -82 OFFCURVE",
"71 -130 OFFCURVE",
"133 -175 CURVE",
"204 -166 LINE",
"254 -88 OFFCURVE",
"285 -2 OFFCURVE",
"285 69 CURVE SMOOTH",
"285 119 OFFCURVE",
"254 166 OFFCURVE",
"188 218 CURVE",
"114 208 LINE",
"64 126 OFFCURVE",
"40 43 OFFCURVE",
"40 -25 CURVE SMOOTH"
);
},
{
closed = 1;
nodes = (
"141 171 LINE",
"188 126 OFFCURVE",
"205 92 OFFCURVE",
"205 63 CURVE SMOOTH",
"205 15 OFFCURVE",
"192 -47 OFFCURVE",
"153 -128 CURVE",
"177 -128 LINE",
"134 -83 OFFCURVE",
"120 -55 OFFCURVE",
"120 -16 CURVE SMOOTH",
"120 32 OFFCURVE",
"137 100 OFFCURVE",
"176 174 CURVE"
);
}
);
width = 562;
}
);
unicode = 1B1AA;
},
{
color = 4;
glyphname = u1B1AB;
lastChange = "2020-03-16 12:37:12 +0000";
layers = (
{
layerId = "CFFEBDE4-599A-46B2-9328-D96E42CD9C81";
paths = (
{
closed = 1;
nodes = (
"282 1069 LINE",
"282 526 OFFCURVE",
"258 361 OFFCURVE",
"196 109 CURVE",
"275 83 LINE",
"342 350 OFFCURVE",
"362 516 OFFCURVE",
"362 1064 CURVE"
);
},
{
closed = 1;
nodes = (
"303 650 LINE",
"358 569 OFFCURVE",
"399 484 OFFCURVE",
"450 335 CURVE",
"528 367 LINE",
"468 530 OFFCURVE",
"420 613 OFFCURVE",
"350 725 CURVE"
);
},
{
closed = 1;
nodes = (
"346 784 OFFCURVE",
"216 666 OFFCURVE",
"33 551 CURVE",
"65 399 OFFCURVE",
"78 259 OFFCURVE",
"78 126 CURVE SMOOTH",
"78 -42 OFFCURVE",
"71 -131 OFFCURVE",
"36 -276 CURVE",
"113 -293 LINE",
"151 -157 OFFCURVE",
"161 -49 OFFCURVE",
"161 142 CURVE SMOOTH",
"161 271 OFFCURVE",
"152 387 OFFCURVE",
"115 565 CURVE",
"95 492 LINE",
"271 606 OFFCURVE",
"392 714 OFFCURVE",
"534 866 CURVE",
"497 884 LINE",
"525 755 OFFCURVE",
"542 632 OFFCURVE",
"542 470 CURVE SMOOTH",
"542 354 OFFCURVE",
"536 261 OFFCURVE",
"516 121 CURVE",
"600 114 LINE",
"618 235 OFFCURVE",
"629 354 OFFCURVE",
"629 492 CURVE SMOOTH",
"629 638 OFFCURVE",
"613 782 OFFCURVE",
"580 925 CURVE",
"488 942 LINE"
);
}
);
width = 659;
}
);
unicode = 1B1AB;
},
{
color = 4;
glyphname = u1B1AC;
lastChange = "2020-03-16 12:37:27 +0000";
layers = (
{
layerId = "CFFEBDE4-599A-46B2-9328-D96E42CD9C81";
paths = (
{
closed = 1;
nodes = (
"153 279 LINE",
"135 157 OFFCURVE",
"110 43 OFFCURVE",
"73 -63 CURVE",
"148 -92 LINE",
"185 16 OFFCURVE",
"216 141 OFFCURVE",
"234 261 CURVE"
);
},
{
closed = 1;
nodes = (
"20 138 LINE",
"102 99 OFFCURVE",
"188 44 OFFCURVE",
"246 -2 CURVE",
"289 69 LINE",
"224 120 OFFCURVE",
"138 171 OFFCURVE",
"51 212 CURVE"
);
},
{
closed = 1;
nodes = (
"169 419 LINE",
"284 271 OFFCURVE",
"385 119 OFFCURVE",
"493 -66 CURVE",
"560 -27 LINE",
"446 166 OFFCURVE",
"345 317 OFFCURVE",
"219 483 CURVE",
"223 425 LINE",
"329 638 OFFCURVE",
"393 817 OFFCURVE",
"441 1058 CURVE",
"363 1069 LINE",
"317 845 OFFCURVE",
"252 657 OFFCURVE",
"169 490 CURVE"
);
},
{
closed = 1;
nodes = (
"375 697 OFFCURVE",
"401 583 OFFCURVE",
"401 454 CURVE SMOOTH",
"401 164 OFFCURVE",
"325 -31 OFFCURVE",
"115 -246 CURVE",
"174 -293 LINE",
"394 -82 OFFCURVE",
"487 173 OFFCURVE",
"487 454 CURVE SMOOTH",
"487 618 OFFCURVE",
"446 739 OFFCURVE",
"360 878 CURVE",
"325 800 LINE"
);
}
);
width = 590;
}
);
unicode = 1B1AC;
},
{
color = 4;
glyphname = u1B1AD;
lastChange = "2020-03-16 12:37:47 +0000";
layers = (
{
layerId = "CFFEBDE4-599A-46B2-9328-D96E42CD9C81";
paths = (
{
closed = 1;
nodes = (
"300 566 LINE",
"244 422 OFFCURVE",
"176 287 OFFCURVE",
"65 156 CURVE",
"126 104 LINE",
"243 255 OFFCURVE",
"310 372 OFFCURVE",
"372 533 CURVE"
);
},
{
closed = 1;
nodes = (
"375 357 LINE",
"312 228 OFFCURVE",
"238 101 OFFCURVE",
"124 -27 CURVE",
"185 -84 LINE",
"309 62 OFFCURVE",
"373 169 OFFCURVE",
"446 324 CURVE"
);
},
{
closed = 1;
nodes = (
"462 169 LINE",
"378 11 OFFCURVE",
"293 -117 OFFCURVE",
"199 -236 CURVE",
"257 -293 LINE",
"361 -156 OFFCURVE",
"445 -41 OFFCURVE",
"529 132 CURVE"
);
},
{
closed = 1;
nodes = (
"260 1069 LINE",
"205 772 OFFCURVE",
"136 571 OFFCURVE",
"20 377 CURVE",
"93 333 LINE",
"211 545 OFFCURVE",
"277 734 OFFCURVE",
"342 1057 CURVE"
);
},
{
closed = 1;
nodes = (
"240 843 LINE",
"284 775 OFFCURVE",
"322 721 OFFCURVE",
"356 668 CURVE SMOOTH",
"406 589 OFFCURVE",
"467 491 OFFCURVE",
"504 418 CURVE",
"577 465 LINE",
"483 648 OFFCURVE",
"372 806 OFFCURVE",
"281 906 CURVE"
);
}
);
width = 597;
}
);
unicode = 1B1AD;
},
{
color = 4;
glyphname = u1B1AE;
lastChange = "2020-03-16 12:37:56 +0000";
layers = (
{
layerId = "CFFEBDE4-599A-46B2-9328-D96E42CD9C81";
paths = (
{
closed = 1;
nodes = (
"425 484 LINE",
"364 310 OFFCURVE",
"278 163 OFFCURVE",
"166 31 CURVE",
"230 -19 LINE",
"357 139 OFFCURVE",
"432 279 OFFCURVE",
"500 457 CURVE"
);
},
{
closed = 1;
nodes = (
"515 240 LINE",
"433 57 OFFCURVE",
"323 -101 OFFCURVE",
"208 -241 CURVE",
"270 -293 LINE",
"395 -135 OFFCURVE",
"496 0 OFFCURVE",
"588 209 CURVE"
);
},
{
closed = 1;
nodes = (
"231 312 LINE",
"342 528 OFFCURVE",
"395 704 OFFCURVE",
"470 1057 CURVE",
"388 1069 LINE",
"323 742 OFFCURVE",
"265 554 OFFCURVE",
"182 382 CURVE",
"213 380 LINE",
"171 531 OFFCURVE",
"137 607 OFFCURVE",
"90 692 CURVE",
"20 649 LINE",
"72 554 OFFCURVE",
"112 459 OFFCURVE",
"159 324 CURVE"
);
},
{
closed = 1;
nodes = (
"358 843 LINE",
"402 775 OFFCURVE",
"440 721 OFFCURVE",
"474 668 CURVE SMOOTH",
"524 589 OFFCURVE",
"585 491 OFFCURVE",
"622 418 CURVE",
"695 465 LINE",
"601 648 OFFCURVE",
"490 806 OFFCURVE",
"399 906 CURVE"
);
}
);
width = 715;
}
);
unicode = 1B1AE;
},
{
color = 4;
glyphname = u1B1AF;
lastChange = "2020-03-16 12:38:14 +0000";
layers = (
{
layerId = "CFFEBDE4-599A-46B2-9328-D96E42CD9C81";
paths = (
{
closed = 1;
nodes = (
"110 131 OFFCURVE",
"133 148 OFFCURVE",
"133 187 CURVE SMOOTH",
"133 226 OFFCURVE",
"110 243 OFFCURVE",
"82 243 CURVE SMOOTH",
"53 243 OFFCURVE",
"30 226 OFFCURVE",
"30 187 CURVE SMOOTH",
"30 148 OFFCURVE",
"53 131 OFFCURVE",
"82 131 CURVE SMOOTH"
);
},
{
closed = 1;
nodes = (
"304 795 OFFCURVE",
"327 812 OFFCURVE",
"327 851 CURVE SMOOTH",
"327 890 OFFCURVE",
"304 907 OFFCURVE",
"276 907 CURVE SMOOTH",
"247 907 OFFCURVE",
"224 890 OFFCURVE",
"224 851 CURVE SMOOTH",
"224 812 OFFCURVE",
"247 795 OFFCURVE",
"276 795 CURVE SMOOTH"
);
},
{
closed = 1;
nodes = (
"174 506 OFFCURVE",
"221 341 OFFCURVE",
"221 151 CURVE SMOOTH",
"221 -38 OFFCURVE",
"187 -143 OFFCURVE",
"123 -255 CURVE",
"194 -293 LINE",
"260 -176 OFFCURVE",
"304 -59 OFFCURVE",
"304 140 CURVE SMOOTH",
"304 371 OFFCURVE",
"256 534 OFFCURVE",
"166 724 CURVE",
"93 691 LINE"
);
},
{
closed = 1;
nodes = (
"427 731 OFFCURVE",
"339 555 OFFCURVE",
"220 409 CURVE",
"255 341 LINE",
"412 506 OFFCURVE",
"509 704 OFFCURVE",
"546 1057 CURVE",
"463 1069 LINE"
);
},
{
closed = 1;
nodes = (
"403 657 LINE",
"463 528 OFFCURVE",
"494 427 OFFCURVE",
"520 265 CURVE",
"607 291 LINE",
"577 461 OFFCURVE",
"540 575 OFFCURVE",
"458 714 CURVE"
);
},
{
closed = 1;
nodes = (
"403 657 LINE",
"463 528 OFFCURVE",
"494 427 OFFCURVE",
"520 265 CURVE",
"607 291 LINE",
"577 461 OFFCURVE",
"540 575 OFFCURVE",
"458 714 CURVE"
);
}
);
width = 637;
}
);
unicode = 1B1AF;
},
{
color = 4;
glyphname = u1B1B0;
lastChange = "2020-03-16 12:38:20 +0000";
layers = (
{
layerId = "CFFEBDE4-599A-46B2-9328-D96E42CD9C81";
paths = (
{
closed = 1;
nodes = (
"507 709 OFFCURVE",
"530 726 OFFCURVE",
"530 765 CURVE SMOOTH",
"530 804 OFFCURVE",
"507 821 OFFCURVE",
"479 821 CURVE SMOOTH",
"450 821 OFFCURVE",
"427 804 OFFCURVE",
"427 765 CURVE SMOOTH",
"427 726 OFFCURVE",
"450 709 OFFCURVE",
"479 709 CURVE SMOOTH"
);
},
{
closed = 1;
nodes = (
"118 507 OFFCURVE",
"141 524 OFFCURVE",
"141 563 CURVE SMOOTH",
"141 602 OFFCURVE",
"118 619 OFFCURVE",
"90 619 CURVE SMOOTH",
"61 619 OFFCURVE",
"38 602 OFFCURVE",
"38 563 CURVE SMOOTH",
"38 524 OFFCURVE",
"61 507 OFFCURVE",
"90 507 CURVE SMOOTH"
);
},
{
closed = 1;
nodes = (
"306 428 LINE",
"325 276 OFFCURVE",
"328 198 OFFCURVE",
"328 51 CURVE SMOOTH",
"328 -78 OFFCURVE",
"314 -169 OFFCURVE",
"292 -283 CURVE",
"371 -293 LINE",
"401 -170 OFFCURVE",
"412 -80 OFFCURVE",
"412 61 CURVE SMOOTH",
"412 204 OFFCURVE",
"403 297 OFFCURVE",
"382 440 CURVE"
);
},
{
closed = 1;
nodes = (
"313 1069 LINE",
"295 756 OFFCURVE",
"206 457 OFFCURVE",
"43 231 CURVE",
"107 182 LINE",
"270 416 OFFCURVE",
"370 729 OFFCURVE",
"393 1063 CURVE"
);
},
{
closed = 1;
nodes = (
"208 671 OFFCURVE",
"377 538 OFFCURVE",
"507 391 CURVE",
"560 453 LINE",
"421 598 OFFCURVE",
"247 737 OFFCURVE",
"64 847 CURVE",
"30 774 LINE"
);
}
);
width = 590;
}
);
unicode = 1B1B0;
},
{
color = 4;
glyphname = u1B1B1;
lastChange = "2020-03-16 12:38:27 +0000";
layers = (
{
layerId = "CFFEBDE4-599A-46B2-9328-D96E42CD9C81";
paths = (
{
closed = 1;
nodes = (
"473 621 LINE",
"426 384 OFFCURVE",
"357 198 OFFCURVE",
"290 43 CURVE",
"333 47 LINE",
"284 382 OFFCURVE",
"207 673 OFFCURVE",
"116 918 CURVE",
"40 886 LINE",
"130 649 OFFCURVE",
"205 375 OFFCURVE",
"260 18 CURVE",
"353 0 LINE",
"430 157 OFFCURVE",
"510 390 OFFCURVE",
"559 605 CURVE"
);
},
{
closed = 1;
nodes = (
"289 518 LINE",
"377 364 OFFCURVE",
"452 186 OFFCURVE",
"502 36 CURVE",
"578 62 LINE",
"524 237 OFFCURVE",
"441 415 OFFCURVE",
"357 561 CURVE"
);
},
{
closed = 1;
nodes = (
"331 1069 LINE",
"263 819 OFFCURVE",
"171 558 OFFCURVE",
"30 352 CURVE",
"95 308 LINE",
"242 522 OFFCURVE",
"323 758 OFFCURVE",
"408 1051 CURVE"
);
},
{
closed = 1;
nodes = (
"54 154 LINE",
"108 5 OFFCURVE",
"134 -136 OFFCURVE",
"143 -293 CURVE",
"219 -283 LINE",
"210 -126 OFFCURVE",
"180 49 OFFCURVE",
"124 181 CURVE"
);
}
);
width = 608;
}
);
unicode = 1B1B1;
},
{
color = 4;
glyphname = u1B1B2;
lastChange = "2020-03-16 12:38:34 +0000";
layers = (
{
layerId = "CFFEBDE4-599A-46B2-9328-D96E42CD9C81";
paths = (
{
closed = 1;
nodes = (
"331 428 LINE",
"350 276 OFFCURVE",
"355 198 OFFCURVE",
"355 51 CURVE SMOOTH",
"355 -78 OFFCURVE",
"347 -169 OFFCURVE",
"334 -283 CURVE",
"413 -293 LINE",
"431 -170 OFFCURVE",
"439 -80 OFFCURVE",
"439 61 CURVE SMOOTH",
"439 204 OFFCURVE",
"428 297 OFFCURVE",
"407 440 CURVE"
);
},
{
closed = 1;
nodes = (
"365 1069 LINE",
"337 763 OFFCURVE",
"306 598 OFFCURVE",
"112 367 CURVE",
"176 318 LINE",
"370 557 OFFCURVE",
"412 736 OFFCURVE",
"445 1063 CURVE"
);
},
{
closed = 1;
nodes = (
"259 661 OFFCURVE",
"406 558 OFFCURVE",
"549 411 CURVE",
"602 473 LINE",
"450 618 OFFCURVE",
"298 727 OFFCURVE",
"106 817 CURVE",
"72 744 LINE"
);
},
{
closed = 1;
nodes = (
"20 -82 OFFCURVE",
"51 -130 OFFCURVE",
"113 -175 CURVE",
"184 -166 LINE",
"234 -88 OFFCURVE",
"265 -2 OFFCURVE",
"265 69 CURVE SMOOTH",
"265 119 OFFCURVE",
"234 166 OFFCURVE",
"168 218 CURVE",
"94 208 LINE",
"44 126 OFFCURVE",
"20 43 OFFCURVE",
"20 -25 CURVE SMOOTH"
);
},
{
closed = 1;
nodes = (
"121 171 LINE",
"168 126 OFFCURVE",
"185 92 OFFCURVE",
"185 63 CURVE SMOOTH",
"185 15 OFFCURVE",
"172 -47 OFFCURVE",
"133 -128 CURVE",
"157 -128 LINE",
"114 -83 OFFCURVE",
"100 -55 OFFCURVE",
"100 -16 CURVE SMOOTH",
"100 32 OFFCURVE",
"117 100 OFFCURVE",
"156 174 CURVE"
);
}
);
width = 632;
}
);
unicode = 1B1B2;
},
{
color = 4;
glyphname = u1B1B3;
lastChange = "2020-03-16 12:38:40 +0000";
layers = (
{
layerId = "CFFEBDE4-599A-46B2-9328-D96E42CD9C81";
paths = (
{
closed = 1;
nodes = (
"527 212 OFFCURVE",
"550 229 OFFCURVE",
"550 268 CURVE SMOOTH",
"550 307 OFFCURVE",
"527 324 OFFCURVE",
"499 324 CURVE SMOOTH",
"470 324 OFFCURVE",
"447 307 OFFCURVE",
"447 268 CURVE SMOOTH",
"447 229 OFFCURVE",
"470 212 OFFCURVE",
"499 212 CURVE SMOOTH"
);
},
{
closed = 1;
nodes = (
"157 -85 OFFCURVE",
"180 -68 OFFCURVE",
"180 -29 CURVE SMOOTH",
"180 10 OFFCURVE",
"157 27 OFFCURVE",
"129 27 CURVE SMOOTH",
"100 27 OFFCURVE",
"77 10 OFFCURVE",
"77 -29 CURVE SMOOTH",
"77 -68 OFFCURVE",
"100 -85 OFFCURVE",
"129 -85 CURVE SMOOTH"
);
},
{
closed = 1;
nodes = (
"362 1069 LINE",
"325 878 OFFCURVE",
"240 711 OFFCURVE",
"40 543 CURVE",
"94 479 LINE",
"295 655 OFFCURVE",
"410 830 OFFCURVE",
"445 1059 CURVE"
);
},
{
closed = 1;
nodes = (
"362 799 OFFCURVE",
"376 751 OFFCURVE",
"376 678 CURVE SMOOTH",
"376 518 OFFCURVE",
"293 363 OFFCURVE",
"49 197 CURVE",
"96 125 LINE",
"369 314 OFFCURVE",
"459 481 OFFCURVE",
"459 667 CURVE SMOOTH",
"459 761 OFFCURVE",
"433 834 OFFCURVE",
"380 909 CURVE",
"318 863 LINE"
);
},
{
closed = 1;
nodes = (
"256 302 LINE",
"270 209 OFFCURVE",
"276 145 OFFCURVE",
"276 26 CURVE SMOOTH",
"276 -87 OFFCURVE",
"265 -158 OFFCURVE",
"242 -276 CURVE",
"327 -293 LINE",
"353 -157 OFFCURVE",
"362 -92 OFFCURVE",
"362 36 CURVE SMOOTH",
"362 158 OFFCURVE",
"348 269 OFFCURVE",
"326 380 CURVE"
);
}
);
width = 580;
}
);
unicode = 1B1B3;
},
{
color = 4;
glyphname = u1B1B4;
lastChange = "2020-02-12 15:08:00 +0000";
layers = (
{
layerId = "CFFEBDE4-599A-46B2-9328-D96E42CD9C81";
paths = (
{
closed = 1;
nodes = (
"323 398 OFFCURVE",
"244 207 OFFCURVE",
"162 38 CURVE",
"220 -30 LINE",
"312 157 OFFCURVE",
"385 323 OFFCURVE",
"449 529 CURVE",
"417 534 LINE",
"454 429 OFFCURVE",
"480 330 OFFCURVE",
"504 195 CURVE",
"529 301 LINE",
"450 85 OFFCURVE",
"375 -87 OFFCURVE",
"287 -240 CURVE",
"319 -265 LINE",
"264 -74 OFFCURVE",
"186 145 OFFCURVE",
"107 340 CURVE",
"96 239 LINE",
"204 499 OFFCURVE",
"302 787 OFFCURVE",
"368 1059 CURVE",
"285 1079 LINE",
"221 815 OFFCURVE",
"131 539 OFFCURVE",
"30 301 CURVE",
"124 83 OFFCURVE",
"190 -104 OFFCURVE",
"251 -317 CURVE",
"330 -325 LINE",
"432 -157 OFFCURVE",
"522 34 OFFCURVE",
"590 225 CURVE",
"568 356 OFFCURVE",
"532 483 OFFCURVE",
"492 610 CURVE",
"392 621 LINE"
);
}
);
width = 620;
}
);
unicode = 1B1B4;
},
{
color = 4;
glyphname = u1B1B5;
lastChange = "2020-01-30 14:14:24 +0000";
layers = (
{
layerId = "CFFEBDE4-599A-46B2-9328-D96E42CD9C81";
paths = (
{
closed = 1;
nodes = (
"496 164 OFFCURVE",
"519 181 OFFCURVE",
"519 220 CURVE SMOOTH",
"519 259 OFFCURVE",
"496 276 OFFCURVE",
"468 276 CURVE SMOOTH",
"439 276 OFFCURVE",
"416 259 OFFCURVE",
"416 220 CURVE SMOOTH",
"416 181 OFFCURVE",
"439 164 OFFCURVE",
"468 164 CURVE SMOOTH"
);
},
{
closed = 1;
nodes = (
"496 555 OFFCURVE",
"519 572 OFFCURVE",
"519 611 CURVE SMOOTH",
"519 650 OFFCURVE",
"496 667 OFFCURVE",
"468 667 CURVE SMOOTH",
"439 667 OFFCURVE",
"416 650 OFFCURVE",
"416 611 CURVE SMOOTH",
"416 572 OFFCURVE",
"439 555 OFFCURVE",
"468 555 CURVE SMOOTH"
);
},
{
closed = 1;
nodes = (
"146 -325 LINE",
"296 -72 OFFCURVE",
"355 130 OFFCURVE",
"355 383 CURVE SMOOTH",
"355 600 OFFCURVE",
"288 815 OFFCURVE",
"125 1016 CURVE",
"58 970 LINE",
"217 775 OFFCURVE",
"275 576 OFFCURVE",
"275 380 CURVE SMOOTH",
"275 154 OFFCURVE",
"230 -46 OFFCURVE",
"80 -284 CURVE"
);
},
{
closed = 1;
nodes = (
"381 1079 LINE",
"284 896 OFFCURVE",
"170 761 OFFCURVE",
"20 639 CURVE",
"68 573 LINE",
"231 713 OFFCURVE",
"357 858 OFFCURVE",
"451 1045 CURVE"
);
},
{
closed = 1;
nodes = (
"39 133 LINE",
"168 49 OFFCURVE",
"345 -104 OFFCURVE",
"436 -211 CURVE",
"492 -154 LINE",
"385 -34 OFFCURVE",
"222 110 OFFCURVE",
"85 202 CURVE"
);
}
);
width = 559;
}
);
unicode = 1B1B5;
},
{
color = 4;
glyphname = u1B1B6;
lastChange = "2020-02-13 13:09:23 +0000";
layers = (
{
layerId = "CFFEBDE4-599A-46B2-9328-D96E42CD9C81";
paths = (
{
closed = 1;
nodes = (
"342 -24 LINE",
"486 257 OFFCURVE",
"556 516 OFFCURVE",
"613 784 CURVE",
"532 804 LINE",
"478 549 OFFCURVE",
"403 288 OFFCURVE",
"302 97 CURVE"
);
},
{
closed = 1;
nodes = (
"377 1079 LINE",
"335 825 OFFCURVE",
"268 584 OFFCURVE",
"187 381 CURVE",
"244 323 LINE",
"349 584 OFFCURVE",
"407 815 OFFCURVE",
"458 1069 CURVE"
);
},
{
closed = 1;
nodes = (
"109 910 LINE",
"249 733 OFFCURVE",
"359 551 OFFCURVE",
"438 307 CURVE",
"493 376 LINE",
"418 607 OFFCURVE",
"308 801 OFFCURVE",
"174 968 CURVE"
);
},
{
closed = 1;
nodes = (
"281 -189 OFFCURVE",
"268 -227 OFFCURVE",
"204 -227 CURVE SMOOTH",
"141 -227 OFFCURVE",
"117 -194 OFFCURVE",
"117 -136 CURVE SMOOTH",
"117 -85 OFFCURVE",
"127 -47 OFFCURVE",
"156 5 CURVE",
"81 38 LINE",
"42 -28 OFFCURVE",
"31 -85 OFFCURVE",
"31 -142 CURVE SMOOTH",
"31 -240 OFFCURVE",
"87 -311 OFFCURVE",
"196 -311 CURVE SMOOTH",
"311 -311 OFFCURVE",
"368 -239 OFFCURVE",
"368 -100 CURVE SMOOTH",
"368 77 OFFCURVE",
"283 327 OFFCURVE",
"100 667 CURVE",
"30 627 LINE",
"213 291 OFFCURVE",
"281 54 OFFCURVE",
"281 -127 CURVE SMOOTH"
);
}
);
width = 643;
}
);
unicode = 1B1B6;
},
{
color = 4;
glyphname = u1B1B7;
lastChange = "2020-02-11 17:14:43 +0000";
layers = (
{
layerId = "CFFEBDE4-599A-46B2-9328-D96E42CD9C81";
paths = (
{
closed = 1;
nodes = (
"503 1079 LINE",
"422 906 OFFCURVE",
"347 770 OFFCURVE",
"240 640 CURVE",
"286 644 LINE",
"266 758 OFFCURVE",
"242 836 OFFCURVE",
"205 936 CURVE",
"131 903 LINE",
"171 801 OFFCURVE",
"190 723 OFFCURVE",
"209 615 CURVE",
"288 580 LINE",
"428 744 OFFCURVE",
"504 871 OFFCURVE",
"580 1051 CURVE"
);
},
{
closed = 1;
nodes = (
"273 322 LINE",
"434 462 OFFCURVE",
"550 585 OFFCURVE",
"667 776 CURVE",
"590 818 LINE",
"485 651 OFFCURVE",
"377 522 OFFCURVE",
"225 396 CURVE"
);
},
{
closed = 1;
nodes = (
"186 249 LINE",
"177 403 OFFCURVE",
"150 550 OFFCURVE",
"115 641 CURVE",
"35 617 LINE",
"66 538 OFFCURVE",
"98 397 OFFCURVE",
"103 244 CURVE"
);
},
{
closed = 1;
nodes = (
"481 -316 LINE",
"481 -105 OFFCURVE",
"473 79 OFFCURVE",
"424 237 CURVE",
"344 201 LINE",
"373 61 OFFCURVE",
"387 -126 OFFCURVE",
"387 -325 CURVE"
);
},
{
closed = 1;
nodes = (
"208 -218 LINE",
"420 -115 OFFCURVE",
"523 -53 OFFCURVE",
"667 88 CURVE",
"605 155 LINE",
"471 20 OFFCURVE",
"375 -46 OFFCURVE",
"174 -137 CURVE"
);
},
{
closed = 1;
nodes = (
"531 383 OFFCURVE",
"441 256 OFFCURVE",
"170 99 CURVE",
"210 21 LINE",
"523 205 OFFCURVE",
"618 344 OFFCURVE",
"618 485 CURVE",
"618 555 OFFCURVE",
"595 608 OFFCURVE",
"557 657 CURVE",
"511 589 LINE",
"526 551 OFFCURVE",
"531 528 OFFCURVE",
"531 483 CURVE"
);
}
);
width = 700;
}
);
unicode = 1B1B7;
},
{
color = 4;
glyphname = u1B1B8;
lastChange = "2020-01-30 14:14:24 +0000";
layers = (
{
layerId = "CFFEBDE4-599A-46B2-9328-D96E42CD9C81";
paths = (
{
closed = 1;
nodes = (
"100 229 OFFCURVE",
"123 246 OFFCURVE",
"123 285 CURVE SMOOTH",
"123 324 OFFCURVE",
"100 341 OFFCURVE",
"72 341 CURVE SMOOTH",
"43 341 OFFCURVE",
"20 324 OFFCURVE",
"20 285 CURVE SMOOTH",
"20 246 OFFCURVE",
"43 229 OFFCURVE",
"72 229 CURVE SMOOTH"
);
},
{
closed = 1;
nodes = (
"128 -35 OFFCURVE",
"151 -18 OFFCURVE",
"151 21 CURVE SMOOTH",
"151 60 OFFCURVE",
"128 77 OFFCURVE",
"100 77 CURVE SMOOTH",
"73 77 OFFCURVE",
"48 60 OFFCURVE",
"48 21 CURVE SMOOTH",
"48 -18 OFFCURVE",
"71 -35 OFFCURVE",
"100 -35 CURVE SMOOTH"
);
},
{
closed = 1;
nodes = (
"363 -325 LINE",
"383 -192 OFFCURVE",
"395 -62 OFFCURVE",
"395 77 CURVE SMOOTH",
"395 423 OFFCURVE",
"316 691 OFFCURVE",
"168 919 CURVE",
"99 876 LINE",
"246 652 OFFCURVE",
"315 415 OFFCURVE",
"315 65 CURVE SMOOTH",
"315 -68 OFFCURVE",
"304 -185 OFFCURVE",
"283 -313 CURVE"
);
},
{
closed = 1;
nodes = (
"432 1079 LINE",
"359 853 OFFCURVE",
"253 627 OFFCURVE",
"101 426 CURVE",
"160 381 LINE",
"317 595 OFFCURVE",
"427 803 OFFCURVE",
"506 1056 CURVE"
);
},
{
closed = 1;
nodes = (
"452 547 LINE",
"367 382 OFFCURVE",
"278 258 OFFCURVE",
"154 133 CURVE",
"208 81 LINE",
"327 205 OFFCURVE",
"418 327 OFFCURVE",
"519 509 CURVE"
);
}
);
width = 549;
}
);
unicode = 1B1B8;
},
{
color = 4;
glyphname = u1B1B9;
lastChange = "2020-02-14 09:23:47 +0000";
layers = (
{
layerId = "CFFEBDE4-599A-46B2-9328-D96E42CD9C81";
paths = (
{
closed = 1;
nodes = (
"432 1079 LINE",
"356 814 OFFCURVE",
"251 597 OFFCURVE",
"93 398 CURVE",
"159 348 LINE",
"335 578 OFFCURVE",
"432 790 OFFCURVE",
"510 1060 CURVE"
);
},
{
closed = 1;
nodes = (
"487 511 LINE",
"418 368 OFFCURVE",
"334 233 OFFCURVE",
"238 133 CURVE",
"293 78 LINE",
"388 177 OFFCURVE",
"472 302 OFFCURVE",
"556 471 CURVE"
);
},
{
closed = 1;
nodes = (
"415 262 LINE",
"379 479 OFFCURVE",
"316 691 OFFCURVE",
"197 938 CURVE",
"126 902 LINE",
"240 640 OFFCURVE",
"312 417 OFFCURVE",
"347 235 CURVE"
);
},
{
closed = 1;
nodes = (
"130 59 LINE",
"177 -29 OFFCURVE",
"206 -83 OFFCURVE",
"247 -167 CURVE SMOOTH",
"272 -218 OFFCURVE",
"293 -271 OFFCURVE",
"312 -325 CURVE",
"390 -294 LINE",
"334 -139 OFFCURVE",
"254 2 OFFCURVE",
"168 113 CURVE"
);
},
{
closed = 1;
nodes = (
"108 174 LINE",
"94 25 OFFCURVE",
"62 -127 OFFCURVE",
"30 -236 CURVE",
"107 -257 LINE",
"141 -146 OFFCURVE",
"173 29 OFFCURVE",
"186 168 CURVE"
);
}
);
width = 586;
}
);
unicode = 1B1B9;
},
{
color = 4;
glyphname = u1B1BA;
lastChange = "2020-01-29 17:44:05 +0000";
layers = (
{
background = {
paths = (
{
closed = 1;
nodes = (
"171 405 OFFCURVE",
"276 289 OFFCURVE",
"372 171 CURVE",
"372 229 LINE",
"295 36 OFFCURVE",
"217 -120 OFFCURVE",
"118 -283 CURVE",
"187 -325 LINE",
"292 -156 OFFCURVE",
"372 5 OFFCURVE",
"453 208 CURVE",
"345 344 OFFCURVE",
"244 445 OFFCURVE",
"119 568 CURVE",
"119 531 LINE",
"189 668 OFFCURVE",
"260 847 OFFCURVE",
"325 1057 CURVE",
"243 1079 LINE",
"182 880 OFFCURVE",
"127 730 OFFCURVE",
"32 536 CURVE"
);
},
{
closed = 1;
nodes = (
"352 693 LINE",
"261 495 OFFCURVE",
"150 305 OFFCURVE",
"30 145 CURVE",
"92 97 LINE",
"227 277 OFFCURVE",
"334 459 OFFCURVE",
"422 660 CURVE"
);
}
);
};
layerId = "CFFEBDE4-599A-46B2-9328-D96E42CD9C81";
paths = (
{
closed = 1;
nodes = (
"194 698 OFFCURVE",
"258 866 OFFCURVE",
"312 1057 CURVE",
"230 1079 LINE",
"179 899 OFFCURVE",
"122 733 OFFCURVE",
"30 534 CURVE",
"58 412 OFFCURVE",
"88 307 OFFCURVE",
"133 189 CURVE",
"191 177 LINE",
"281 333 OFFCURVE",
"343 483 OFFCURVE",
"390 615 CURVE",
"354 613 LINE",
"397 499 OFFCURVE",
"412 412 OFFCURVE",
"438 263 CURVE",
"436 327 LINE",
"362 103 OFFCURVE",
"279 -104 OFFCURVE",
"175 -295 CURVE",
"244 -325 LINE",
"348 -137 OFFCURVE",
"427 55 OFFCURVE",
"513 309 CURVE",
"485 449 OFFCURVE",
"465 563 OFFCURVE",
"413 694 CURVE",
"340 702 LINE",
"281 530 OFFCURVE",
"222 384 OFFCURVE",
"148 247 CURVE",
"190 257 LINE",
"154 360 OFFCURVE",
"127 450 OFFCURVE",
"101 572 CURVE",
"104 498 LINE"
);
}
);
width = 553;
}
);
unicode = 1B1BA;
},
{
color = 4;
glyphname = u1B1BB;
lastChange = "2020-02-17 14:02:33 +0000";
layers = (
{
layerId = "CFFEBDE4-599A-46B2-9328-D96E42CD9C81";
paths = (
{
closed = 1;
nodes = (
"247 1009 LINE",
"301 886 OFFCURVE",
"342 766 OFFCURVE",
"374 632 CURVE",
"390 742 LINE",
"325 575 OFFCURVE",
"249 469 OFFCURVE",
"170 367 CURVE",
"204 283 LINE",
"294 389 OFFCURVE",
"381 517 OFFCURVE",
"446 662 CURVE",
"408 821 OFFCURVE",
"365 943 OFFCURVE",
"302 1069 CURVE",
"222 1079 LINE",
"161 933 OFFCURVE",
"106 829 OFFCURVE",
"30 707 CURVE",
"110 476 OFFCURVE",
"148 218 OFFCURVE",
"148 -4 CURVE SMOOTH",
"148 -102 OFFCURVE",
"143 -222 OFFCURVE",
"128 -315 CURVE",
"207 -325 LINE",
"221 -208 OFFCURVE",
"228 -88 OFFCURVE",
"228 51 CURVE SMOOTH",
"228 241 OFFCURVE",
"187 486 OFFCURVE",
"112 721 CURVE",
"90 649 LINE",
"171 779 OFFCURVE",
"229 884 OFFCURVE",
"281 1015 CURVE"
);
},
{
closed = 1;
nodes = (
"312 909 LINE",
"241 753 OFFCURVE",
"196 667 OFFCURVE",
"108 544 CURVE",
"148 476 LINE",
"241 601 OFFCURVE",
"300 698 OFFCURVE",
"360 838 CURVE"
);
}
);
width = 476;
}
);
unicode = 1B1BB;
},
{
color = 4;
glyphname = u1B1BC;
lastChange = "2020-02-13 15:12:50 +0000";
layers = (
{
layerId = "CFFEBDE4-599A-46B2-9328-D96E42CD9C81";
paths = (
{
closed = 1;
nodes = (
"320 -325 LINE",
"412 -248 OFFCURVE",
"483 -159 OFFCURVE",
"560 -45 CURVE",
"543 75 OFFCURVE",
"514 181 OFFCURVE",
"481 275 CURVE",
"412 293 LINE",
"337 163 OFFCURVE",
"261 68 OFFCURVE",
"168 -31 CURVE",
"205 -124 OFFCURVE",
"232 -223 OFFCURVE",
"255 -313 CURVE"
);
},
{
closed = 1;
nodes = (
"319 -270 LINE",
"302 -193 OFFCURVE",
"275 -90 OFFCURVE",
"241 -5 CURVE",
"219 -98 LINE",
"315 4 OFFCURVE",
"389 98 OFFCURVE",
"458 222 CURVE",
"412 222 LINE",
"439 141 OFFCURVE",
"469 20 OFFCURVE",
"478 -72 CURVE",
"509 25 LINE",
"433 -99 OFFCURVE",
"369 -176 OFFCURVE",
"291 -248 CURVE"
);
},
{
closed = 1;
nodes = (
"369 1079 LINE",
"283 825 OFFCURVE",
"168 578 OFFCURVE",
"30 400 CURVE",
"96 350 LINE",
"252 559 OFFCURVE",
"359 801 OFFCURVE",
"447 1060 CURVE"
);
},
{
closed = 1;
nodes = (
"374 550 LINE",
"305 407 OFFCURVE",
"221 272 OFFCURVE",
"125 172 CURVE",
"180 117 LINE",
"275 216 OFFCURVE",
"359 341 OFFCURVE",
"443 510 CURVE"
);
},
{
closed = 1;
nodes = (
"312 307 LINE",
"276 524 OFFCURVE",
"223 729 OFFCURVE",
"136 934 CURVE",
"63 902 LINE",
"154 679 OFFCURVE",
"209 475 OFFCURVE",
"244 280 CURVE"
);
}
);
width = 590;
}
);
unicode = 1B1BC;
},
{
color = 4;
glyphname = u1B1BD;
lastChange = "2020-02-13 15:56:48 +0000";
layers = (
{
layerId = "CFFEBDE4-599A-46B2-9328-D96E42CD9C81";
paths = (
{
closed = 1;
nodes = (
"180 596 OFFCURVE",
"232 466 OFFCURVE",
"232 316 CURVE SMOOTH",
"232 156 OFFCURVE",
"181 0 OFFCURVE",
"77 -126 CURVE",
"140 -182 LINE",
"263 -26 OFFCURVE",
"318 130 OFFCURVE",
"318 326 CURVE SMOOTH",
"318 480 OFFCURVE",
"255 650 OFFCURVE",
"81 784 CURVE",
"30 722 LINE"
);
},
{
closed = 1;
nodes = (
"310 1079 LINE",
"256 778 OFFCURVE",
"181 578 OFFCURVE",
"55 384 CURVE",
"120 337 LINE",
"249 539 OFFCURVE",
"331 745 OFFCURVE",
"389 1061 CURVE"
);
},
{
closed = 1;
nodes = (
"325 -81 OFFCURVE",
"259 89 OFFCURVE",
"130 249 CURVE",
"64 200 LINE",
"194 42 OFFCURVE",
"254 -120 OFFCURVE",
"280 -325 CURVE",
"357 -306 LINE"
);
},
{
closed = 1;
nodes = (
"276 841 LINE",
"345 714 OFFCURVE",
"449 566 OFFCURVE",
"565 433 CURVE",
"625 494 LINE",
"497 626 OFFCURVE",
"419 745 OFFCURVE",
"335 878 CURVE"
);
},
{
closed = 1;
nodes = (
"482 551 OFFCURVE",
"517 683 OFFCURVE",
"613 842 CURVE",
"546 878 LINE",
"439 698 OFFCURVE",
"402 551 OFFCURVE",
"402 407 CURVE SMOOTH",
"402 239 OFFCURVE",
"454 89 OFFCURVE",
"550 -28 CURVE",
"621 15 LINE",
"523 136 OFFCURVE",
"482 249 OFFCURVE",
"482 418 CURVE SMOOTH"
);
}
);
width = 655;
}
);
unicode = 1B1BD;
},
{
color = 4;
glyphname = u1B1BE;
lastChange = "2020-02-13 15:12:50 +0000";
layers = (
{
layerId = "CFFEBDE4-599A-46B2-9328-D96E42CD9C81";
paths = (
{
closed = 1;
nodes = (
"372 936 OFFCURVE",
"382 831 OFFCURVE",
"382 701 CURVE SMOOTH",
"382 454 OFFCURVE",
"345 329 OFFCURVE",
"215 166 CURVE",
"282 113 LINE",
"427 294 OFFCURVE",
"468 455 OFFCURVE",
"468 714 CURVE SMOOTH",
"468 846 OFFCURVE",
"459 948 OFFCURVE",
"439 1079 CURVE",
"354 1069 LINE"
);
},
{
closed = 1;
nodes = (
"190 644 LINE",
"190 477 OFFCURVE",
"154 390 OFFCURVE",
"63 294 CURVE",
"124 245 LINE",
"226 352 OFFCURVE",
"269 465 OFFCURVE",
"269 643 CURVE"
);
},
{
closed = 1;
nodes = (
"422 159 OFFCURVE",
"455 258 OFFCURVE",
"560 386 CURVE",
"624 337 LINE",
"532 220 OFFCURVE",
"504 145 OFFCURVE",
"504 67 CURVE SMOOTH",
"504 13 OFFCURVE",
"520 -29 OFFCURVE",
"567 -72 CURVE",
"513 -125 LINE",
"448 -71 OFFCURVE",
"422 -12 OFFCURVE",
"422 71 CURVE SMOOTH"
);
},
{
closed = 1;
nodes = (
"110 59 LINE",
"157 -29 OFFCURVE",
"186 -83 OFFCURVE",
"227 -167 CURVE SMOOTH",
"252 -218 OFFCURVE",
"273 -271 OFFCURVE",
"292 -325 CURVE",
"370 -294 LINE",
"314 -139 OFFCURVE",
"234 2 OFFCURVE",
"148 113 CURVE"
);
},
{
closed = 1;
nodes = (
"88 174 LINE",
"74 25 OFFCURVE",
"42 -127 OFFCURVE",
"10 -236 CURVE",
"87 -257 LINE",
"121 -146 OFFCURVE",
"153 29 OFFCURVE",
"166 168 CURVE"
);
}
);
width = 654;
}
);
unicode = 1B1BE;
},
{
color = 4;
glyphname = u1B1BF;
lastChange = "2020-02-17 14:50:26 +0000";
layers = (
{
layerId = "CFFEBDE4-599A-46B2-9328-D96E42CD9C81";
paths = (
{
closed = 1;
nodes = (
"497 1079 LINE",
"425 694 OFFCURVE",
"369 453 OFFCURVE",
"283 239 CURVE",
"331 243 LINE",
"273 392 OFFCURVE",
"232 534 OFFCURVE",
"184 684 CURVE",
"100 655 LINE",
"144 511 OFFCURVE",
"194 368 OFFCURVE",
"257 214 CURVE",
"348 204 LINE",
"453 432 OFFCURVE",
"513 680 OFFCURVE",
"583 1067 CURVE"
);
},
{
closed = 1;
nodes = (
"520 371 LINE",
"402 73 OFFCURVE",
"304 -96 OFFCURVE",
"169 -280 CURVE",
"234 -325 LINE",
"366 -143 OFFCURVE",
"473 32 OFFCURVE",
"596 340 CURVE"
);
},
{
closed = 1;
nodes = (
"110 233 OFFCURVE",
"133 250 OFFCURVE",
"133 289 CURVE SMOOTH",
"133 328 OFFCURVE",
"110 345 OFFCURVE",
"82 345 CURVE SMOOTH",
"53 345 OFFCURVE",
"30 328 OFFCURVE",
"30 289 CURVE SMOOTH",
"30 250 OFFCURVE",
"53 233 OFFCURVE",
"82 233 CURVE SMOOTH"
);
},
{
closed = 1;
nodes = (
"318 755 OFFCURVE",
"341 772 OFFCURVE",
"341 811 CURVE SMOOTH",
"341 850 OFFCURVE",
"318 867 OFFCURVE",
"290 867 CURVE SMOOTH",
"261 867 OFFCURVE",
"238 850 OFFCURVE",
"238 811 CURVE SMOOTH",
"238 772 OFFCURVE",
"261 755 OFFCURVE",
"290 755 CURVE SMOOTH"
);
}
);
width = 626;
}
);
unicode = 1B1BF;
},
{
color = 4;
glyphname = u1B1C0;
lastChange = "2020-01-30 15:39:40 +0000";
layers = (
{
layerId = "CFFEBDE4-599A-46B2-9328-D96E42CD9C81";
paths = (
{
closed = 1;
nodes = (
"320 -325 LINE",
"348 -157 OFFCURVE",
"362 9 OFFCURVE",
"362 201 CURVE SMOOTH",
"362 536 OFFCURVE",
"304 761 OFFCURVE",
"187 1006 CURVE",
"117 971 LINE",
"236 710 OFFCURVE",
"280 518 OFFCURVE",
"280 177 CURVE SMOOTH",
"280 -11 OFFCURVE",
"265 -161 OFFCURVE",
"238 -314 CURVE"
);
},
{
closed = 1;
nodes = (
"381 1079 LINE",
"279 908 OFFCURVE",
"169 752 OFFCURVE",
"30 586 CURVE",
"58 456 OFFCURVE",
"77 342 OFFCURVE",
"86 221 CURVE",
"158 194 LINE",
"301 339 OFFCURVE",
"411 466 OFFCURVE",
"535 629 CURVE",
"522 800 OFFCURVE",
"495 924 OFFCURVE",
"455 1064 CURVE"
);
},
{
closed = 1;
nodes = (
"383 1021 LINE",
"419 888 OFFCURVE",
"441 771 OFFCURVE",
"454 641 CURVE",
"493 718 LINE",
"381 560 OFFCURVE",
"258 412 OFFCURVE",
"131 283 CURVE",
"161 260 LINE",
"152 368 OFFCURVE",
"131 495 OFFCURVE",
"110 595 CURVE",
"77 521 LINE",
"207 670 OFFCURVE",
"342 859 OFFCURVE",
"423 992 CURVE"
);
}
);
width = 565;
}
);
unicode = 1B1C0;
},
{
color = 4;
glyphname = u1B1C1;
lastChange = "2020-01-29 17:13:31 +0000";
layers = (
{
layerId = "CFFEBDE4-599A-46B2-9328-D96E42CD9C81";
paths = (
{
closed = 1;
nodes = (
"110 131 OFFCURVE",
"133 148 OFFCURVE",
"133 187 CURVE SMOOTH",
"133 226 OFFCURVE",
"110 243 OFFCURVE",
"82 243 CURVE SMOOTH",
"53 243 OFFCURVE",
"30 226 OFFCURVE",
"30 187 CURVE SMOOTH",
"30 148 OFFCURVE",
"53 131 OFFCURVE",
"82 131 CURVE SMOOTH"
);
},
{
closed = 1;
nodes = (
"613 588 OFFCURVE",
"636 605 OFFCURVE",
"636 644 CURVE SMOOTH",
"636 683 OFFCURVE",
"613 700 OFFCURVE",
"585 700 CURVE SMOOTH",
"556 700 OFFCURVE",
"533 683 OFFCURVE",
"533 644 CURVE SMOOTH",
"533 605 OFFCURVE",
"556 588 OFFCURVE",
"585 588 CURVE SMOOTH"
);
},
{
closed = 1;
nodes = (
"174 506 OFFCURVE",
"221 341 OFFCURVE",
"221 151 CURVE SMOOTH",
"221 -38 OFFCURVE",
"190 -163 OFFCURVE",
"99 -278 CURVE",
"164 -325 LINE",
"257 -205 OFFCURVE",
"304 -59 OFFCURVE",
"304 140 CURVE SMOOTH",
"304 371 OFFCURVE",
"256 534 OFFCURVE",
"166 724 CURVE",
"93 691 LINE"
);
},
{
closed = 1;
nodes = (
"397 741 OFFCURVE",
"339 555 OFFCURVE",
"220 409 CURVE",
"255 341 LINE",
"412 506 OFFCURVE",
"479 714 OFFCURVE",
"516 1067 CURVE",
"433 1079 LINE"
);
},
{
closed = 1;
nodes = (
"366 578 LINE",
"408 481 OFFCURVE",
"447 357 OFFCURVE",
"466 239 CURVE",
"553 265 LINE",
"522 401 OFFCURVE",
"478 526 OFFCURVE",
"421 635 CURVE"
);
}
);
width = 666;
}
);
unicode = 1B1C1;
},
{
color = 4;
glyphname = u1B1C2;
lastChange = "2020-02-18 10:03:33 +0000";
layers = (
{
layerId = "CFFEBDE4-599A-46B2-9328-D96E42CD9C81";
paths = (
{
closed = 1;
nodes = (
"333 1079 LINE",
"255 791 OFFCURVE",
"166 586 OFFCURVE",
"30 397 CURVE",
"86 342 LINE",
"221 519 OFFCURVE",
"333 750 OFFCURVE",
"411 1063 CURVE"
);
},
{
closed = 1;
nodes = (
"407 688 LINE",
"299 444 OFFCURVE",
"226 293 OFFCURVE",
"62 119 CURVE",
"118 64 LINE",
"285 252 OFFCURVE",
"362 382 OFFCURVE",
"480 653 CURVE"
);
},
{
closed = 1;
nodes = (
"290 -271 LINE",
"313 0 OFFCURVE",
"289 370 OFFCURVE",
"227 624 CURVE",
"164 544 LINE",
"212 318 OFFCURVE",
"236 -33 OFFCURVE",
"213 -311 CURVE",
"291 -325 LINE",
"400 -188 OFFCURVE",
"496 -42 OFFCURVE",
"570 176 CURVE",
"493 205 LINE",
"435 10 OFFCURVE",
"348 -134 OFFCURVE",
"241 -271 CURVE"
);
},
{
closed = 1;
nodes = (
"325 134 LINE",
"390 -8 OFFCURVE",
"429 -134 OFFCURVE",
"462 -258 CURVE",
"541 -231 LINE",
"501 -93 OFFCURVE",
"461 24 OFFCURVE",
"399 167 CURVE"
);
}
);
width = 600;
}
);
unicode = 1B1C2;
},
{
color = 4;
glyphname = u1B1C3;
lastChange = "2020-02-14 12:28:18 +0000";
layers = (
{
layerId = "CFFEBDE4-599A-46B2-9328-D96E42CD9C81";
paths = (
{
closed = 1;
nodes = (
"423 1010 LINE",
"485 772 OFFCURVE",
"507 558 OFFCURVE",
"507 344 CURVE SMOOTH",
"507 216 OFFCURVE",
"498 125 OFFCURVE",
"482 21 CURVE",
"561 13 LINE",
"575 125 OFFCURVE",
"585 219 OFFCURVE",
"585 317 CURVE SMOOTH",
"585 595 OFFCURVE",
"554 820 OFFCURVE",
"489 1069 CURVE",
"409 1083 LINE",
"291 888 OFFCURVE",
"190 737 OFFCURVE",
"55 608 CURVE",
"71 443 OFFCURVE",
"82 298 OFFCURVE",
"82 136 CURVE SMOOTH",
"82 -26 OFFCURVE",
"65 -157 OFFCURVE",
"30 -311 CURVE",
"103 -325 LINE",
"135 -165 OFFCURVE",
"155 -31 OFFCURVE",
"155 136 CURVE SMOOTH",
"155 346 OFFCURVE",
"148 450 OFFCURVE",
"135 615 CURVE",
"113 551 LINE",
"249 687 OFFCURVE",
"363 845 OFFCURVE",
"466 1024 CURVE"
);
},
{
closed = 1;
nodes = (
"156 526 LINE",
"249 446 OFFCURVE",
"346 339 OFFCURVE",
"436 226 CURVE",
"490 283 LINE",
"389 408 OFFCURVE",
"295 506 OFFCURVE",
"199 587 CURVE"
);
},
{
closed = 1;
nodes = (
"374 808 LINE",
"341 540 OFFCURVE",
"272 269 OFFCURVE",
"180 21 CURVE",
"254 -8 LINE",
"350 253 OFFCURVE",
"413 506 OFFCURVE",
"452 796 CURVE"
);
}
);
width = 615;
}
);
unicode = 1B1C3;
},
{
color = 4;
glyphname = u1B1C4;
lastChange = "2020-01-30 15:46:52 +0000";
layers = (
{
layerId = "CFFEBDE4-599A-46B2-9328-D96E42CD9C81";
paths = (
{
closed = 1;
nodes = (
"40 387 LINE",
"185 174 OFFCURVE",
"258 -31 OFFCURVE",
"281 -325 CURVE",
"358 -310 LINE",
"325 10 OFFCURVE",
"244 222 OFFCURVE",
"93 449 CURVE",
"92 390 LINE",
"215 582 OFFCURVE",
"284 782 OFFCURVE",
"305 1072 CURVE",
"229 1079 LINE",
"209 804 OFFCURVE",
"153 633 OFFCURVE",
"40 458 CURVE"
);
},
{
closed = 1;
nodes = (
"185 739 OFFCURVE",
"243 598 OFFCURVE",
"243 427 CURVE SMOOTH",
"243 244 OFFCURVE",
"196 117 OFFCURVE",
"46 -48 CURVE",
"102 -100 LINE",
"254 66 OFFCURVE",
"325 222 OFFCURVE",
"325 439 CURVE SMOOTH",
"325 628 OFFCURVE",
"244 797 OFFCURVE",
"72 924 CURVE",
"25 855 LINE"
);
},
{
closed = 1;
nodes = (
"366 334 OFFCURVE",
"397 262 OFFCURVE",
"492 174 CURVE",
"573 195 LINE",
"624 326 OFFCURVE",
"643 412 OFFCURVE",
"643 519 CURVE SMOOTH",
"643 598 OFFCURVE",
"603 676 OFFCURVE",
"507 745 CURVE",
"431 735 LINE",
"387 597 OFFCURVE",
"366 498 OFFCURVE",
"366 420 CURVE SMOOTH"
);
},
{
closed = 1;
nodes = (
"462 687 LINE",
"535 615 OFFCURVE",
"563 561 OFFCURVE",
"563 503 CURVE SMOOTH",
"563 442 OFFCURVE",
"547 346 OFFCURVE",
"513 224 CURVE",
"531 240 LINE",
"478 302 OFFCURVE",
"449 366 OFFCURVE",
"449 421 CURVE SMOOTH",
"449 488 OFFCURVE",
"459 567 OFFCURVE",
"491 684 CURVE"
);
}
);
width = 673;
}
);
unicode = 1B1C4;
},
{
color = 4;
glyphname = u1B1C5;
lastChange = "2020-01-30 10:10:12 +0000";
layers = (
{
layerId = "CFFEBDE4-599A-46B2-9328-D96E42CD9C81";
paths = (
{
closed = 1;
nodes = (
"208 -25 OFFCURVE",
"231 -8 OFFCURVE",
"231 31 CURVE SMOOTH",
"231 70 OFFCURVE",
"208 87 OFFCURVE",
"180 87 CURVE SMOOTH",
"151 87 OFFCURVE",
"128 70 OFFCURVE",
"128 31 CURVE SMOOTH",
"128 -8 OFFCURVE",
"151 -25 OFFCURVE",
"180 -25 CURVE SMOOTH"
);
},
{
closed = 1;
nodes = (
"515 418 OFFCURVE",
"538 435 OFFCURVE",
"538 474 CURVE SMOOTH",
"538 513 OFFCURVE",
"515 530 OFFCURVE",
"487 530 CURVE SMOOTH",
"458 530 OFFCURVE",
"435 513 OFFCURVE",
"435 474 CURVE SMOOTH",
"435 435 OFFCURVE",
"458 418 OFFCURVE",
"487 418 CURVE SMOOTH"
);
},
{
closed = 1;
nodes = (
"439 1079 LINE",
"353 719 OFFCURVE",
"223 446 OFFCURVE",
"20 192 CURVE",
"81 142 LINE",
"284 392 OFFCURVE",
"431 699 OFFCURVE",
"516 1064 CURVE"
);
},
{
closed = 1;
nodes = (
"526 300 LINE",
"425 93 OFFCURVE",
"300 -108 OFFCURVE",
"156 -271 CURVE",
"214 -325 LINE",
"373 -136 OFFCURVE",
"489 39 OFFCURVE",
"600 262 CURVE"
);
},
{
closed = 1;
nodes = (
"439 26 LINE",
"356 322 OFFCURVE",
"228 624 OFFCURVE",
"100 857 CURVE",
"26 809 LINE",
"164 571 OFFCURVE",
"281 301 OFFCURVE",
"374 -6 CURVE"
);
}
);
width = 620;
}
);
unicode = 1B1C5;
},
{
color = 4;
glyphname = u1B1C6;
lastChange = "2020-01-30 10:10:12 +0000";
layers = (
{
layerId = "CFFEBDE4-599A-46B2-9328-D96E42CD9C81";
paths = (
{
closed = 1;
nodes = (
"189 -12 OFFCURVE",
"212 5 OFFCURVE",
"212 44 CURVE SMOOTH",
"212 83 OFFCURVE",
"189 100 OFFCURVE",
"161 100 CURVE SMOOTH",
"132 100 OFFCURVE",
"109 83 OFFCURVE",
"109 44 CURVE SMOOTH",
"109 5 OFFCURVE",
"132 -12 OFFCURVE",
"161 -12 CURVE SMOOTH"
);
},
{
closed = 1;
nodes = (
"494 418 OFFCURVE",
"517 435 OFFCURVE",
"517 474 CURVE SMOOTH",
"517 513 OFFCURVE",
"494 530 OFFCURVE",
"466 530 CURVE SMOOTH",
"437 530 OFFCURVE",
"414 513 OFFCURVE",
"414 474 CURVE SMOOTH",
"414 435 OFFCURVE",
"437 418 OFFCURVE",
"466 418 CURVE SMOOTH"
);
},
{
closed = 1;
nodes = (
"439 1079 LINE",
"346 736 OFFCURVE",
"197 456 OFFCURVE",
"20 252 CURVE",
"81 202 LINE",
"254 402 OFFCURVE",
"421 703 OFFCURVE",
"516 1064 CURVE"
);
},
{
closed = 1;
nodes = (
"526 263 LINE",
"428 66 OFFCURVE",
"300 -120 OFFCURVE",
"156 -271 CURVE",
"214 -325 LINE",
"373 -148 OFFCURVE",
"492 12 OFFCURVE",
"600 225 CURVE"
);
},
{
closed = 1;
nodes = (
"204 415 LINE",
"277 232 OFFCURVE",
"323 101 OFFCURVE",
"364 -36 CURVE",
"429 -4 LINE",
"385 152 OFFCURVE",
"329 312 OFFCURVE",
"257 484 CURVE"
);
}
);
width = 620;
}
);
unicode = 1B1C6;
},
{
color = 4;
glyphname = u1B1C7;
lastChange = "2020-02-16 15:37:22 +0000";
layers = (
{
layerId = "CFFEBDE4-599A-46B2-9328-D96E42CD9C81";
paths = (
{
closed = 1;
nodes = (
"437 1079 LINE",
"348 838 OFFCURVE",
"226 690 OFFCURVE",
"30 539 CURVE",
"79 472 LINE",
"298 631 OFFCURVE",
"417 797 OFFCURVE",
"518 1058 CURVE"
);
},
{
closed = 1;
nodes = (
"444 813 OFFCURVE",
"471 779 OFFCURVE",
"471 703 CURVE SMOOTH",
"471 579 OFFCURVE",
"377 443 OFFCURVE",
"97 250 CURVE",
"143 183 LINE",
"453 389 OFFCURVE",
"554 548 OFFCURVE",
"554 714 CURVE SMOOTH",
"554 788 OFFCURVE",
"524 859 OFFCURVE",
"444 930 CURVE",
"382 883 LINE"
);
},
{
closed = 1;
nodes = (
"106 963 LINE",
"268 668 OFFCURVE",
"325 426 OFFCURVE",
"325 102 CURVE SMOOTH",
"325 -70 OFFCURVE",
"306 -183 OFFCURVE",
"269 -308 CURVE",
"344 -325 LINE",
"388 -178 OFFCURVE",
"405 -66 OFFCURVE",
"405 112 CURVE SMOOTH",
"405 416 OFFCURVE",
"337 733 OFFCURVE",
"177 1003 CURVE"
);
},
{
closed = 1;
nodes = (
"213 -30 OFFCURVE",
"236 -13 OFFCURVE",
"236 26 CURVE SMOOTH",
"236 65 OFFCURVE",
"213 82 OFFCURVE",
"185 82 CURVE SMOOTH",
"156 82 OFFCURVE",
"133 65 OFFCURVE",
"133 26 CURVE SMOOTH",
"133 -13 OFFCURVE",
"156 -30 OFFCURVE",
"185 -30 CURVE SMOOTH"
);
},
{
closed = 1;
nodes = (
"570 185 OFFCURVE",
"593 202 OFFCURVE",
"593 241 CURVE SMOOTH",
"593 280 OFFCURVE",
"570 297 OFFCURVE",
"542 297 CURVE SMOOTH",
"513 297 OFFCURVE",
"490 280 OFFCURVE",
"490 241 CURVE SMOOTH",
"490 202 OFFCURVE",
"513 185 OFFCURVE",
"542 185 CURVE SMOOTH"
);
}
);
width = 623;
}
);
unicode = 1B1C7;
},
{
color = 4;
glyphname = u1B1C8;
lastChange = "2020-02-12 15:08:00 +0000";
layers = (
{
layerId = "CFFEBDE4-599A-46B2-9328-D96E42CD9C81";
paths = (
{
closed = 1;
nodes = (
"378 604 LINE",
"323 384 OFFCURVE",
"243 184 OFFCURVE",
"155 1 CURVE",
"204 -86 LINE",
"297 102 OFFCURVE",
"371 277 OFFCURVE",
"427 474 CURVE"
);
},
{
closed = 1;
nodes = (
"242 778 LINE",
"323 625 OFFCURVE",
"406 435 OFFCURVE",
"478 210 CURVE",
"489 362 LINE",
"427 133 OFFCURVE",
"343 -80 OFFCURVE",
"266 -240 CURVE",
"295 -258 LINE",
"246 -92 OFFCURVE",
"177 101 OFFCURVE",
"105 271 CURVE",
"96 169 LINE",
"230 450 OFFCURVE",
"308 729 OFFCURVE",
"374 1064 CURVE",
"287 1079 LINE",
"225 758 OFFCURVE",
"142 484 OFFCURVE",
"30 228 CURVE",
"101 62 OFFCURVE",
"170 -130 OFFCURVE",
"221 -315 CURVE",
"309 -325 LINE",
"410 -148 OFFCURVE",
"490 50 OFFCURVE",
"554 285 CURVE",
"487 481 OFFCURVE",
"399 683 OFFCURVE",
"306 854 CURVE"
);
}
);
width = 584;
}
);
unicode = 1B1C8;
},
{
color = 4;
glyphname = u1B1C9;
lastChange = "2020-02-17 15:34:38 +0000";
layers = (
{
layerId = "CFFEBDE4-599A-46B2-9328-D96E42CD9C81";
paths = (
{
closed = 1;
nodes = (
"407 1079 LINE",
"344 902 OFFCURVE",
"260 764 OFFCURVE",
"95 611 CURVE",
"149 547 LINE",
"326 717 OFFCURVE",
"416 856 OFFCURVE",
"488 1056 CURVE"
);
},
{
closed = 1;
nodes = (
"427 823 OFFCURVE",
"442 788 OFFCURVE",
"442 727 CURVE SMOOTH",
"442 624 OFFCURVE",
"357 472 OFFCURVE",
"147 298 CURVE",
"201 235 LINE",
"434 437 OFFCURVE",
"530 586 OFFCURVE",
"530 737 CURVE SMOOTH",
"530 810 OFFCURVE",
"497 874 OFFCURVE",
"421 953 CURVE",
"367 885 LINE"
);
},
{
closed = 1;
nodes = (
"344 449 LINE",
"374 324 OFFCURVE",
"383 234 OFFCURVE",
"383 138 CURVE SMOOTH",
"383 48 OFFCURVE",
"373 -52 OFFCURVE",
"353 -141 CURVE",
"439 -153 LINE",
"460 -63 OFFCURVE",
"472 57 OFFCURVE",
"472 138 CURVE SMOOTH",
"472 248 OFFCURVE",
"457 365 OFFCURVE",
"406 518 CURVE"
);
},
{
closed = 1;
nodes = (
"249 152 LINE",
"179 -3 OFFCURVE",
"127 -98 OFFCURVE",
"35 -211 CURVE",
"98 -263 LINE",
"209 -119 OFFCURVE",
"253 -30 OFFCURVE",
"323 115 CURVE"
);
},
{
closed = 1;
nodes = (
"30 134 LINE",
"115 -7 OFFCURVE",
"187 -171 OFFCURVE",
"238 -325 CURVE",
"315 -303 LINE",
"253 -115 OFFCURVE",
"183 45 OFFCURVE",
"97 178 CURVE"
);
}
);
width = 560;
}
);
unicode = 1B1C9;
},
{
color = 4;
glyphname = u1B1CA;
lastChange = "2020-01-30 14:14:24 +0000";
layers = (
{
layerId = "CFFEBDE4-599A-46B2-9328-D96E42CD9C81";
paths = (
{
closed = 1;
nodes = (
"328 43 LINE",
"431 157 OFFCURVE",
"484 226 OFFCURVE",
"542 338 CURVE",
"514 336 LINE",
"529 248 OFFCURVE",
"529 164 OFFCURVE",
"529 48 CURVE",
"615 48 LINE",
"615 183 OFFCURVE",
"604 290 OFFCURVE",
"581 393 CURVE",
"494 403 LINE",
"431 290 OFFCURVE",
"371 208 OFFCURVE",
"298 122 CURVE"
);
},
{
closed = 1;
nodes = (
"217 649 LINE",
"257 525 OFFCURVE",
"272 329 OFFCURVE",
"272 126 CURVE SMOOTH",
"272 -21 OFFCURVE",
"263 -145 OFFCURVE",
"231 -314 CURVE",
"310 -325 LINE",
"340 -156 OFFCURVE",
"352 -8 OFFCURVE",
"352 164 CURVE SMOOTH",
"352 367 OFFCURVE",
"322 579 OFFCURVE",
"269 717 CURVE"
);
},
{
closed = 1;
nodes = (
"395 1079 LINE",
"304 842 OFFCURVE",
"200 655 OFFCURVE",
"20 480 CURVE",
"75 424 LINE",
"258 605 OFFCURVE",
"377 821 OFFCURVE",
"469 1056 CURVE"
);
},
{
closed = 1;
nodes = (
"490 753 LINE",
"366 531 OFFCURVE",
"226 366 OFFCURVE",
"51 208 CURVE",
"100 148 LINE",
"269 304 OFFCURVE",
"415 474 OFFCURVE",
"555 712 CURVE"
);
}
);
width = 635;
}
);
unicode = 1B1CA;
},
{
color = 4;
glyphname = u1B1CB;
lastChange = "2020-01-29 14:56:14 +0000";
layers = (
{
layerId = "CFFEBDE4-599A-46B2-9328-D96E42CD9C81";
paths = (
{
closed = 1;
nodes = (
"141 84 OFFCURVE",
"164 101 OFFCURVE",
"164 140 CURVE SMOOTH",
"164 179 OFFCURVE",
"141 196 OFFCURVE",
"113 196 CURVE SMOOTH",
"84 196 OFFCURVE",
"61 179 OFFCURVE",
"61 140 CURVE SMOOTH",
"61 101 OFFCURVE",
"84 84 OFFCURVE",
"113 84 CURVE SMOOTH"
);
},
{
closed = 1;
nodes = (
"100 -120 OFFCURVE",
"123 -103 OFFCURVE",
"123 -64 CURVE SMOOTH",
"123 -25 OFFCURVE",
"100 -8 OFFCURVE",
"72 -8 CURVE SMOOTH",
"43 -8 OFFCURVE",
"20 -25 OFFCURVE",
"20 -64 CURVE SMOOTH",
"20 -103 OFFCURVE",
"43 -120 OFFCURVE",
"72 -120 CURVE SMOOTH"
);
},
{
closed = 1;
nodes = (
"79 419 LINE",
"194 271 OFFCURVE",
"295 119 OFFCURVE",
"403 -66 CURVE",
"470 -27 LINE",
"356 166 OFFCURVE",
"255 317 OFFCURVE",
"129 483 CURVE",
"133 425 LINE",
"239 638 OFFCURVE",
"303 827 OFFCURVE",
"351 1068 CURVE",
"273 1079 LINE",
"227 855 OFFCURVE",
"162 657 OFFCURVE",
"79 490 CURVE"
);
},
{
closed = 1;
nodes = (
"285 697 OFFCURVE",
"305 593 OFFCURVE",
"305 464 CURVE SMOOTH",
"305 227 OFFCURVE",
"257 0 OFFCURVE",
"75 -285 CURVE",
"139 -325 LINE",
"326 -44 OFFCURVE",
"391 217 OFFCURVE",
"391 464 CURVE SMOOTH",
"391 628 OFFCURVE",
"356 739 OFFCURVE",
"270 878 CURVE",
"235 800 LINE"
);
}
);
width = 500;
}
);
unicode = 1B1CB;
},
{
color = 4;
glyphname = u1B1CC;
lastChange = "2020-02-17 16:22:54 +0000";
layers = (
{
layerId = "CFFEBDE4-599A-46B2-9328-D96E42CD9C81";
paths = (
{
closed = 1;
nodes = (
"432 690 LINE",
"328 523 OFFCURVE",
"252 433 OFFCURVE",
"133 335 CURVE",
"174 277 LINE",
"297 379 OFFCURVE",
"389 478 OFFCURVE",
"495 652 CURVE"
);
},
{
closed = 1;
nodes = (
"258 -48 OFFCURVE",
"284 -112 OFFCURVE",
"377 -177 CURVE",
"451 -165 LINE",
"515 -34 OFFCURVE",
"542 41 OFFCURVE",
"542 130 CURVE SMOOTH",
"542 205 OFFCURVE",
"509 267 OFFCURVE",
"422 340 CURVE",
"338 328 LINE",
"273 182 OFFCURVE",
"258 108 OFFCURVE",
"258 30 CURVE SMOOTH"
);
},
{
closed = 1;
nodes = (
"372 278 LINE",
"432 222 OFFCURVE",
"462 185 OFFCURVE",
"462 130 CURVE SMOOTH",
"462 62 OFFCURVE",
"439 -16 OFFCURVE",
"395 -113 CURVE",
"413 -107 LINE",
"357 -61 OFFCURVE",
"341 -20 OFFCURVE",
"341 41 CURVE SMOOTH",
"341 107 OFFCURVE",
"357 170 OFFCURVE",
"401 280 CURVE"
);
},
{
closed = 1;
nodes = (
"374 1079 LINE",
"299 882 OFFCURVE",
"192 697 OFFCURVE",
"51 536 CURVE",
"99 413 OFFCURVE",
"121 306 OFFCURVE",
"121 150 CURVE SMOOTH",
"121 -15 OFFCURVE",
"92 -158 OFFCURVE",
"30 -298 CURVE",
"106 -325 LINE",
"174 -168 OFFCURVE",
"201 -22 OFFCURVE",
"201 157 CURVE SMOOTH",
"201 319 OFFCURVE",
"176 437 OFFCURVE",
"125 547 CURVE",
"130 498 LINE",
"267 668 OFFCURVE",
"374 844 OFFCURVE",
"452 1058 CURVE"
);
}
);
width = 572;
}
);
unicode = 1B1CC;
},
{
color = 4;
glyphname = u1B1CD;
lastChange = "2020-02-17 15:34:38 +0000";
layers = (
{
layerId = "CFFEBDE4-599A-46B2-9328-D96E42CD9C81";
paths = (
{
closed = 1;
nodes = (
"242 224 LINE",
"182 74 OFFCURVE",
"122 -48 OFFCURVE",
"30 -161 CURVE",
"93 -213 LINE",
"204 -69 OFFCURVE",
"259 47 OFFCURVE",
"319 194 CURVE"
);
},
{
closed = 1;
nodes = (
"35 204 LINE",
"132 38 OFFCURVE",
"204 -148 OFFCURVE",
"243 -325 CURVE",
"320 -303 LINE",
"270 -92 OFFCURVE",
"200 90 OFFCURVE",
"102 248 CURVE"
);
},
{
closed = 1;
nodes = (
"429 1079 LINE",
"343 841 OFFCURVE",
"221 631 OFFCURVE",
"93 468 CURVE",
"153 416 LINE",
"281 581 OFFCURVE",
"425 824 OFFCURVE",
"504 1054 CURVE"
);
},
{
closed = 1;
nodes = (
"540 422 LINE",
"477 297 OFFCURVE",
"378 139 OFFCURVE",
"267 -5 CURVE",
"326 -58 LINE",
"446 85 OFFCURVE",
"540 238 OFFCURVE",
"613 389 CURVE"
);
},
{
closed = 1;
nodes = (
"285 678 LINE",
"334 508 OFFCURVE",
"376 309 OFFCURVE",
"395 121 CURVE",
"465 149 LINE",
"450 354 OFFCURVE",
"406 558 OFFCURVE",
"344 759 CURVE"
);
}
);
width = 643;
}
);
unicode = 1B1CD;
},
{
color = 4;
glyphname = u1B1CE;
lastChange = "2020-02-13 16:29:51 +0000";
layers = (
{
layerId = "CFFEBDE4-599A-46B2-9328-D96E42CD9C81";
paths = (
{
closed = 1;
nodes = (
"391 313 OFFCURVE",
"325 374 OFFCURVE",
"231 473 CURVE",
"241 433 LINE",
"299 622 OFFCURVE",
"343 809 OFFCURVE",
"391 1064 CURVE",
"305 1079 LINE",
"264 854 OFFCURVE",
"221 661 OFFCURVE",
"152 437 CURVE",
"268 323 OFFCURVE",
"341 246 OFFCURVE",
"409 138 CURVE",
"489 133 LINE",
"547 298 OFFCURVE",
"585 455 OFFCURVE",
"619 636 CURVE",
"533 656 LINE",
"503 475 OFFCURVE",
"474 346 OFFCURVE",
"425 204 CURVE",
"461 208 LINE"
);
},
{
closed = 1;
nodes = (
"242 -81 LINE",
"281 36 OFFCURVE",
"318 155 OFFCURVE",
"352 312 CURVE",
"277 336 LINE",
"249 194 OFFCURVE",
"220 95 OFFCURVE",
"177 -34 CURVE"
);
},
{
closed = 1;
nodes = (
"414 -286 LINE",
"322 -136 OFFCURVE",
"216 0 OFFCURVE",
"80 135 CURVE",
"28 68 LINE",
"153 -54 OFFCURVE",
"255 -183 OFFCURVE",
"345 -325 CURVE"
);
}
);
width = 651;
}
);
unicode = 1B1CE;
},
{
color = 4;
glyphname = u1B1CF;
lastChange = "2020-02-13 16:53:55 +0000";
layers = (
{
layerId = "CFFEBDE4-599A-46B2-9328-D96E42CD9C81";
paths = (
{
closed = 1;
nodes = (
"191 322 LINE",
"176 444 OFFCURVE",
"156 600 OFFCURVE",
"106 742 CURVE",
"30 716 LINE",
"72 576 OFFCURVE",
"101 430 OFFCURVE",
"121 286 CURVE",
"215 260 LINE",
"382 536 OFFCURVE",
"470 785 OFFCURVE",
"532 1059 CURVE",
"447 1079 LINE",
"389 809 OFFCURVE",
"300 557 OFFCURVE",
"165 323 CURVE"
);
},
{
closed = 1;
nodes = (
"225 -325 LINE",
"333 -178 OFFCURVE",
"389 14 OFFCURVE",
"389 245 CURVE SMOOTH",
"389 469 OFFCURVE",
"338 714 OFFCURVE",
"241 966 CURVE",
"161 936 LINE",
"266 650 OFFCURVE",
"303 461 OFFCURVE",
"303 229 CURVE SMOOTH",
"303 21 OFFCURVE",
"256 -119 OFFCURVE",
"154 -288 CURVE"
);
},
{
closed = 1;
nodes = (
"538 480 OFFCURVE",
"561 497 OFFCURVE",
"561 536 CURVE SMOOTH",
"561 575 OFFCURVE",
"538 592 OFFCURVE",
"510 592 CURVE SMOOTH",
"481 592 OFFCURVE",
"458 575 OFFCURVE",
"458 536 CURVE SMOOTH",
"458 497 OFFCURVE",
"481 480 OFFCURVE",
"510 480 CURVE SMOOTH"
);
},
{
closed = 1;
nodes = (
"547 173 OFFCURVE",
"570 190 OFFCURVE",
"570 229 CURVE SMOOTH",
"570 268 OFFCURVE",
"547 285 OFFCURVE",
"519 285 CURVE SMOOTH",
"490 285 OFFCURVE",
"467 268 OFFCURVE",
"467 229 CURVE SMOOTH",
"467 190 OFFCURVE",
"490 173 OFFCURVE",
"519 173 CURVE SMOOTH"
);
}
);
width = 600;
}
);
unicode = 1B1CF;
},
{
color = 4;
glyphname = u1B1D0;
lastChange = "2020-02-17 15:07:14 +0000";
layers = (
{
layerId = "CFFEBDE4-599A-46B2-9328-D96E42CD9C81";
paths = (
{
closed = 1;
nodes = (
"116 202 OFFCURVE",
"75 102 OFFCURVE",
"75 9 CURVE SMOOTH",
"75 -129 OFFCURVE",
"140 -237 OFFCURVE",
"319 -325 CURVE",
"365 -253 LINE",
"206 -172 OFFCURVE",
"161 -78 OFFCURVE",
"161 9 CURVE SMOOTH",
"161 95 OFFCURVE",
"191 151 OFFCURVE",
"272 203 CURVE",
"260 299 LINE",
"168 342 OFFCURVE",
"118 419 OFFCURVE",
"118 511 CURVE SMOOTH",
"118 579 OFFCURVE",
"135 629 OFFCURVE",
"212 715 CURVE",
"153 772 LINE",
"56 678 OFFCURVE",
"30 592 OFFCURVE",
"30 509 CURVE SMOOTH",
"30 382 OFFCURVE",
"96 280 OFFCURVE",
"220 229 CURVE",
"220 265 LINE"
);
},
{
closed = 1;
nodes = (
"468 1079 LINE",
"382 841 OFFCURVE",
"300 680 OFFCURVE",
"184 525 CURVE",
"244 473 LINE",
"360 630 OFFCURVE",
"464 824 OFFCURVE",
"543 1054 CURVE"
);
},
{
closed = 1;
nodes = (
"569 452 LINE",
"506 327 OFFCURVE",
"407 169 OFFCURVE",
"296 25 CURVE",
"355 -28 LINE",
"475 115 OFFCURVE",
"569 268 OFFCURVE",
"642 419 CURVE"
);
},
{
closed = 1;
nodes = (
"324 678 LINE",
"373 508 OFFCURVE",
"405 339 OFFCURVE",
"424 151 CURVE",
"494 179 LINE",
"479 384 OFFCURVE",
"445 558 OFFCURVE",
"383 759 CURVE"
);
}
);
width = 672;
}
);
unicode = 1B1D0;
},
{
color = 4;
glyphname = u1B1D1;
lastChange = "2020-02-17 16:22:54 +0000";
layers = (
{
layerId = "CFFEBDE4-599A-46B2-9328-D96E42CD9C81";
paths = (
{
closed = 1;
nodes = (
"236 416 LINE",
"322 298 OFFCURVE",
"408 163 OFFCURVE",
"480 19 CURVE",
"546 58 LINE",
"470 204 OFFCURVE",
"381 346 OFFCURVE",
"283 478 CURVE",
"280 420 LINE",
"365 523 OFFCURVE",
"429 625 OFFCURVE",
"493 760 CURVE",
"419 792 LINE",
"361 655 OFFCURVE",
"308 578 OFFCURVE",
"236 487 CURVE"
);
},
{
closed = 1;
nodes = (
"405 547 OFFCURVE",
"414 493 OFFCURVE",
"414 415 CURVE SMOOTH",
"414 248 OFFCURVE",
"373 79 OFFCURVE",
"221 -152 CURVE",
"284 -195 LINE",
"449 49 OFFCURVE",
"492 258 OFFCURVE",
"492 409 CURVE SMOOTH",
"492 507 OFFCURVE",
"474 591 OFFCURVE",
"419 691 CURVE",
"381 613 LINE"
);
},
{
closed = 1;
nodes = (
"374 1079 LINE",
"299 882 OFFCURVE",
"192 697 OFFCURVE",
"51 536 CURVE",
"99 413 OFFCURVE",
"121 306 OFFCURVE",
"121 150 CURVE SMOOTH",
"121 -15 OFFCURVE",
"92 -158 OFFCURVE",
"30 -298 CURVE",
"106 -325 LINE",
"174 -168 OFFCURVE",
"201 -22 OFFCURVE",
"201 157 CURVE SMOOTH",
"201 319 OFFCURVE",
"176 437 OFFCURVE",
"125 547 CURVE",
"130 498 LINE",
"267 668 OFFCURVE",
"374 844 OFFCURVE",
"452 1058 CURVE"
);
}
);
width = 576;
}
);
unicode = 1B1D1;
},
{
color = 4;
glyphname = u1B1D2;
lastChange = "2020-02-16 15:37:22 +0000";
layers = (
{
layerId = "CFFEBDE4-599A-46B2-9328-D96E42CD9C81";
paths = (
{
closed = 1;
nodes = (
"478 14 OFFCURVE",
"523 -74 OFFCURVE",
"617 -150 CURVE",
"664 -93 LINE",
"590 -32 OFFCURVE",
"556 42 OFFCURVE",
"556 141 CURVE SMOOTH",
"556 236 OFFCURVE",
"584 323 OFFCURVE",
"655 414 CURVE",
"595 457 LINE",
"505 339 OFFCURVE",
"478 250 OFFCURVE",
"478 140 CURVE SMOOTH"
);
},
{
closed = 1;
nodes = (
"692 103 OFFCURVE",
"715 120 OFFCURVE",
"715 159 CURVE SMOOTH",
"715 198 OFFCURVE",
"692 215 OFFCURVE",
"664 215 CURVE SMOOTH",
"635 215 OFFCURVE",
"612 198 OFFCURVE",
"612 159 CURVE SMOOTH",
"612 120 OFFCURVE",
"635 103 OFFCURVE",
"664 103 CURVE SMOOTH"
);
},
{
closed = 1;
nodes = (
"437 1079 LINE",
"348 838 OFFCURVE",
"226 690 OFFCURVE",
"30 539 CURVE",
"79 472 LINE",
"298 631 OFFCURVE",
"417 797 OFFCURVE",
"518 1058 CURVE"
);
},
{
closed = 1;
nodes = (
"444 813 OFFCURVE",
"471 779 OFFCURVE",
"471 703 CURVE SMOOTH",
"471 579 OFFCURVE",
"377 443 OFFCURVE",
"97 250 CURVE",
"143 183 LINE",
"453 389 OFFCURVE",
"554 548 OFFCURVE",
"554 714 CURVE SMOOTH",
"554 788 OFFCURVE",
"524 859 OFFCURVE",
"444 930 CURVE",
"382 883 LINE"
);
},
{
closed = 1;
nodes = (
"106 963 LINE",
"268 668 OFFCURVE",
"325 426 OFFCURVE",
"325 102 CURVE SMOOTH",
"325 -70 OFFCURVE",
"306 -183 OFFCURVE",
"269 -308 CURVE",
"344 -325 LINE",
"388 -178 OFFCURVE",
"405 -66 OFFCURVE",
"405 112 CURVE SMOOTH",
"405 416 OFFCURVE",
"337 733 OFFCURVE",
"177 1003 CURVE"
);
}
);
width = 745;
}
);
unicode = 1B1D2;
},
{
color = 4;
glyphname = u1B1D3;
lastChange = "2020-02-13 16:29:51 +0000";
layers = (
{
layerId = "CFFEBDE4-599A-46B2-9328-D96E42CD9C81";
paths = (
{
closed = 1;
nodes = (
"255 -86 LINE",
"345 96 OFFCURVE",
"433 399 OFFCURVE",
"512 761 CURVE",
"429 777 LINE",
"356 430 OFFCURVE",
"268 138 OFFCURVE",
"186 -43 CURVE"
);
},
{
closed = 1;
nodes = (
"423 273 OFFCURVE",
"327 374 OFFCURVE",
"233 473 CURVE",
"243 433 LINE",
"301 622 OFFCURVE",
"341 802 OFFCURVE",
"383 1064 CURVE",
"297 1079 LINE",
"264 868 OFFCURVE",
"223 661 OFFCURVE",
"154 437 CURVE",
"270 323 OFFCURVE",
"373 206 OFFCURVE",
"441 98 CURVE",
"521 93 LINE",
"590 267 OFFCURVE",
"637 421 OFFCURVE",
"671 592 CURVE",
"585 612 LINE",
"552 441 OFFCURVE",
"514 316 OFFCURVE",
"457 164 CURVE",
"493 168 LINE"
);
},
{
closed = 1;
nodes = (
"416 -286 LINE",
"324 -136 OFFCURVE",
"218 0 OFFCURVE",
"82 127 CURVE",
"30 68 LINE",
"155 -54 OFFCURVE",
"257 -183 OFFCURVE",
"347 -325 CURVE"
);
}
);
width = 701;
}
);
unicode = 1B1D3;
},
{
color = 4;
glyphname = u1B1D4;
lastChange = "2020-02-14 11:26:31 +0000";
layers = (
{
layerId = "CFFEBDE4-599A-46B2-9328-D96E42CD9C81";
paths = (
{
closed = 1;
nodes = (
"423 -325 LINE",
"440 -212 OFFCURVE",
"445 -100 OFFCURVE",
"445 14 CURVE SMOOTH",
"445 423 OFFCURVE",
"356 691 OFFCURVE",
"208 919 CURVE",
"139 876 LINE",
"286 652 OFFCURVE",
"365 415 OFFCURVE",
"365 2 CURVE SMOOTH",
"365 -106 OFFCURVE",
"356 -209 OFFCURVE",
"344 -317 CURVE"
);
},
{
closed = 1;
nodes = (
"442 1079 LINE",
"359 856 OFFCURVE",
"264 680 OFFCURVE",
"101 479 CURVE",
"160 431 LINE",
"328 645 OFFCURVE",
"427 806 OFFCURVE",
"516 1056 CURVE"
);
},
{
closed = 1;
nodes = (
"502 677 LINE",
"415 522 OFFCURVE",
"298 378 OFFCURVE",
"190 275 CURVE",
"244 223 LINE",
"347 324 OFFCURVE",
"466 467 OFFCURVE",
"569 639 CURVE"
);
},
{
closed = 1;
nodes = (
"20 -132 OFFCURVE",
"51 -180 OFFCURVE",
"113 -225 CURVE",
"184 -216 LINE",
"234 -138 OFFCURVE",
"265 -52 OFFCURVE",
"265 19 CURVE SMOOTH",
"265 69 OFFCURVE",
"234 116 OFFCURVE",
"168 168 CURVE",
"94 158 LINE",
"44 76 OFFCURVE",
"20 -7 OFFCURVE",
"20 -75 CURVE SMOOTH"
);
},
{
closed = 1;
nodes = (
"121 121 LINE",
"168 76 OFFCURVE",
"185 42 OFFCURVE",
"185 13 CURVE SMOOTH",
"185 -35 OFFCURVE",
"172 -97 OFFCURVE",
"133 -178 CURVE",
"157 -178 LINE",
"114 -133 OFFCURVE",
"100 -105 OFFCURVE",
"100 -66 CURVE SMOOTH",
"100 -18 OFFCURVE",
"117 50 OFFCURVE",
"156 124 CURVE"
);
}
);
width = 599;
}
);
unicode = 1B1D4;
},
{
color = 4;
glyphname = u1B1D5;
lastChange = "2020-01-29 14:22:20 +0000";
layers = (
{
layerId = "CFFEBDE4-599A-46B2-9328-D96E42CD9C81";
paths = (
{
closed = 1;
nodes = (
"114 462 OFFCURVE",
"137 479 OFFCURVE",
"137 518 CURVE SMOOTH",
"137 557 OFFCURVE",
"114 574 OFFCURVE",
"86 574 CURVE SMOOTH",
"57 574 OFFCURVE",
"34 557 OFFCURVE",
"34 518 CURVE SMOOTH",
"34 479 OFFCURVE",
"57 462 OFFCURVE",
"86 462 CURVE SMOOTH"
);
},
{
closed = 1;
nodes = (
"285 890 OFFCURVE",
"308 907 OFFCURVE",
"308 946 CURVE SMOOTH",
"308 985 OFFCURVE",
"285 1002 OFFCURVE",
"257 1002 CURVE SMOOTH",
"228 1002 OFFCURVE",
"205 985 OFFCURVE",
"205 946 CURVE SMOOTH",
"205 907 OFFCURVE",
"228 890 OFFCURVE",
"257 890 CURVE SMOOTH"
);
},
{
closed = 1;
nodes = (
"421 1079 LINE",
"363 765 OFFCURVE",
"264 457 OFFCURVE",
"99 190 CURVE",
"168 147 LINE",
"330 411 OFFCURVE",
"433 730 OFFCURVE",
"502 1066 CURVE"
);
},
{
closed = 1;
nodes = (
"69 809 LINE",
"299 477 OFFCURVE",
"424 113 OFFCURVE",
"490 -325 CURVE",
"570 -312 LINE",
"504 165 OFFCURVE",
"353 536 OFFCURVE",
"134 855 CURVE"
);
},
{
closed = 1;
nodes = (
"383 252 LINE",
"320 101 OFFCURVE",
"248 -25 OFFCURVE",
"157 -157 CURVE",
"223 -206 LINE",
"309 -81 OFFCURVE",
"376 38 OFFCURVE",
"438 214 CURVE"
);
}
);
width = 610;
}
);
unicode = 1B1D5;
},
{
color = 4;
glyphname = u1B1D6;
lastChange = "2020-01-29 16:05:49 +0000";
layers = (
{
layerId = "CFFEBDE4-599A-46B2-9328-D96E42CD9C81";
paths = (
{
closed = 1;
nodes = (
"357 1079 LINE",
"282 839 OFFCURVE",
"184 628 OFFCURVE",
"30 404 CURVE",
"98 359 LINE",
"253 584 OFFCURVE",
"354 801 OFFCURVE",
"436 1063 CURVE"
);
},
{
closed = 1;
nodes = (
"51 826 LINE",
"245 509 OFFCURVE",
"380 162 OFFCURVE",
"476 -235 CURVE",
"555 -214 LINE",
"454 211 OFFCURVE",
"300 567 OFFCURVE",
"117 871 CURVE"
);
},
{
closed = 1;
nodes = (
"281 471 LINE",
"219 350 OFFCURVE",
"140 220 OFFCURVE",
"49 88 CURVE",
"115 39 LINE",
"201 164 OFFCURVE",
"281 314 OFFCURVE",
"330 433 CURVE"
);
},
{
closed = 1;
nodes = (
"136 -232 OFFCURVE",
"167 -280 OFFCURVE",
"229 -325 CURVE",
"300 -316 LINE",
"350 -238 OFFCURVE",
"381 -152 OFFCURVE",
"381 -81 CURVE SMOOTH",
"381 -31 OFFCURVE",
"350 16 OFFCURVE",
"284 68 CURVE",
"210 58 LINE",
"160 -24 OFFCURVE",
"136 -107 OFFCURVE",
"136 -175 CURVE SMOOTH"
);
},
{
closed = 1;
nodes = (
"237 21 LINE",
"284 -24 OFFCURVE",
"301 -58 OFFCURVE",
"301 -87 CURVE SMOOTH",
"301 -135 OFFCURVE",
"288 -197 OFFCURVE",
"249 -278 CURVE",
"273 -278 LINE",
"230 -233 OFFCURVE",
"216 -205 OFFCURVE",
"216 -166 CURVE SMOOTH",
"216 -118 OFFCURVE",
"233 -50 OFFCURVE",
"272 24 CURVE"
);
}
);
width = 600;
}
);
unicode = 1B1D6;
},
{
color = 4;
glyphname = u1B1D7;
lastChange = "2020-02-13 13:26:31 +0000";
layers = (
{
layerId = "CFFEBDE4-599A-46B2-9328-D96E42CD9C81";
paths = (
{
closed = 1;
nodes = (
"177 181 LINE",
"177 -82 OFFCURVE",
"166 -174 OFFCURVE",
"109 -296 CURVE",
"188 -325 LINE",
"242 -203 OFFCURVE",
"260 -91 OFFCURVE",
"260 177 CURVE"
);
},
{
closed = 1;
nodes = (
"110 -118 OFFCURVE",
"133 -101 OFFCURVE",
"133 -62 CURVE SMOOTH",
"133 -23 OFFCURVE",
"110 -6 OFFCURVE",
"82 -6 CURVE SMOOTH",
"53 -6 OFFCURVE",
"30 -23 OFFCURVE",
"30 -62 CURVE SMOOTH",
"30 -101 OFFCURVE",
"53 -118 OFFCURVE",
"82 -118 CURVE SMOOTH"
);
},
{
closed = 1;
nodes = (
"422 1079 LINE",
"336 841 OFFCURVE",
"214 631 OFFCURVE",
"86 468 CURVE",
"146 416 LINE",
"274 581 OFFCURVE",
"418 824 OFFCURVE",
"497 1054 CURVE"
);
},
{
closed = 1;
nodes = (
"533 422 LINE",
"470 297 OFFCURVE",
"408 200 OFFCURVE",
"297 56 CURVE",
"356 3 LINE",
"476 146 OFFCURVE",
"533 238 OFFCURVE",
"606 389 CURVE"
);
},
{
closed = 1;
nodes = (
"278 678 LINE",
"327 508 OFFCURVE",
"368 329 OFFCURVE",
"398 141 CURVE",
"468 169 LINE",
"442 374 OFFCURVE",
"399 558 OFFCURVE",
"337 759 CURVE"
);
}
);
width = 636;
}
);
unicode = 1B1D7;
},
{
color = 4;
glyphname = u1B1D8;
lastChange = "2020-01-29 15:53:16 +0000";
layers = (
{
layerId = "CFFEBDE4-599A-46B2-9328-D96E42CD9C81";
paths = (
{
closed = 1;
nodes = (
"473 545 OFFCURVE",
"496 562 OFFCURVE",
"496 601 CURVE SMOOTH",
"496 640 OFFCURVE",
"473 657 OFFCURVE",
"445 657 CURVE SMOOTH",
"416 657 OFFCURVE",
"393 640 OFFCURVE",
"393 601 CURVE SMOOTH",
"393 562 OFFCURVE",
"416 545 OFFCURVE",
"445 545 CURVE SMOOTH"
);
},
{
closed = 1;
nodes = (
"473 207 OFFCURVE",
"496 224 OFFCURVE",
"496 263 CURVE SMOOTH",
"496 302 OFFCURVE",
"473 319 OFFCURVE",
"445 319 CURVE SMOOTH",
"416 319 OFFCURVE",
"393 302 OFFCURVE",
"393 263 CURVE SMOOTH",
"393 224 OFFCURVE",
"416 207 OFFCURVE",
"445 207 CURVE SMOOTH"
);
},
{
closed = 1;
nodes = (
"40 387 LINE",
"185 174 OFFCURVE",
"258 -31 OFFCURVE",
"281 -325 CURVE",
"358 -310 LINE",
"325 10 OFFCURVE",
"244 222 OFFCURVE",
"93 449 CURVE",
"92 390 LINE",
"215 582 OFFCURVE",
"284 782 OFFCURVE",
"305 1072 CURVE",
"229 1079 LINE",
"209 804 OFFCURVE",
"153 633 OFFCURVE",
"40 458 CURVE"
);
},
{
closed = 1;
nodes = (
"185 739 OFFCURVE",
"243 598 OFFCURVE",
"243 427 CURVE SMOOTH",
"243 244 OFFCURVE",
"196 117 OFFCURVE",
"46 -48 CURVE",
"102 -100 LINE",
"254 66 OFFCURVE",
"325 222 OFFCURVE",
"325 439 CURVE SMOOTH",
"325 628 OFFCURVE",
"244 797 OFFCURVE",
"72 924 CURVE",
"25 855 LINE"
);
}
);
width = 526;
}
);
unicode = 1B1D8;
},
{
color = 4;
glyphname = u1B1D9;
lastChange = "2020-02-12 15:33:22 +0000";
layers = (
{
layerId = "CFFEBDE4-599A-46B2-9328-D96E42CD9C81";
paths = (
{
closed = 1;
nodes = (
"267 243 OFFCURVE",
"300 169 OFFCURVE",
"300 75 CURVE SMOOTH",
"300 -36 OFFCURVE",
"279 -149 OFFCURVE",
"195 -286 CURVE",
"271 -325 LINE",
"378 -150 OFFCURVE",
"386 -28 OFFCURVE",
"386 88 CURVE SMOOTH",
"386 186 OFFCURVE",
"351 272 OFFCURVE",
"255 440 CURVE SMOOTH",
"151 623 OFFCURVE",
"128 673 OFFCURVE",
"128 754 CURVE SMOOTH",
"128 800 OFFCURVE",
"138 849 OFFCURVE",
"163 921 CURVE",
"85 945 LINE",
"54 869 OFFCURVE",
"42 808 OFFCURVE",
"42 744 CURVE SMOOTH",
"42 650 OFFCURVE",
"71 583 OFFCURVE",
"178 397 CURVE SMOOTH"
);
},
{
closed = 1;
nodes = (
"470 425 LINE",
"511 515 OFFCURVE",
"527 582 OFFCURVE",
"527 673 CURVE SMOOTH",
"527 800 OFFCURVE",
"494 921 OFFCURVE",
"395 1079 CURVE",
"317 1055 LINE",
"302 836 OFFCURVE",
"267 704 OFFCURVE",
"148 483 CURVE SMOOTH",
"54 308 OFFCURVE",
"30 236 OFFCURVE",
"30 148 CURVE SMOOTH",
"30 69 OFFCURVE",
"49 0 OFFCURVE",
"88 -68 CURVE",
"155 -35 LINE",
"127 30 OFFCURVE",
"112 91 OFFCURVE",
"112 152 CURVE SMOOTH",
"112 219 OFFCURVE",
"139 318 OFFCURVE",
"230 475 CURVE SMOOTH",
"338 662 OFFCURVE",
"380 818 OFFCURVE",
"380 1020 CURVE",
"346 1025 LINE",
"420 900 OFFCURVE",
"451 786 OFFCURVE",
"451 690 CURVE SMOOTH",
"451 596 OFFCURVE",
"437 531 OFFCURVE",
"396 458 CURVE"
);
}
);
width = 557;
}
);
unicode = 1B1D9;
},
{
color = 4;
glyphname = u1B1DA;
lastChange = "2020-01-30 14:50:11 +0000";
layers = (
{
layerId = "CFFEBDE4-599A-46B2-9328-D96E42CD9C81";
paths = (
{
closed = 1;
nodes = (
"347 20 OFFCURVE",
"370 37 OFFCURVE",
"370 76 CURVE SMOOTH",
"370 115 OFFCURVE",
"347 132 OFFCURVE",
"319 132 CURVE SMOOTH",
"290 132 OFFCURVE",
"267 115 OFFCURVE",
"267 76 CURVE SMOOTH",
"267 37 OFFCURVE",
"290 20 OFFCURVE",
"319 20 CURVE SMOOTH"
);
},
{
closed = 1;
nodes = (
"446 792 LINE",
"369 593 OFFCURVE",
"276 431 OFFCURVE",
"139 266 CURVE",
"176 198 LINE",
"327 370 OFFCURVE",
"436 555 OFFCURVE",
"517 761 CURVE"
);
},
{
closed = 1;
nodes = (
"209 717 LINE",
"344 500 OFFCURVE",
"405 295 OFFCURVE",
"451 28 CURVE",
"530 44 LINE",
"484 335 OFFCURVE",
"396 574 OFFCURVE",
"260 787 CURVE"
);
},
{
closed = 1;
nodes = (
"294 1079 LINE",
"250 869 OFFCURVE",
"177 697 OFFCURVE",
"51 536 CURVE",
"99 413 OFFCURVE",
"121 306 OFFCURVE",
"121 150 CURVE SMOOTH",
"121 -15 OFFCURVE",
"92 -158 OFFCURVE",
"30 -298 CURVE",
"106 -325 LINE",
"174 -168 OFFCURVE",
"201 -22 OFFCURVE",
"201 157 CURVE SMOOTH",
"201 319 OFFCURVE",
"176 437 OFFCURVE",
"125 547 CURVE",
"130 498 LINE",
"252 668 OFFCURVE",
"327 838 OFFCURVE",
"374 1065 CURVE"
);
}
);
width = 560;
}
);
unicode = 1B1DA;
},
{
color = 4;
glyphname = u1B1DB;
lastChange = "2020-01-30 14:14:24 +0000";
layers = (
{
layerId = "CFFEBDE4-599A-46B2-9328-D96E42CD9C81";
paths = (
{
closed = 1;
nodes = (
"160 296 OFFCURVE",
"183 313 OFFCURVE",
"183 352 CURVE SMOOTH",
"183 391 OFFCURVE",
"160 408 OFFCURVE",
"132 408 CURVE SMOOTH",
"103 408 OFFCURVE",
"80 391 OFFCURVE",
"80 352 CURVE SMOOTH",
"80 313 OFFCURVE",
"103 296 OFFCURVE",
"132 296 CURVE SMOOTH"
);
},
{
closed = 1;
nodes = (
"462 649 OFFCURVE",
"485 666 OFFCURVE",
"485 705 CURVE SMOOTH",
"485 744 OFFCURVE",
"462 761 OFFCURVE",
"434 761 CURVE SMOOTH",
"405 761 OFFCURVE",
"382 744 OFFCURVE",
"382 705 CURVE SMOOTH",
"382 666 OFFCURVE",
"405 649 OFFCURVE",
"434 649 CURVE SMOOTH"
);
},
{
closed = 1;
nodes = (
"223 672 LINE",
"263 528 OFFCURVE",
"282 382 OFFCURVE",
"282 126 CURVE SMOOTH",
"282 -21 OFFCURVE",
"273 -145 OFFCURVE",
"241 -314 CURVE",
"320 -325 LINE",
"350 -156 OFFCURVE",
"362 -8 OFFCURVE",
"362 164 CURVE SMOOTH",
"362 418 OFFCURVE",
"328 594 OFFCURVE",
"275 752 CURVE"
);
},
{
closed = 1;
nodes = (
"395 1079 LINE",
"294 852 OFFCURVE",
"173 679 OFFCURVE",
"20 520 CURVE",
"75 464 LINE",
"231 629 OFFCURVE",
"366 825 OFFCURVE",
"468 1050 CURVE"
);
},
{
closed = 1;
nodes = (
"500 595 LINE",
"390 425 OFFCURVE",
"226 233 OFFCURVE",
"44 83 CURVE",
"90 21 LINE",
"266 169 OFFCURVE",
"436 366 OFFCURVE",
"563 551 CURVE"
);
}
);
width = 583;
}
);
unicode = 1B1DB;
},
{
color = 4;
glyphname = u1B1DC;
lastChange = "2020-01-30 14:50:11 +0000";
layers = (
{
layerId = "CFFEBDE4-599A-46B2-9328-D96E42CD9C81";
paths = (
{
closed = 1;
nodes = (
"447 1079 LINE",
"403 869 OFFCURVE",
"345 729 OFFCURVE",
"234 568 CURVE",
"312 411 OFFCURVE",
"344 286 OFFCURVE",
"344 137 CURVE SMOOTH",
"344 -49 OFFCURVE",
"308 -154 OFFCURVE",
"222 -284 CURVE",
"289 -325 LINE",
"383 -183 OFFCURVE",
"424 -42 OFFCURVE",
"424 137 CURVE SMOOTH",
"424 299 OFFCURVE",
"387 429 OFFCURVE",
"308 579 CURVE",
"313 530 LINE",
"420 700 OFFCURVE",
"480 838 OFFCURVE",
"527 1065 CURVE"
);
},
{
closed = 1;
nodes = (
"601 341 LINE",
"571 542 OFFCURVE",
"524 680 OFFCURVE",
"433 835 CURVE",
"395 741 LINE",
"465 617 OFFCURVE",
"498 514 OFFCURVE",
"523 324 CURVE"
);
},
{
closed = 1;
nodes = (
"30 8 OFFCURVE",
"61 -40 OFFCURVE",
"123 -85 CURVE",
"194 -76 LINE",
"244 2 OFFCURVE",
"275 88 OFFCURVE",
"275 159 CURVE SMOOTH",
"275 209 OFFCURVE",
"244 256 OFFCURVE",
"178 308 CURVE",
"104 298 LINE",
"54 216 OFFCURVE",
"30 133 OFFCURVE",
"30 65 CURVE SMOOTH"
);
},
{
closed = 1;
nodes = (
"131 261 LINE",
"178 216 OFFCURVE",
"195 182 OFFCURVE",
"195 153 CURVE SMOOTH",
"195 105 OFFCURVE",
"182 43 OFFCURVE",
"143 -38 CURVE",
"167 -38 LINE",
"124 7 OFFCURVE",
"110 35 OFFCURVE",
"110 74 CURVE SMOOTH",
"110 122 OFFCURVE",
"127 190 OFFCURVE",
"166 264 CURVE"
);
}
);
width = 631;
}
);
unicode = 1B1DC;
},
{
color = 4;
glyphname = u1B1DD;
lastChange = "2020-02-17 14:02:33 +0000";
layers = (
{
layerId = "CFFEBDE4-599A-46B2-9328-D96E42CD9C81";
paths = (
{
closed = 1;
nodes = (
"224 1079 LINE",
"179 911 OFFCURVE",
"110 715 OFFCURVE",
"30 530 CURVE",
"176 280 OFFCURVE",
"294 50 OFFCURVE",
"418 -243 CURVE",
"498 -195 LINE",
"368 103 OFFCURVE",
"245 339 OFFCURVE",
"107 581 CURVE",
"107 496 LINE",
"190 692 OFFCURVE",
"257 868 OFFCURVE",
"308 1064 CURVE"
);
},
{
closed = 1;
nodes = (
"305 769 LINE",
"263 616 OFFCURVE",
"221 503 OFFCURVE",
"160 364 CURVE",
"221 300 LINE",
"277 432 OFFCURVE",
"331 562 OFFCURVE",
"376 711 CURVE"
);
},
{
closed = 1;
nodes = (
"218 881 LINE",
"292 764 OFFCURVE",
"368 594 OFFCURVE",
"421 461 CURVE",
"421 580 LINE",
"316 260 OFFCURVE",
"191 -15 OFFCURVE",
"36 -286 CURVE",
"110 -325 LINE",
"257 -76 OFFCURVE",
"386 204 OFFCURVE",
"493 520 CURVE",
"434 653 OFFCURVE",
"356 825 OFFCURVE",
"261 965 CURVE"
);
}
);
width = 528;
}
);
unicode = 1B1DD;
},
{
color = 4;
glyphname = u1B1DE;
lastChange = "2020-01-30 10:10:12 +0000";
layers = (
{
layerId = "CFFEBDE4-599A-46B2-9328-D96E42CD9C81";
paths = (
{
closed = 1;
nodes = (
"352 859 OFFCURVE",
"375 876 OFFCURVE",
"375 915 CURVE SMOOTH",
"375 954 OFFCURVE",
"352 971 OFFCURVE",
"324 971 CURVE SMOOTH",
"295 971 OFFCURVE",
"272 954 OFFCURVE",
"272 915 CURVE SMOOTH",
"272 876 OFFCURVE",
"295 859 OFFCURVE",
"324 859 CURVE SMOOTH"
);
},
{
closed = 1;
nodes = (
"100 499 OFFCURVE",
"123 516 OFFCURVE",
"123 555 CURVE SMOOTH",
"123 594 OFFCURVE",
"100 611 OFFCURVE",
"72 611 CURVE SMOOTH",
"43 611 OFFCURVE",
"20 594 OFFCURVE",
"20 555 CURVE SMOOTH",
"20 516 OFFCURVE",
"43 499 OFFCURVE",
"72 499 CURVE SMOOTH"
);
},
{
closed = 1;
nodes = (
"539 1079 LINE",
"441 762 OFFCURVE",
"290 525 OFFCURVE",
"63 269 CURVE",
"124 219 LINE",
"364 486 OFFCURVE",
"517 744 OFFCURVE",
"619 1061 CURVE"
);
},
{
closed = 1;
nodes = (
"598 202 LINE",
"503 10 OFFCURVE",
"392 -145 OFFCURVE",
"255 -272 CURVE",
"314 -325 LINE",
"462 -182 OFFCURVE",
"570 -37 OFFCURVE",
"672 164 CURVE"
);
},
{
closed = 1;
nodes = (
"511 -51 LINE",
"439 270 OFFCURVE",
"318 606 OFFCURVE",
"200 845 CURVE",
"124 800 LINE",
"251 556 OFFCURVE",
"372 219 OFFCURVE",
"444 -80 CURVE"
);
},
{
closed = 1;
nodes = (
"504 500 LINE",
"418 328 OFFCURVE",
"327 192 OFFCURVE",
"195 54 CURVE",
"255 -2 LINE",
"387 136 OFFCURVE",
"485 288 OFFCURVE",
"578 462 CURVE"
);
}
);
width = 692;
}
);
unicode = 1B1DE;
},
{
color = 4;
glyphname = u1B1DF;
lastChange = "2020-02-17 14:02:33 +0000";
layers = (
{
layerId = "CFFEBDE4-599A-46B2-9328-D96E42CD9C81";
paths = (
{
closed = 1;
nodes = (
"382 1079 LINE",
"324 853 OFFCURVE",
"222 626 OFFCURVE",
"58 444 CURVE",
"118 397 LINE",
"290 602 OFFCURVE",
"391 800 OFFCURVE",
"460 1056 CURVE"
);
},
{
closed = 1;
nodes = (
"508 465 LINE",
"438 337 OFFCURVE",
"346 209 OFFCURVE",
"242 116 CURVE",
"293 66 LINE",
"410 167 OFFCURVE",
"499 282 OFFCURVE",
"573 421 CURVE"
);
},
{
closed = 1;
nodes = (
"409 454 OFFCURVE",
"432 471 OFFCURVE",
"432 510 CURVE SMOOTH",
"432 549 OFFCURVE",
"409 566 OFFCURVE",
"381 566 CURVE SMOOTH",
"352 566 OFFCURVE",
"329 549 OFFCURVE",
"329 510 CURVE SMOOTH",
"329 471 OFFCURVE",
"352 454 OFFCURVE",
"381 454 CURVE SMOOTH"
);
},
{
closed = 1;
nodes = (
"270 252 OFFCURVE",
"293 269 OFFCURVE",
"293 308 CURVE SMOOTH",
"293 347 OFFCURVE",
"270 364 OFFCURVE",
"242 364 CURVE SMOOTH",
"213 364 OFFCURVE",
"190 347 OFFCURVE",
"190 308 CURVE SMOOTH",
"190 269 OFFCURVE",
"213 252 OFFCURVE",
"242 252 CURVE SMOOTH"
);
},
{
closed = 1;
nodes = (
"130 59 LINE",
"168 -38 OFFCURVE",
"189 -93 OFFCURVE",
"216 -167 CURVE SMOOTH",
"235 -220 OFFCURVE",
"253 -271 OFFCURVE",
"272 -325 CURVE",
"350 -294 LINE",
"300 -141 OFFCURVE",
"243 -15 OFFCURVE",
"168 113 CURVE"
);
},
{
closed = 1;
nodes = (
"108 174 LINE",
"94 25 OFFCURVE",
"62 -127 OFFCURVE",
"30 -236 CURVE",
"107 -257 LINE",
"141 -146 OFFCURVE",
"173 29 OFFCURVE",
"186 168 CURVE"
);
}
);
width = 603;
}
);
unicode = 1B1DF;
},
{
color = 4;
glyphname = u1B1E0;
lastChange = "2020-02-13 16:53:55 +0000";
layers = (
{
layerId = "CFFEBDE4-599A-46B2-9328-D96E42CD9C81";
paths = (
{
closed = 1;
nodes = (
"59 850 LINE",
"168 647 OFFCURVE",
"213 434 OFFCURVE",
"213 235 CURVE SMOOTH",
"213 48 OFFCURVE",
"188 -141 OFFCURVE",
"117 -302 CURVE",
"192 -325 LINE",
"266 -148 OFFCURVE",
"293 20 OFFCURVE",
"293 235 CURVE SMOOTH",
"293 486 OFFCURVE",
"237 688 OFFCURVE",
"130 885 CURVE"
);
},
{
closed = 1;
nodes = (
"415 1079 LINE",
"363 858 OFFCURVE",
"297 680 OFFCURVE",
"193 534 CURVE",
"243 477 LINE",
"368 651 OFFCURVE",
"452 830 OFFCURVE",
"500 1058 CURVE"
);
},
{
closed = 1;
nodes = (
"511 719 LINE",
"433 557 OFFCURVE",
"362 457 OFFCURVE",
"248 338 CURVE",
"282 267 LINE",
"399 385 OFFCURVE",
"500 511 OFFCURVE",
"582 683 CURVE"
);
},
{
closed = 1;
nodes = (
"110 175 OFFCURVE",
"133 192 OFFCURVE",
"133 231 CURVE SMOOTH",
"133 270 OFFCURVE",
"110 287 OFFCURVE",
"82 287 CURVE SMOOTH",
"53 287 OFFCURVE",
"30 270 OFFCURVE",
"30 231 CURVE SMOOTH",
"30 192 OFFCURVE",
"53 175 OFFCURVE",
"82 175 CURVE SMOOTH"
);
},
{
closed = 1;
nodes = (
"468 147 OFFCURVE",
"491 164 OFFCURVE",
"491 203 CURVE SMOOTH",
"491 242 OFFCURVE",
"468 259 OFFCURVE",
"440 259 CURVE SMOOTH",
"411 259 OFFCURVE",
"388 242 OFFCURVE",
"388 203 CURVE SMOOTH",
"388 164 OFFCURVE",
"411 147 OFFCURVE",
"440 147 CURVE SMOOTH"
);
},
{
closed = 1;
nodes = (
"427 -111 OFFCURVE",
"450 -94 OFFCURVE",
"450 -55 CURVE SMOOTH",
"450 -16 OFFCURVE",
"427 1 OFFCURVE",
"399 1 CURVE SMOOTH",
"370 1 OFFCURVE",
"347 -16 OFFCURVE",
"347 -55 CURVE SMOOTH",
"347 -94 OFFCURVE",
"370 -111 OFFCURVE",
"399 -111 CURVE SMOOTH"
);
}
);
width = 612;
}
);
unicode = 1B1E0;
},
{
color = 4;
glyphname = u1B1E1;
lastChange = "2020-02-13 13:09:23 +0000";
layers = (
{
layerId = "CFFEBDE4-599A-46B2-9328-D96E42CD9C81";
paths = (
{
closed = 1;
nodes = (
"264 1079 LINE",
"232 750 OFFCURVE",
"158 458 OFFCURVE",
"30 218 CURVE",
"101 183 LINE",
"230 429 OFFCURVE",
"299 666 OFFCURVE",
"342 1069 CURVE"
);
},
{
closed = 1;
nodes = (
"233 784 LINE",
"337 617 OFFCURVE",
"438 421 OFFCURVE",
"510 218 CURVE",
"587 261 LINE",
"506 466 OFFCURVE",
"400 679 OFFCURVE",
"288 849 CURVE"
);
},
{
closed = 1;
nodes = (
"414 528 LINE",
"331 267 OFFCURVE",
"221 39 OFFCURVE",
"90 -166 CURVE",
"153 -212 LINE",
"287 -10 OFFCURVE",
"387 210 OFFCURVE",
"483 487 CURVE"
);
},
{
closed = 1;
nodes = (
"156 415 LINE",
"258 195 OFFCURVE",
"341 -30 OFFCURVE",
"403 -325 CURVE",
"484 -312 LINE",
"416 6 OFFCURVE",
"329 239 OFFCURVE",
"211 480 CURVE"
);
},
{
closed = 1;
nodes = (
"489 840 OFFCURVE",
"512 857 OFFCURVE",
"512 896 CURVE SMOOTH",
"512 935 OFFCURVE",
"489 952 OFFCURVE",
"461 952 CURVE SMOOTH",
"432 952 OFFCURVE",
"409 935 OFFCURVE",
"409 896 CURVE SMOOTH",
"409 857 OFFCURVE",
"432 840 OFFCURVE",
"461 840 CURVE SMOOTH"
);
},
{
closed = 1;
nodes = (
"110 697 OFFCURVE",
"133 714 OFFCURVE",
"133 753 CURVE SMOOTH",
"133 792 OFFCURVE",
"110 809 OFFCURVE",
"82 809 CURVE SMOOTH",
"53 809 OFFCURVE",
"30 792 OFFCURVE",
"30 753 CURVE SMOOTH",
"30 714 OFFCURVE",
"53 697 OFFCURVE",
"82 697 CURVE SMOOTH"
);
}
);
width = 617;
}
);
unicode = 1B1E1;
},
